<svg width="146" height="52" viewBox="0 0 146 52" fill="none" xmlns="http://www.w3.org/2000/svg">
<path d="M34.3743 26.1135C34.347 23.1556 36.8584 21.7165 36.9732 21.6495C35.5509 19.6277 33.3464 19.3514 32.5717 19.3294C30.7202 19.1394 28.9242 20.4096 27.981 20.4096C27.019 20.4096 25.5666 19.3478 24.0012 19.379C21.9868 19.4093 20.1023 20.5464 19.0688 22.3121C16.9358 25.9125 18.5266 31.2035 20.5702 34.1137C21.5924 35.539 22.7869 37.1304 24.3504 37.0744C25.88 37.0129 26.4514 36.1236 28.2973 36.1236C30.1262 36.1236 30.6628 37.0744 32.2573 37.0386C33.8989 37.0129 34.9325 35.6069 35.919 34.1688C37.1003 32.5351 37.5747 30.9263 37.5935 30.8437C37.5549 30.8308 34.4054 29.6589 34.3743 26.1135Z" fill="white"/>
<path d="M31.3621 17.415C32.1848 16.4118 32.7477 15.0471 32.5915 13.6622C31.4007 13.7136 29.9116 14.4653 29.0541 15.4464C28.2954 16.3109 27.6177 17.7279 27.7927 19.0605C29.1303 19.1578 30.5037 18.4025 31.3621 17.415Z" fill="white"/>
<path d="M52.1856 17.1424C52.1856 18.2226 51.8533 19.0357 51.1897 19.5818C50.575 20.0857 49.7015 20.3381 48.57 20.3381C48.009 20.3381 47.5289 20.3142 47.127 20.2665V14.3643C47.6513 14.2817 48.2161 14.2395 48.8261 14.2395C49.9038 14.2395 50.7162 14.468 51.264 14.9251C51.8777 15.4418 52.1856 16.1806 52.1856 17.1424ZM51.1454 17.169C51.1454 16.4688 50.9553 15.9319 50.575 15.5574C50.1947 15.1839 49.6393 14.9967 48.908 14.9967C48.5973 14.9967 48.3328 15.0168 48.1135 15.0591V19.546C48.2349 19.5644 48.4571 19.5726 48.7799 19.5726C49.5349 19.5726 50.1175 19.368 50.5279 18.9586C50.9383 18.5493 51.1454 17.9528 51.1454 17.169Z" fill="white"/>
<path d="M57.7006 18.0858C57.7006 18.7512 57.5057 19.2964 57.116 19.7241C56.7075 20.1637 56.1663 20.383 55.4904 20.383C54.839 20.383 54.3204 20.1728 53.9335 19.7507C53.5476 19.3294 53.3546 18.798 53.3546 18.1574C53.3546 17.4875 53.5532 16.9377 53.9523 16.511C54.3514 16.0842 54.888 15.8704 55.5638 15.8704C56.2152 15.8704 56.7386 16.0805 57.1349 16.5018C57.5114 16.9111 57.7006 17.4397 57.7006 18.0858ZM56.6774 18.117C56.6774 17.7178 56.5889 17.3755 56.4129 17.0901C56.2058 16.745 55.9112 16.5725 55.5281 16.5725C55.1318 16.5725 54.8306 16.745 54.6235 17.0901C54.4465 17.3755 54.359 17.7233 54.359 18.1345C54.359 18.5337 54.4475 18.876 54.6235 19.1615C54.8372 19.5065 55.1346 19.6791 55.5187 19.6791C55.8952 19.6791 56.1907 19.5038 56.4035 19.1523C56.5861 18.8614 56.6774 18.5163 56.6774 18.117Z" fill="white"/>
<path d="M65.0954 15.9585L63.707 20.2848H62.8034L62.2282 18.4062C62.0823 17.9372 61.9637 17.4709 61.8715 17.0084H61.8536C61.768 17.4838 61.6494 17.9491 61.4969 18.4062L60.886 20.2848H59.972L58.6664 15.9585H59.6802L60.1819 18.0152C60.3033 18.5016 60.4031 18.9651 60.4831 19.4038H60.501C60.5744 19.0422 60.6958 18.5814 60.8671 18.0244L61.4969 15.9594H62.3007L62.9041 17.9803C63.05 18.4731 63.1686 18.9476 63.2599 19.4047H63.2872C63.354 18.9596 63.4548 18.4851 63.5884 17.9803L64.1268 15.9594H65.0954V15.9585Z" fill="white"/>
<path d="M70.2095 20.2848H69.223V17.8069C69.223 17.0433 68.9256 16.6615 68.3288 16.6615C68.036 16.6615 67.7998 16.7661 67.6162 16.9763C67.4345 17.1864 67.3423 17.4342 67.3423 17.7178V20.2839H66.3558V17.1947C66.3558 16.8147 66.3436 16.4027 66.3201 15.9566H67.187L67.2331 16.633H67.2604C67.3752 16.4229 67.5466 16.2494 67.7715 16.1108C68.0389 15.9493 68.3382 15.8676 68.6658 15.8676C69.0799 15.8676 69.4244 15.9979 69.6984 16.2595C70.0391 16.5798 70.2095 17.058 70.2095 17.693V20.2848Z" fill="white"/>
<path d="M72.9298 20.2848H71.9443V13.9733H72.9298V20.2848Z" fill="white"/>
<path d="M78.7377 18.0858C78.7377 18.7512 78.5428 19.2964 78.1531 19.7241C77.7446 20.1637 77.2024 20.383 76.5275 20.383C75.8752 20.383 75.3565 20.1728 74.9706 19.7507C74.5847 19.3294 74.3917 18.798 74.3917 18.1574C74.3917 17.4875 74.5903 16.9377 74.9894 16.511C75.3885 16.0842 75.9251 15.8704 76.6 15.8704C77.2523 15.8704 77.7747 16.0805 78.1719 16.5018C78.5485 16.9111 78.7377 17.4397 78.7377 18.0858ZM77.7135 18.117C77.7135 17.7178 77.6251 17.3755 77.449 17.0901C77.2429 16.745 76.9473 16.5725 76.5651 16.5725C76.1679 16.5725 75.8667 16.745 75.6606 17.0901C75.4836 17.3755 75.3961 17.7233 75.3961 18.1345C75.3961 18.5337 75.4845 18.876 75.6606 19.1615C75.8742 19.5065 76.1717 19.6791 76.5557 19.6791C76.9323 19.6791 77.2269 19.5038 77.4396 19.1523C77.6232 18.8614 77.7135 18.5163 77.7135 18.117Z" fill="white"/>
<path d="M83.5119 20.2848H82.6262L82.5527 19.7865H82.5254C82.2223 20.1839 81.7903 20.383 81.2293 20.383C80.8104 20.383 80.4715 20.2518 80.2164 19.9911C79.9849 19.7543 79.8691 19.4597 79.8691 19.1101C79.8691 18.5814 80.095 18.1785 80.5497 17.8995C81.0034 17.6205 81.6416 17.4838 82.4633 17.4902V17.4095C82.4633 16.8395 82.1564 16.555 81.5418 16.555C81.1041 16.555 80.7181 16.6624 80.3849 16.8753L80.1844 16.2439C80.5967 15.9952 81.106 15.8704 81.7065 15.8704C82.8662 15.8704 83.4479 16.4669 83.4479 17.66V19.2532C83.4479 19.6855 83.4696 20.0297 83.5119 20.2848ZM82.4878 18.798V18.1308C81.3996 18.1125 80.8556 18.4034 80.8556 19.0027C80.8556 19.2285 80.9177 19.3973 81.0448 19.5102C81.1718 19.6231 81.3338 19.6791 81.5267 19.6791C81.7432 19.6791 81.9456 19.6121 82.1301 19.479C82.3155 19.345 82.4294 19.1752 82.4718 18.9669C82.4821 18.9201 82.4878 18.8632 82.4878 18.798Z" fill="white"/>
<path d="M89.1173 20.2848H88.2419L88.1958 19.5901H88.1685C87.8889 20.1187 87.4126 20.383 86.7434 20.383C86.2087 20.383 85.7635 20.1784 85.4105 19.769C85.0575 19.3597 84.8815 18.8283 84.8815 18.1758C84.8815 17.4755 85.0726 16.9084 85.4566 16.4752C85.8284 16.0714 86.284 15.8694 86.8262 15.8694C87.4221 15.8694 87.839 16.0649 88.0763 16.4568H88.0951V13.9733H89.0825V19.1193C89.0825 19.5405 89.0938 19.9287 89.1173 20.2848ZM88.0951 18.4603V17.7389C88.0951 17.6141 88.0857 17.5132 88.0678 17.4361C88.0122 17.2048 87.8927 17.0102 87.711 16.8533C87.5275 16.6964 87.3063 16.6174 87.0512 16.6174C86.6831 16.6174 86.3951 16.7597 86.1833 17.0451C85.9734 17.3305 85.867 17.6949 85.867 18.14C85.867 18.5677 85.9678 18.9146 86.1701 19.1817C86.3838 19.4662 86.6718 19.6084 87.0324 19.6084C87.3562 19.6084 87.615 19.49 87.8118 19.2523C88.0019 19.033 88.0951 18.7687 88.0951 18.4603Z" fill="white"/>
<path d="M97.5542 18.0858C97.5542 18.7512 97.3593 19.2964 96.9696 19.7241C96.5611 20.1637 96.0208 20.383 95.344 20.383C94.6936 20.383 94.1749 20.1728 93.7871 19.7507C93.4012 19.3294 93.2082 18.798 93.2082 18.1574C93.2082 17.4875 93.4068 16.9377 93.8059 16.511C94.2051 16.0842 94.7416 15.8704 95.4184 15.8704C96.0688 15.8704 96.5931 16.0805 96.9885 16.5018C97.365 16.9111 97.5542 17.4397 97.5542 18.0858ZM96.5319 18.117C96.5319 17.7178 96.4435 17.3755 96.2674 17.0901C96.0594 16.745 95.7657 16.5725 95.3817 16.5725C94.9863 16.5725 94.6851 16.745 94.4771 17.0901C94.3001 17.3755 94.2126 17.7233 94.2126 18.1345C94.2126 18.5337 94.3011 18.876 94.4771 19.1615C94.6908 19.5065 94.9882 19.6791 95.3723 19.6791C95.7488 19.6791 96.0453 19.5038 96.258 19.1523C96.4397 18.8614 96.5319 18.5163 96.5319 18.117Z" fill="white"/>
<path d="M102.858 20.2848H101.873V17.8069C101.873 17.0433 101.575 16.6615 100.978 16.6615C100.685 16.6615 100.449 16.7661 100.266 16.9763C100.083 17.1864 99.9921 17.4342 99.9921 17.7178V20.2839H99.0047V17.1947C99.0047 16.8147 98.9934 16.4027 98.9699 15.9566H99.8359L99.882 16.633H99.9093C100.025 16.4229 100.196 16.2494 100.42 16.1108C100.689 15.9493 100.987 15.8676 101.316 15.8676C101.729 15.8676 102.073 15.9979 102.347 16.2595C102.689 16.5798 102.858 17.058 102.858 17.693V20.2848Z" fill="white"/>
<path d="M109.497 16.6789H108.411V18.7806C108.411 19.3147 108.604 19.5818 108.986 19.5818C109.163 19.5818 109.31 19.5671 109.426 19.5368L109.451 20.2665C109.256 20.338 109 20.3738 108.685 20.3738C108.295 20.3738 107.992 20.2582 107.773 20.0269C107.553 19.7957 107.443 19.4065 107.443 18.8604V16.6789H106.795V15.9585H107.443V15.1655L108.41 14.881V15.9576H109.496V16.6789H109.497Z" fill="white"/>
<path d="M114.72 20.2848H113.732V17.8252C113.732 17.0497 113.435 16.6615 112.839 16.6615C112.382 16.6615 112.069 16.8863 111.898 17.336C111.868 17.4306 111.852 17.5462 111.852 17.682V20.2839H110.866V13.9733H111.852V16.5807H111.87C112.181 16.1062 112.626 15.8694 113.203 15.8694C113.612 15.8694 113.95 15.9998 114.218 16.2613C114.552 16.5871 114.72 17.0717 114.72 17.7123V20.2848Z" fill="white"/>
<path d="M120.107 17.917C120.107 18.0895 120.094 18.2345 120.07 18.3529H117.112C117.125 18.7806 117.266 19.1064 117.54 19.3322C117.79 19.5341 118.113 19.635 118.508 19.635C118.946 19.635 119.345 19.5671 119.705 19.4304L119.859 20.0985C119.438 20.2766 118.943 20.3656 118.37 20.3656C117.683 20.3656 117.142 20.1683 116.75 19.7736C116.357 19.379 116.162 18.8494 116.162 18.185C116.162 17.5324 116.343 16.9891 116.71 16.5559C117.092 16.0934 117.609 15.8621 118.261 15.8621C118.899 15.8621 119.384 16.0934 119.711 16.5559C119.976 16.923 120.107 17.3773 120.107 17.917ZM119.165 17.6683C119.173 17.3828 119.108 17.1369 118.974 16.9295C118.803 16.6624 118.542 16.5284 118.189 16.5284C117.867 16.5284 117.605 16.6587 117.404 16.9203C117.24 17.1286 117.144 17.3773 117.112 17.6683H119.165Z" fill="white"/>
<rect x="0.5" y="0.500076" width="145" height="51" rx="9.5" stroke="#24272F"/>
<path d="M56.5108 36.8697H54.3731L53.2021 33.2822H49.1319L48.0165 36.8697H45.9353L49.9678 24.6561H52.4585L56.5108 36.8697ZM52.8491 31.777L51.7902 28.5878C51.6782 28.262 51.4682 27.4948 51.1586 26.287H51.1209C50.9976 26.8064 50.799 27.5737 50.526 28.5878L49.4859 31.777H52.8491Z" fill="white"/>
<path d="M66.8811 32.358C66.8811 33.8558 66.4659 35.0397 65.6357 35.9088C64.8921 36.6825 63.9687 37.0689 62.8664 37.0689C61.6766 37.0689 60.8219 36.6522 60.3014 35.8189H60.2637V40.4582H58.2569V30.9621C58.2569 30.0205 58.2315 29.0541 58.1825 28.0629H59.9475L60.0595 29.4588H60.0971C60.7664 28.407 61.782 27.8821 63.145 27.8821C64.2106 27.8821 65.1001 28.2923 65.8117 29.1137C66.5252 29.936 66.8811 31.0172 66.8811 32.358ZM64.8366 32.4296C64.8366 31.5724 64.6389 30.8657 64.2417 30.3096C63.8077 29.7295 63.2251 29.4395 62.4946 29.4395C61.9995 29.4395 61.5495 29.601 61.1476 29.9195C60.7447 30.2407 60.4812 30.6601 60.3579 31.1796C60.2957 31.4219 60.2647 31.6201 60.2647 31.7761V33.2446C60.2647 33.8852 60.4661 34.4257 60.869 34.8672C61.2719 35.3086 61.7952 35.5289 62.4391 35.5289C63.1949 35.5289 63.7832 35.2444 64.204 34.6772C64.6257 34.1091 64.8366 33.3602 64.8366 32.4296Z" fill="white"/>
<path d="M77.2702 32.358C77.2702 33.8558 76.855 35.0397 76.0239 35.9088C75.2812 36.6825 74.3578 37.0689 73.2555 37.0689C72.0657 37.0689 71.211 36.6522 70.6914 35.8189H70.6538V40.4582H68.6469V30.9621C68.6469 30.0205 68.6215 29.0541 68.5726 28.0629H70.3375L70.4495 29.4588H70.4872C71.1555 28.407 72.1712 27.8821 73.5351 27.8821C74.5997 27.8821 75.4892 28.2923 76.2027 29.1137C76.9134 29.936 77.2702 31.0172 77.2702 32.358ZM75.2257 32.4296C75.2257 31.5724 75.027 30.8657 74.6298 30.3096C74.1959 29.7295 73.6151 29.4395 72.8837 29.4395C72.3877 29.4395 71.9387 29.601 71.5358 29.9195C71.1329 30.2407 70.8703 30.6601 70.747 31.1796C70.6858 31.4219 70.6538 31.6201 70.6538 31.7761V33.2446C70.6538 33.8852 70.8552 34.4257 71.2562 34.8672C71.6591 35.3077 72.1825 35.5289 72.8282 35.5289C73.584 35.5289 74.1724 35.2444 74.5931 34.6772C75.0148 34.1091 75.2257 33.3602 75.2257 32.4296Z" fill="white"/>
<path d="M88.8858 33.4446C88.8858 34.4835 88.5158 35.3288 87.7732 35.9813C86.957 36.6944 85.8209 37.0505 84.3609 37.0505C83.013 37.0505 81.9324 36.7972 81.1144 36.2897L81.5794 34.6588C82.4605 35.1783 83.4272 35.4389 84.4805 35.4389C85.2364 35.4389 85.8247 35.2719 86.2473 34.9397C86.6681 34.6074 86.878 34.1614 86.878 33.6052C86.878 33.1097 86.7048 32.6921 86.3574 32.3534C86.012 32.0148 85.435 31.7 84.6292 31.409C82.436 30.6115 81.3403 29.4432 81.3403 27.9068C81.3403 26.9028 81.7244 26.0796 82.4934 25.439C83.2596 24.7975 84.2819 24.4772 85.5602 24.4772C86.7001 24.4772 87.647 24.6708 88.4029 25.0572L87.9012 26.6523C87.1952 26.2778 86.397 26.0906 85.5037 26.0906C84.7977 26.0906 84.2461 26.2604 83.8508 26.5981C83.5166 26.9001 83.3491 27.2681 83.3491 27.704C83.3491 28.1868 83.5401 28.586 83.9242 28.8999C84.2583 29.1899 84.8655 29.5038 85.7465 29.8424C86.8243 30.2655 87.616 30.7602 88.1252 31.3274C88.6326 31.8927 88.8858 32.6003 88.8858 33.4446Z" fill="white"/>
<path d="M95.521 29.5313H93.3089V33.8071C93.3089 34.8947 93.6986 35.438 94.4799 35.438C94.8385 35.438 95.136 35.4077 95.3713 35.3472L95.4268 36.833C95.0315 36.9771 94.5109 37.0496 93.8662 37.0496C93.0736 37.0496 92.4542 36.8137 92.0071 36.3429C91.5619 35.8712 91.3378 35.0801 91.3378 33.9687V29.5294H90.02V28.061H91.3378V26.4485L93.3089 25.8685V28.061H95.521V29.5313Z" fill="white"/>
<path d="M105.502 32.3938C105.502 33.7475 105.104 34.8589 104.312 35.728C103.481 36.6229 102.377 37.0689 101.002 37.0689C99.6768 37.0689 98.6216 36.6403 97.8347 35.7831C97.0477 34.9259 96.6543 33.8439 96.6543 32.5397C96.6543 31.175 97.059 30.0572 97.8714 29.188C98.6818 28.318 99.7756 27.883 101.151 27.883C102.476 27.883 103.543 28.3116 104.347 29.1697C105.117 30.0021 105.502 31.0768 105.502 32.3938ZM103.419 32.4571C103.419 31.6449 103.241 30.9483 102.881 30.3674C102.46 29.6644 101.859 29.3138 101.079 29.3138C100.273 29.3138 99.6598 29.6653 99.2391 30.3674C98.8786 30.9492 98.7006 31.6568 98.7006 32.4938C98.7006 33.3061 98.8786 34.0026 99.2391 34.5827C99.673 35.2857 100.279 35.6363 101.061 35.6363C101.828 35.6363 102.429 35.2783 102.863 34.5643C103.233 33.9724 103.419 33.2684 103.419 32.4571Z" fill="white"/>
<path d="M112.025 29.7837C111.826 29.7479 111.614 29.7295 111.392 29.7295C110.686 29.7295 110.14 29.9893 109.756 30.5096C109.422 30.9685 109.254 31.5485 109.254 32.2488V36.8697H107.249L107.267 30.8364C107.267 29.8213 107.242 28.8971 107.192 28.0638H108.94L109.014 29.7488H109.069C109.281 29.1697 109.615 28.7035 110.072 28.3538C110.52 28.039 111.002 27.8821 111.523 27.8821C111.708 27.8821 111.876 27.8949 112.025 27.9179V29.7837Z" fill="white"/>
<path d="M121 32.0496C121 32.4002 120.976 32.6957 120.927 32.9371H114.906C114.93 33.8071 115.22 34.4725 115.78 34.9314C116.287 35.3417 116.943 35.5472 117.749 35.5472C118.64 35.5472 119.453 35.4086 120.185 35.1306L120.499 36.4889C119.645 36.8523 118.635 37.0331 117.471 37.0331C116.07 37.0331 114.971 36.6311 114.171 35.8281C113.373 35.025 112.973 33.9466 112.973 32.5939C112.973 31.2659 113.344 30.16 114.089 29.278C114.868 28.3364 115.922 27.8655 117.247 27.8655C118.549 27.8655 119.534 28.3364 120.204 29.278C120.734 30.026 121 30.9511 121 32.0496ZM119.086 31.5421C119.1 30.9621 118.969 30.461 118.697 30.0379C118.349 29.4937 117.816 29.222 117.097 29.222C116.441 29.222 115.908 29.4872 115.5 30.0195C115.166 30.4426 114.967 30.9501 114.906 31.5412H119.086V31.5421Z" fill="white"/>
</svg>
