<svg width="44" height="44" viewBox="0 0 44 44" fill="none" xmlns="http://www.w3.org/2000/svg">
<path opacity="0.4" d="M31.1667 14.2083C30.8183 14.2083 30.47 14.08 30.195 13.805C29.6633 13.2733 29.6633 12.3933 30.195 11.8616L33.9533 8.10329C30.7266 5.35329 26.565 3.66663 22 3.66663C11.88 3.66663 3.66666 11.88 3.66666 22C3.66666 32.12 11.88 40.3333 22 40.3333C32.12 40.3333 40.3333 32.12 40.3333 22C40.3333 17.435 38.6466 13.2733 35.8966 10.0466L32.1383 13.805C31.8633 14.08 31.515 14.2083 31.1667 14.2083Z" fill="#39D885"/>
<path d="M25.2083 21.67L23.375 21.0283V16.9583H23.5216C24.4566 16.9583 25.2083 17.7833 25.2083 18.7917C25.2083 19.5433 25.8317 20.1667 26.5833 20.1667C27.335 20.1667 27.9583 19.5433 27.9583 18.7917C27.9583 16.2617 25.9783 14.2083 23.5216 14.2083H23.375V13.75C23.375 12.9983 22.7517 12.375 22 12.375C21.2483 12.375 20.625 12.9983 20.625 13.75V14.2083H20.075C17.8567 14.2083 16.0417 16.0783 16.0417 18.3883C16.0417 21.065 17.6 21.9267 18.7917 22.3483L20.625 22.99V27.06H20.4783C19.5433 27.06 18.7917 26.235 18.7917 25.2267C18.7917 24.475 18.1683 23.8517 17.4167 23.8517C16.665 23.8517 16.0417 24.475 16.0417 25.2267C16.0417 27.7567 18.0217 29.81 20.4783 29.81H20.625V30.2683C20.625 31.02 21.2483 31.6433 22 31.6433C22.7517 31.6433 23.375 31.02 23.375 30.2683V29.81H23.925C26.1433 29.81 27.9583 27.94 27.9583 25.63C27.9583 22.935 26.4 22.0733 25.2083 21.67ZM19.69 19.7267C19.0666 19.5067 18.7917 19.3783 18.7917 18.37C18.7917 17.5817 19.3783 16.94 20.075 16.94H20.625V20.0383L19.69 19.7267ZM23.925 27.0417H23.375V23.9433L24.31 24.2733C24.9333 24.4933 25.2083 24.6217 25.2083 25.63C25.2083 26.4 24.6216 27.0417 23.925 27.0417Z" fill="#39D885"/>
<path d="M41.5983 3.13498C41.4517 2.80498 41.195 2.52999 40.8467 2.38332C40.6817 2.30999 40.4983 2.27332 40.315 2.27332H32.9817C32.23 2.27332 31.6067 2.89665 31.6067 3.64832C31.6067 4.39998 32.23 5.02332 32.9817 5.02332H36.9967L33.935 8.08499C34.6317 8.68999 35.2734 9.33165 35.8784 10.0283L38.94 6.96666V11C38.94 11.7517 39.5633 12.375 40.315 12.375C41.0667 12.375 41.69 11.7517 41.69 11V3.66665C41.7083 3.48332 41.6717 3.31832 41.5983 3.13498Z" fill="#39D885"/>
</svg>
