<svg width="44" height="44" viewBox="0 0 44 44" fill="none" xmlns="http://www.w3.org/2000/svg">
<path opacity="0.4" d="M5.04167 34.1916C4.29 34.1916 3.66667 33.5683 3.66667 32.8166V22.3666C3.575 17.3983 5.42667 12.705 8.87334 9.18497C12.32 5.6833 16.94 3.7583 21.9083 3.7583C32.065 3.7583 40.3333 12.0266 40.3333 22.1833V32.6333C40.3333 33.385 39.71 34.0083 38.9583 34.0083C38.2067 34.0083 37.5833 33.385 37.5833 32.6333V22.1833C37.5833 13.5483 30.5617 6.5083 21.9083 6.5083C17.6733 6.5083 13.75 8.13997 10.835 11.11C7.90167 14.0983 6.34334 18.0766 6.41667 22.33V32.7983C6.41667 33.5683 5.81167 34.1916 5.04167 34.1916Z" fill="#39D885"/>
<path d="M10.89 22.825H10.6517C6.80166 22.825 3.66666 25.96 3.66666 29.81V33.2566C3.66666 37.1066 6.80166 40.2416 10.6517 40.2416H10.89C14.74 40.2416 17.875 37.1066 17.875 33.2566V29.81C17.875 25.96 14.74 22.825 10.89 22.825Z" fill="#39D885"/>
<path d="M33.3483 22.825H33.11C29.26 22.825 26.125 25.96 26.125 29.81V33.2566C26.125 37.1066 29.26 40.2416 33.11 40.2416H33.3483C37.1983 40.2416 40.3333 37.1066 40.3333 33.2566V29.81C40.3333 25.96 37.1983 22.825 33.3483 22.825Z" fill="#39D885"/>
</svg>
