<svg width="44" height="44" viewBox="0 0 44 44" fill="none" xmlns="http://www.w3.org/2000/svg">
<path opacity="0.4" d="M20.0933 3.86829L10.01 7.64495C8.085 8.37829 6.50833 10.6516 6.50833 12.7233V27.5733C6.50833 29.0583 7.48 31.02 8.67166 31.9L18.755 39.435C20.5333 40.7733 23.4483 40.7733 25.2267 39.435L35.31 31.9C36.5017 31.0016 37.4733 29.0583 37.4733 27.5733V12.7233C37.4733 10.67 35.8967 8.37829 33.9717 7.66329L23.8883 3.88662C22.8617 3.48329 21.1383 3.48329 20.0933 3.86829Z" fill="#39D885"/>
<path d="M26.5833 19.25C26.5833 16.72 24.53 14.6666 22 14.6666C19.47 14.6666 17.4167 16.72 17.4167 19.25C17.4167 21.3033 18.7733 23.0083 20.625 23.595V28.4166C20.625 29.1683 21.2483 29.7916 22 29.7916C22.7517 29.7916 23.375 29.1683 23.375 28.4166V23.595C25.2267 23.0083 26.5833 21.3033 26.5833 19.25Z" fill="#39D885"/>
</svg>
