<svg width="44" height="44" viewBox="0 0 44 44" fill="none" xmlns="http://www.w3.org/2000/svg">
<path opacity="0.4" d="M33.605 10.395L12.0817 31.9183C11.275 32.7249 9.91834 32.6149 9.25834 31.6616C6.985 28.3432 5.64667 24.4199 5.64667 20.3866V12.3383C5.64667 10.835 6.78334 9.12996 8.17668 8.56162L18.3884 4.38163C20.6984 3.42829 23.265 3.42829 25.575 4.38163L32.9817 7.40661C34.21 7.90161 34.5217 9.47829 33.605 10.395Z" fill="#39D885"/>
<path d="M35.3284 12.9067C36.52 11.8984 38.3351 12.76 38.3351 14.3184V20.3867C38.3351 29.3517 31.8267 37.7484 22.9351 40.205C22.3301 40.37 21.6701 40.37 21.0467 40.205C18.4434 39.4717 16.0234 38.2434 13.9517 36.6301C13.0717 35.9517 12.98 34.6684 13.75 33.8801C17.7467 29.7917 29.4434 17.8751 35.3284 12.9067Z" fill="#39D885"/>
</svg>
