<svg width="121" height="41" viewBox="0 0 121 41" fill="none" xmlns="http://www.w3.org/2000/svg">
<path opacity="0.2" d="M118 11.263C118.4 12.863 119.833 13.263 120.5 13.263V41H1V11.263C2.5 13.2623 13 13.263 15.5 13.263C18 13.263 18 13.7637 21 14.7637C24 15.7637 28.5 11.263 30 10.2637C31.5 9.26436 36.5 12.2637 38.5 13.263C40.5 14.2623 42.5 12.2637 44.5 12.2637C46.5 12.2637 47.5 15.2637 50 14.7637C52.5 14.2637 53.5 8.76367 55 8.26367C56.5 7.76367 57 13.263 57.5 14.7637C58 16.2644 59 18.7637 60.5 19.7637C62 20.7637 64 20.2637 66 17.2637C68 14.2637 67 15.2637 68.5 17.2637C70 19.2637 70.5 19.7637 71.5 18.7637C72.5 17.7637 75 28.7637 76.5 28.2637C78 27.7637 79 16.2637 80 13.7637C81 11.2637 80.5 5.26367 87.5 3.26367C94.5 1.26367 101 5.26367 104 5.26367C107 5.26367 109.5 3.26298 112.5 1.26298C115.5 -0.73702 117.5 9.26298 118 11.263Z" fill="url(#paint0_linear_89_29519)"/>
<path d="M120.5 13.263C119.833 13.263 118.4 12.863 118 11.263C117.5 9.26298 115.5 -0.73702 112.5 1.26298C109.5 3.26298 107 5.26367 104 5.26367C101 5.26367 94.5 1.26367 87.5 3.26367C80.5 5.26367 81 11.2637 80 13.7637C79 16.2637 78 27.7637 76.5 28.2637C75 28.7637 72.5 17.7637 71.5 18.7637C70.5 19.7637 70 19.2637 68.5 17.2637C67 15.2637 68 14.2637 66 17.2637C64 20.2637 62 20.7637 60.5 19.7637C59 18.7637 58 16.2644 57.5 14.7637C57 13.263 56.5 7.76367 55 8.26367C53.5 8.76367 52.5 14.2637 50 14.7637C47.5 15.2637 46.5 12.2637 44.5 12.2637C42.5 12.2637 40.5 14.2623 38.5 13.263C36.5 12.2637 31.5 9.26436 30 10.2637C28.5 11.263 24 15.7637 21 14.7637C18 13.7637 18 13.263 15.5 13.263C13 13.263 2.5 13.2623 1 11.263" stroke="#EB5757"/>
<defs>
<linearGradient id="paint0_linear_89_29519" x1="60.75" y1="1" x2="60.75" y2="41" gradientUnits="userSpaceOnUse">
<stop stop-color="#EB5757"/>
<stop offset="1" stop-color="#EB5757" stop-opacity="0"/>
</linearGradient>
</defs>
</svg>
