<svg width="32" height="32" viewBox="0 0 32 32" fill="none" xmlns="http://www.w3.org/2000/svg">
<path d="M21.5868 2.66666H10.4134C5.56008 2.66666 2.66675 5.55999 2.66675 10.4133V21.5733C2.66675 26.44 5.56008 29.3333 10.4134 29.3333H21.5734C26.4268 29.3333 29.3201 26.44 29.3201 21.5867V10.4133C29.3334 5.55999 26.4401 2.66666 21.5868 2.66666ZM10.1734 24.2C10.1734 24.7467 9.72008 25.2 9.17342 25.2C8.62675 25.2 8.17342 24.7467 8.17342 24.2V21.44C8.17342 20.8933 8.62675 20.44 9.17342 20.44C9.72008 20.44 10.1734 20.8933 10.1734 21.44V24.2ZM17.0001 24.2C17.0001 24.7467 16.5467 25.2 16.0001 25.2C15.4534 25.2 15.0001 24.7467 15.0001 24.2V18.6667C15.0001 18.12 15.4534 17.6667 16.0001 17.6667C16.5467 17.6667 17.0001 18.12 17.0001 18.6667V24.2ZM23.8267 24.2C23.8267 24.7467 23.3734 25.2 22.8267 25.2C22.2801 25.2 21.8267 24.7467 21.8267 24.2V15.9067C21.8267 15.36 22.2801 14.9067 22.8267 14.9067C23.3734 14.9067 23.8267 15.36 23.8267 15.9067V24.2ZM23.8267 11.6933C23.8267 12.24 23.3734 12.6933 22.8267 12.6933C22.2801 12.6933 21.8267 12.24 21.8267 11.6933V10.4C18.4267 13.8933 14.1734 16.36 9.41341 17.5467C9.33342 17.5733 9.25342 17.5733 9.17342 17.5733C8.72008 17.5733 8.32008 17.2667 8.20008 16.8133C8.06675 16.28 8.38675 15.7333 8.93341 15.6C13.4267 14.48 17.4267 12.12 20.6001 8.78666H18.9334C18.3867 8.78666 17.9334 8.33332 17.9334 7.78666C17.9334 7.23999 18.3867 6.78666 18.9334 6.78666H22.8401C22.8934 6.78666 22.9334 6.81332 22.9867 6.81332C23.0534 6.82666 23.1201 6.82666 23.1867 6.85332C23.2534 6.87999 23.3067 6.91999 23.3734 6.95999C23.4134 6.98666 23.4534 6.99999 23.4934 7.02666C23.5068 7.03999 23.5067 7.05332 23.5201 7.05332C23.5734 7.10666 23.6134 7.15999 23.6534 7.21332C23.6934 7.26666 23.7334 7.30666 23.7467 7.35999C23.7734 7.41332 23.7734 7.46666 23.7867 7.53332C23.8001 7.59999 23.8267 7.66666 23.8267 7.74666C23.8267 7.75999 23.8401 7.77332 23.8401 7.78666V11.6933H23.8267Z" fill="#29CC74"/>
</svg>
