<svg width="32" height="32" viewBox="0 0 32 32" fill="none" xmlns="http://www.w3.org/2000/svg">
<g clip-path="url(#clip0_224_2370)">
<path d="M16.2 22V24.8" stroke="#5E6367" stroke-width="1.5" stroke-linecap="round" stroke-linejoin="round"/>
<path d="M9.53345 29.3333H22.8668V28C22.8668 26.5333 21.6668 25.3333 20.2001 25.3333H12.2001C10.7334 25.3333 9.53345 26.5333 9.53345 28V29.3333V29.3333Z" stroke="#5E6367" stroke-width="1.5" stroke-miterlimit="10"/>
<path d="M8.19995 29.3333H24.2" stroke="#5E6367" stroke-width="1.5" stroke-linecap="round" stroke-linejoin="round"/>
<path d="M16.0001 21.3334C10.8401 21.3334 6.66675 17.16 6.66675 12V8.00002C6.66675 5.05335 9.05341 2.66669 12.0001 2.66669H20.0001C22.9467 2.66669 25.3334 5.05335 25.3334 8.00002V12C25.3334 17.16 21.1601 21.3334 16.0001 21.3334Z" stroke="#5E6367" stroke-width="1.5" stroke-linecap="round" stroke-linejoin="round"/>
<path d="M7.2933 15.5333C6.2933 15.2133 5.4133 14.6267 4.71997 13.9333C3.51997 12.6 2.71997 11 2.71997 9.13332C2.71997 7.26665 4.18664 5.79999 6.0533 5.79999H6.91997C6.6533 6.41332 6.51997 7.09332 6.51997 7.79999V11.8C6.51997 13.1333 6.79997 14.3867 7.2933 15.5333Z" stroke="#5E6367" stroke-width="1.5" stroke-linecap="round" stroke-linejoin="round"/>
<path d="M24.7068 15.5333C25.7068 15.2133 26.5868 14.6267 27.2801 13.9333C28.4801 12.6 29.2801 11 29.2801 9.13332C29.2801 7.26665 27.8135 5.79999 25.9468 5.79999H25.0801C25.3468 6.41332 25.4801 7.09332 25.4801 7.79999V11.8C25.4801 13.1333 25.2001 14.3867 24.7068 15.5333Z" stroke="#5E6367" stroke-width="1.5" stroke-linecap="round" stroke-linejoin="round"/>
</g>
<defs>
<clipPath id="clip0_224_2370">
<rect width="32" height="32" fill="white"/>
</clipPath>
</defs>
</svg>
