<svg width="32" height="32" viewBox="0 0 32 32" fill="none" xmlns="http://www.w3.org/2000/svg">
<path d="M21.5868 2.66669H10.4134C5.56008 2.66669 2.66675 5.56002 2.66675 10.4134V21.5734C2.66675 26.44 5.56008 29.3334 10.4134 29.3334H21.5734C26.4268 29.3334 29.3201 26.44 29.3201 21.5867V10.4134C29.3334 5.56002 26.4401 2.66669 21.5868 2.66669ZM22.5067 15.3734C22.5067 15.8934 22.0934 16.3067 21.5734 16.3067C21.0534 16.3067 20.6401 15.8934 20.6401 15.3734V15.1334L17.0134 18.76C16.8134 18.96 16.5467 19.0534 16.2667 19.0267C15.9867 19 15.7334 18.8534 15.5867 18.6134L14.2267 16.5867L11.0534 19.76C10.8667 19.9467 10.6401 20.0267 10.4001 20.0267C10.1601 20.0267 9.92008 19.9334 9.74675 19.76C9.38675 19.4 9.38675 18.8134 9.74675 18.44L13.7201 14.4667C13.9201 14.2667 14.1867 14.1734 14.4667 14.2C14.7467 14.2267 15.0001 14.3734 15.1467 14.6134L16.5067 16.64L19.3201 13.8267H19.0801C18.5601 13.8267 18.1467 13.4134 18.1467 12.8934C18.1467 12.3734 18.5601 11.96 19.0801 11.96H21.5601C21.6801 11.96 21.8001 11.9867 21.9201 12.0267C22.1467 12.12 22.3334 12.3067 22.4267 12.5334C22.4801 12.6534 22.4934 12.7734 22.4934 12.8934V15.3734H22.5067Z" fill="#29CC74"/>
</svg>
