<svg width="32" height="32" viewBox="0 0 32 32" fill="none" xmlns="http://www.w3.org/2000/svg">
<path d="M25.3333 10.6667C27.5424 10.6667 29.3333 8.87583 29.3333 6.66669C29.3333 4.45755 27.5424 2.66669 25.3333 2.66669C23.1241 2.66669 21.3333 4.45755 21.3333 6.66669C21.3333 8.87583 23.1241 10.6667 25.3333 10.6667Z" fill="#29CC74"/>
<path d="M26.4001 12.56C26.3734 12.56 26.3467 12.5733 26.3201 12.5733C26.1867 12.6 26.0534 12.6133 25.9067 12.64C25.3467 12.6933 24.7467 12.6667 24.1334 12.5467C23.9734 12.5067 23.8401 12.48 23.6934 12.4267C23.2534 12.32 22.8401 12.1467 22.4534 11.92C22.2934 11.84 22.1334 11.7333 21.9867 11.64C21.3467 11.2 20.8001 10.6533 20.3601 10.0133C20.2667 9.86667 20.1601 9.70667 20.0801 9.54667C19.8534 9.16 19.6801 8.74667 19.5734 8.30667C19.5201 8.16 19.4934 8.02667 19.4534 7.86667C19.3334 7.25333 19.3067 6.65333 19.3601 6.09333C19.3867 5.94667 19.4001 5.81333 19.4267 5.68C19.4267 5.65333 19.4401 5.62667 19.4401 5.6C19.6001 4.77333 18.9867 4 18.1334 4H10.0267C9.84008 4 9.65342 4.01333 9.48008 4.02667C9.32008 4.04 9.17342 4.05333 9.01342 4.08C8.85342 4.09333 8.69341 4.12 8.54675 4.14667C5.33341 4.61333 3.28008 6.65333 2.81341 9.88C2.78675 10.0267 2.76008 10.1867 2.74675 10.3467C2.72008 10.5067 2.70675 10.6533 2.69341 10.8133C2.68008 10.9867 2.66675 11.1733 2.66675 11.36V21.9733C2.66675 22.16 2.68008 22.3467 2.69341 22.52C2.70675 22.68 2.72008 22.8267 2.74675 22.9867C2.76008 23.1467 2.78675 23.3067 2.81341 23.4533C3.28008 26.68 5.33341 28.72 8.54675 29.1867C8.69341 29.2133 8.85342 29.24 9.01342 29.2533C9.17342 29.28 9.32008 29.2933 9.48008 29.3067C9.65342 29.32 9.84008 29.3333 10.0267 29.3333H20.6401C20.8267 29.3333 21.0134 29.32 21.1867 29.3067C21.3467 29.2933 21.4934 29.28 21.6534 29.2533C21.8134 29.24 21.9734 29.2133 22.1201 29.1867C25.3334 28.72 27.3867 26.68 27.8534 23.4533C27.8801 23.3067 27.9067 23.1467 27.9201 22.9867C27.9467 22.8267 27.9601 22.68 27.9734 22.52C27.9867 22.3467 28.0001 22.16 28.0001 21.9733V13.8667C28.0001 13.0133 27.2267 12.4 26.4001 12.56ZM9.00008 16.6667H15.6667C16.2134 16.6667 16.6667 17.12 16.6667 17.6667C16.6667 18.2133 16.2134 18.6667 15.6667 18.6667H9.00008C8.45341 18.6667 8.00008 18.2133 8.00008 17.6667C8.00008 17.12 8.45341 16.6667 9.00008 16.6667ZM21.0001 24H9.00008C8.45341 24 8.00008 23.5467 8.00008 23C8.00008 22.4533 8.45341 22 9.00008 22H21.0001C21.5467 22 22.0001 22.4533 22.0001 23C22.0001 23.5467 21.5467 24 21.0001 24Z" fill="#29CC74"/>
</svg>
