<svg width="44" height="44" viewBox="0 0 44 44" fill="none" xmlns="http://www.w3.org/2000/svg">
<path opacity="0.4" d="M7.31499 26.8765L4.52834 24.0899C3.39168 22.9533 3.39168 21.0833 4.52834 19.9466L7.31499 17.1599C7.79166 16.6832 8.17666 15.7482 8.17666 15.0882V11.1466C8.17666 9.53329 9.49667 8.21322 11.11 8.21322H15.0517C15.7117 8.21322 16.6467 7.82827 17.1233 7.3516L19.91 4.5649C21.0466 3.42824 22.9167 3.42824 24.0533 4.5649L26.84 7.3516C27.3167 7.82827 28.2517 8.21322 28.9117 8.21322H32.8534C34.4667 8.21322 35.7867 9.53329 35.7867 11.1466V15.0882C35.7867 15.7482 36.1717 16.6832 36.6483 17.1599L39.435 19.9466C40.5717 21.0833 40.5717 22.9533 39.435 24.0899L36.6483 26.8765C36.1717 27.3532 35.7867 28.2882 35.7867 28.9482V32.8899C35.7867 34.5033 34.4667 35.8232 32.8534 35.8232H28.9117C28.2517 35.8232 27.3167 36.2083 26.84 36.6849L24.0533 39.4716C22.9167 40.6083 21.0466 40.6083 19.91 39.4716L17.1233 36.6849C16.6467 36.2083 15.7117 35.8232 15.0517 35.8232H11.11C9.49667 35.8232 8.17666 34.5033 8.17666 32.8899V28.9482C8.17666 28.2699 7.79166 27.3349 7.31499 26.8765Z" fill="#39D885"/>
<path d="M27.5 29.3333C26.4733 29.3333 25.6483 28.5083 25.6483 27.5C25.6483 26.4916 26.4733 25.6666 27.4816 25.6666C28.49 25.6666 29.315 26.4916 29.315 27.5C29.315 28.5083 28.5083 29.3333 27.5 29.3333Z" fill="#39D885"/>
<path d="M16.5184 18.3333C15.4917 18.3333 14.6667 17.5083 14.6667 16.5C14.6667 15.4916 15.4917 14.6666 16.5 14.6666C17.5083 14.6666 18.3333 15.4916 18.3333 16.5C18.3333 17.5083 17.5267 18.3333 16.5184 18.3333Z" fill="#39D885"/>
<path d="M16.5 28.875C16.1517 28.875 15.8033 28.7467 15.5283 28.4717C14.9967 27.94 14.9967 27.0599 15.5283 26.5283L26.5283 15.5283C27.06 14.9966 27.94 14.9966 28.4717 15.5283C29.0033 16.0599 29.0033 16.94 28.4717 17.4717L17.4717 28.4717C17.1967 28.7467 16.8483 28.875 16.5 28.875Z" fill="#39D885"/>
</svg>
