<svg width="146" height="52" viewBox="0 0 146 52" fill="none" xmlns="http://www.w3.org/2000/svg">
<rect x="0.5" y="0.500061" width="145" height="51" rx="9.5" stroke="#24272F"/>
<path d="M14.7622 12.9103C14.4663 13.2123 14.295 13.6825 14.295 14.2915L14.295 36.013C14.295 36.622 14.4663 37.0922 14.7622 37.3942L14.8353 37.4605L27.3194 25.2934L27.3194 25.0061L14.8353 12.8391L14.7622 12.9103Z" fill="url(#paint0_linear_179_16103)"/>
<path d="M31.4761 29.3512L27.3193 25.2934L27.3193 25.0061L31.4811 20.9484L31.5743 21.0012L36.503 23.7354C37.9095 24.5113 37.9095 25.7882 36.503 26.5691L31.5743 29.2984L31.4761 29.3512Z" fill="url(#paint1_linear_179_16103)"/>
<path d="M31.5743 29.2984L27.3193 25.1498L14.7622 37.3942C15.2294 37.8731 15.9912 37.9308 16.8576 37.4519L31.5743 29.2984Z" fill="url(#paint2_linear_179_16103)"/>
<path d="M31.5743 21.0012L16.8576 12.8477C15.9912 12.3738 15.2294 12.4315 14.7622 12.9103L27.3193 25.1498L31.5743 21.0012Z" fill="url(#paint3_linear_179_16103)"/>
<path d="M52.018 15.5672C52.018 16.3873 51.7661 17.0442 51.27 17.534C50.6995 18.1148 49.9566 18.407 49.0462 18.407C48.176 18.407 47.4331 18.1099 46.8236 17.5242C46.2129 16.93 45.9081 16.2007 45.9081 15.3278C45.9081 14.4548 46.2129 13.7255 46.8236 13.1362C47.4331 12.5457 48.176 12.2485 49.0462 12.2485C49.4793 12.2485 49.8924 12.3357 50.2865 12.4978C50.6794 12.6611 50.9992 12.8821 51.2309 13.1546L50.7046 13.6727C50.3004 13.2074 49.7501 12.9778 49.0462 12.9778C48.4115 12.9778 47.8612 13.1939 47.394 13.6298C46.9319 14.0668 46.7002 14.6328 46.7002 15.3278C46.7002 16.0227 46.9319 16.5936 47.394 17.0307C47.8612 17.4616 48.4115 17.6826 49.0462 17.6826C49.7199 17.6826 50.2865 17.4616 50.7336 17.0257C51.0282 16.7372 51.1957 16.3394 51.2398 15.8311H49.0462V15.1215H51.9726C52.0079 15.275 52.018 15.4235 52.018 15.5672Z" fill="white"/>
<path d="M56.6608 13.1067H53.9119V14.9729H56.39V15.6826H53.9119V17.5488H56.6608V18.2719H53.1337V12.3836L56.6608 12.3836V13.1067Z" fill="white"/>
<path d="M59.9373 18.2719H59.1591V13.1067H57.473V12.3836L61.6247 12.3836V13.1067H59.9373V18.2719Z" fill="white"/>
<path d="M64.6293 18.2719V12.3836L65.4062 12.3836V18.2719H64.6293Z" fill="white"/>
<path d="M68.8502 18.2719H68.0783V13.1067H66.3859V12.3836L70.5426 12.3836V13.1067L68.8502 13.1067V18.2719Z" fill="white"/>
<path d="M78.4028 17.5144C77.8072 18.1099 77.0693 18.407 76.1891 18.407C75.3038 18.407 74.5659 18.1099 73.9703 17.5144C73.3759 16.9202 73.08 16.1909 73.08 15.3278C73.08 14.4646 73.3759 13.7354 73.9703 13.1411C74.5659 12.5457 75.3038 12.2485 76.1891 12.2485C77.0642 12.2485 77.8022 12.5457 78.3978 13.146C78.9972 13.7452 79.2931 14.4696 79.2931 15.3278C79.2931 16.1909 78.9972 16.9202 78.4028 17.5144ZM74.5458 17.0208C74.994 17.4616 75.5393 17.6826 76.1891 17.6826C76.8338 17.6826 77.3841 17.4616 77.8273 17.0208C78.2744 16.5801 78.501 16.0141 78.501 15.3278C78.501 14.6414 78.2744 14.0754 77.8273 13.6347C77.3841 13.1939 76.8338 12.9729 76.1891 12.9729C75.5393 12.9729 74.994 13.1939 74.5458 13.6347C74.0987 14.0754 73.8721 14.6414 73.8721 15.3278C73.8721 16.0141 74.0987 16.5801 74.5458 17.0208Z" fill="white"/>
<path d="M80.3849 18.2719V12.3836L81.3293 12.3836L84.2658 16.9631H84.2998L84.2658 15.8311V12.3836H85.0428V18.2719H84.2318L81.1568 13.4665H81.1228L81.1568 14.6034V18.2719H80.3849Z" fill="white"/>
<path d="M72.8886 26.8712C70.5225 26.8712 68.5896 28.6269 68.5896 31.0492C68.5896 33.452 70.5225 35.2261 72.8886 35.2261C75.2598 35.2261 77.1927 33.452 77.1927 31.0492C77.1927 28.6269 75.2598 26.8712 72.8886 26.8712ZM72.8886 33.5809C71.5904 33.5809 70.4734 32.536 70.4734 31.0492C70.4734 29.5428 71.5904 28.5164 72.8886 28.5164C74.1869 28.5164 75.3089 29.5428 75.3089 31.0492C75.3089 32.536 74.1869 33.5809 72.8886 33.5809ZM63.5086 26.8712C61.1374 26.8712 59.2095 28.6269 59.2095 31.0492C59.2095 33.452 61.1374 35.2261 63.5086 35.2261C65.8785 35.2261 67.8076 33.452 67.8076 31.0492C67.8076 28.6269 65.8785 26.8712 63.5086 26.8712ZM63.5086 33.5809C62.209 33.5809 61.0883 32.536 61.0883 31.0492C61.0883 29.5428 62.209 28.5164 63.5086 28.5164C64.8068 28.5164 65.9238 29.5428 65.9238 31.0492C65.9238 32.536 64.8068 33.5809 63.5086 33.5809ZM52.3467 28.1517L52.3467 29.9271L56.6948 29.9271C56.5676 30.9191 56.2277 31.6484 55.7063 32.1567C55.0717 32.7705 54.0832 33.452 52.3467 33.452C49.6708 33.452 47.5754 31.3464 47.5754 28.7374C47.5754 26.1284 49.6708 24.0228 52.3467 24.0228C53.7935 24.0228 54.8463 24.574 55.6232 25.2886L56.9064 24.0375C55.8197 23.0258 54.3741 22.2487 52.3467 22.2487C48.6773 22.2487 45.5934 25.1597 45.5934 28.7374C45.5934 32.3151 48.6773 35.2261 52.3467 35.2261C54.33 35.2261 55.8197 34.5925 56.9908 33.4041C58.1908 32.234 58.5648 30.5888 58.5648 29.2604C58.5648 28.8479 58.5295 28.4685 58.4666 28.1517L52.3467 28.1517ZM97.9891 29.528C97.6352 28.5937 96.5435 26.8712 94.3196 26.8712C92.116 26.8712 90.2813 28.5642 90.2813 31.0492C90.2813 33.3893 92.0971 35.2261 94.5312 35.2261C96.4994 35.2261 97.6352 34.056 98.1024 33.3746L96.6417 32.4255C96.1543 33.1205 95.4907 33.5809 94.5312 33.5809C93.5779 33.5809 92.8942 33.1548 92.456 32.3151L98.1868 30.0032L97.9891 29.528ZM92.1462 30.9191C92.0971 29.3083 93.4294 28.4832 94.3839 28.4832C95.1318 28.4832 95.7665 28.8479 95.9781 29.3697L92.1462 30.9191ZM87.4883 34.9719L89.3721 34.9719L89.3721 22.6943L87.4883 22.6943L87.4883 34.9719ZM84.4031 27.8018L84.3402 27.8018C83.9171 27.3132 83.1099 26.8712 82.0874 26.8712C79.9416 26.8712 77.9798 28.7079 77.9798 31.0627C77.9798 33.4041 79.9416 35.2261 82.0874 35.2261C83.1099 35.2261 83.9171 34.7804 84.3402 34.277L84.4031 34.277L84.4031 34.8762C84.4031 36.4735 83.528 37.3317 82.1164 37.3317C80.9654 37.3317 80.2514 36.5214 79.9568 35.8399L78.3185 36.5066C78.7907 37.6141 80.0411 38.9769 82.1164 38.9769C84.3251 38.9769 86.1887 37.7098 86.1887 34.6269L86.1887 27.1253L84.4031 27.1253L84.4031 27.8018ZM82.2486 33.5809C80.9503 33.5809 79.8636 32.5213 79.8636 31.0627C79.8636 29.5907 80.9503 28.5164 82.2486 28.5164C83.528 28.5164 84.5366 29.5907 84.5366 31.0627C84.5366 32.5213 83.528 33.5809 82.2486 33.5809ZM106.809 22.6943L102.303 22.6943L102.303 34.9719L104.182 34.9719L104.182 30.3199L106.809 30.3199C108.895 30.3199 110.942 28.8479 110.942 26.5065C110.942 24.1664 108.89 22.6943 106.809 22.6943ZM106.858 28.6121L104.182 28.6121L104.182 24.4021L106.858 24.4021C108.261 24.4021 109.062 25.5378 109.062 26.5065C109.062 27.4568 108.261 28.6121 106.858 28.6121ZM118.472 26.8478C117.114 26.8478 115.703 27.4323 115.122 28.7275L116.79 29.4089C117.148 28.7275 117.808 28.5065 118.506 28.5065C119.48 28.5065 120.469 29.0775 120.484 30.0854L120.484 30.2144C120.144 30.0228 119.416 29.7392 118.521 29.7392C116.725 29.7392 114.896 30.703 114.896 32.5017C114.896 34.1469 116.366 35.2064 118.02 35.2064C119.284 35.2064 119.982 34.6502 120.42 34.0032L120.484 34.0032L120.484 34.9523L122.299 34.9523L122.299 30.2426C122.299 28.0658 120.631 26.8478 118.472 26.8478ZM118.245 33.576C117.631 33.576 116.774 33.2788 116.774 32.536C116.774 31.5858 117.842 31.2211 118.767 31.2211C119.594 31.2211 119.982 31.3991 120.484 31.6336C120.337 32.7705 119.333 33.576 118.245 33.576ZM128.91 27.1167L126.75 32.4391L126.686 32.4391L124.453 27.1167L122.427 27.1167L125.782 34.5545L123.868 38.6933L125.831 38.6933L131 27.1167L128.91 27.1167ZM111.974 34.9719L113.858 34.9719L113.858 22.6943L111.974 22.6943L111.974 34.9719Z" fill="white"/>
<defs>
<linearGradient id="paint0_linear_179_16103" x1="26.2109" y1="36.2392" x2="9.73241" y2="19.3382" gradientUnits="userSpaceOnUse">
<stop stop-color="#00A0FF"/>
<stop offset="0.0066" stop-color="#00A1FF"/>
<stop offset="0.2601" stop-color="#00BEFF"/>
<stop offset="0.5122" stop-color="#00D2FF"/>
<stop offset="0.7604" stop-color="#00DFFF"/>
<stop offset="1" stop-color="#00E3FF"/>
</linearGradient>
<linearGradient id="paint1_linear_179_16103" x1="38.3345" y1="25.1484" x2="13.9588" y2="25.1484" gradientUnits="userSpaceOnUse">
<stop stop-color="#FFE000"/>
<stop offset="0.4087" stop-color="#FFBD00"/>
<stop offset="0.7754" stop-color="#FFA500"/>
<stop offset="1" stop-color="#FF9C00"/>
</linearGradient>
<linearGradient id="paint2_linear_179_16103" x1="29.2606" y1="22.8946" x2="6.91439" y2="-0.0246166" gradientUnits="userSpaceOnUse">
<stop stop-color="#FF3A44"/>
<stop offset="1" stop-color="#C31162"/>
</linearGradient>
<linearGradient id="paint3_linear_179_16103" x1="11.6013" y1="44.6209" x2="21.5799" y2="34.3865" gradientUnits="userSpaceOnUse">
<stop stop-color="#32A071"/>
<stop offset="0.0685" stop-color="#2DA771"/>
<stop offset="0.4762" stop-color="#15CF74"/>
<stop offset="0.8009" stop-color="#06E775"/>
<stop offset="1" stop-color="#00F076"/>
</linearGradient>
</defs>
</svg>
