<svg width="120" height="41" viewBox="0 0 120 41" fill="none" xmlns="http://www.w3.org/2000/svg">
<path opacity="0.2" d="M2.5 11.263C2.1 12.863 0.666667 13.263 0 13.263V41H119.5V11.263C118 13.2623 107.5 13.263 105 13.263C102.5 13.263 102.5 13.7637 99.5 14.7637C96.5 15.7637 92 11.263 90.5 10.2637C89 9.26436 84 12.2637 82 13.263C80 14.2623 78 12.2637 76 12.2637C74 12.2637 73 15.2637 70.5 14.7637C68 14.2637 67 8.76367 65.5 8.26367C64 7.76367 63.5 13.263 63 14.7637C62.5 16.2644 61.5 18.7637 60 19.7637C58.5 20.7637 56.5 20.2637 54.5 17.2637C52.5 14.2637 53.5 15.2637 52 17.2637C50.5 19.2637 50 19.7637 49 18.7637C48 17.7637 45.5 28.7637 44 28.2637C42.5 27.7637 41.5 16.2637 40.5 13.7637C39.5 11.2637 40 5.26367 33 3.26367C26 1.26367 19.5 5.26367 16.5 5.26367C13.5 5.26367 11 3.26298 8 1.26298C5 -0.73702 3 9.26298 2.5 11.263Z" fill="url(#paint0_linear_89_29497)"/>
<path d="M0 13.263C0.666667 13.263 2.1 12.863 2.5 11.263C3 9.26298 5 -0.73702 8 1.26298C11 3.26298 13.5 5.26367 16.5 5.26367C19.5 5.26367 26 1.26367 33 3.26367C40 5.26367 39.5 11.2637 40.5 13.7637C41.5 16.2637 42.5 27.7637 44 28.2637C45.5 28.7637 48 17.7637 49 18.7637C50 19.7637 50.5 19.2637 52 17.2637C53.5 15.2637 52.5 14.2637 54.5 17.2637C56.5 20.2637 58.5 20.7637 60 19.7637C61.5 18.7637 62.5 16.2644 63 14.7637C63.5 13.263 64 7.76367 65.5 8.26367C67 8.76367 68 14.2637 70.5 14.7637C73 15.2637 74 12.2637 76 12.2637C78 12.2637 80 14.2623 82 13.263C84 12.2637 89 9.26436 90.5 10.2637C92 11.263 96.5 15.7637 99.5 14.7637C102.5 13.7637 102.5 13.263 105 13.263C107.5 13.263 118 13.2623 119.5 11.263" stroke="#39D885"/>
<defs>
<linearGradient id="paint0_linear_89_29497" x1="59.75" y1="1" x2="59.75" y2="41" gradientUnits="userSpaceOnUse">
<stop stop-color="#39D885"/>
<stop offset="1" stop-color="#39D885" stop-opacity="0"/>
</linearGradient>
</defs>
</svg>
