<svg width="121" height="30" viewBox="0 0 121 30" fill="none" xmlns="http://www.w3.org/2000/svg">
<g clip-path="url(#clip0_81_15383)">
<path d="M34.6462 29.9999L34.645 29.9978H34.6458L28.1636 18.7757L28.1505 18.756L28.1494 18.7541L28.1503 18.7536C28.1032 18.6717 28.0501 18.5943 28.0011 18.5139C27.9423 18.4169 27.8864 18.3166 27.8219 18.2236C27.8133 18.2093 27.803 18.1959 27.7942 18.1816C27.7472 18.1095 27.7008 18.0374 27.6524 17.9667C27.6452 17.9562 27.6385 17.9446 27.6311 17.9344C27.6133 17.9085 27.5923 17.8836 27.5743 17.8578C27.136 17.228 26.6405 16.64 26.0941 16.1013L26.0731 16.0803C26.0384 16.0472 26.0025 16.0167 25.9677 15.9836C25.8155 15.8381 25.6623 15.694 25.5034 15.5565L25.5012 15.5544C25.4908 15.5456 25.4798 15.5377 25.4695 15.5289C25.0802 15.1939 24.6708 14.8831 24.2434 14.5983L24.2192 14.5814C24.0758 14.4911 23.9342 14.4026 23.7891 14.3159C23.4216 14.0936 23.0431 13.8901 22.6549 13.7063C22.6191 13.6894 22.5851 13.6708 22.5494 13.6546L22.5523 13.6598C20.9143 12.8964 19.129 12.5011 17.3219 12.5015C15.5148 12.5019 13.7297 12.898 12.0921 13.6621L12.0965 13.6546L17.3228 4.60832L21.7473 12.2608C23.1503 12.7532 24.4629 13.4728 25.6326 14.3908L17.3228 -0.000152588L6.19948 19.2622C6.27919 19.4851 6.37813 19.7008 6.49519 19.9066L6.50831 19.9262C6.82452 20.4721 7.18512 20.9909 7.58649 21.4776C8.53431 22.6588 9.68956 23.6574 10.9955 24.4243L10.9926 24.4249C10.9859 24.4315 10.9859 24.4249 10.9859 24.4249C10.5257 24.5103 10.072 24.6024 9.61853 24.7075C8.01369 25.0656 6.43699 25.5398 4.90095 26.1265L7.05405 22.3981C6.5235 21.776 6.05045 21.1071 5.64068 20.3996L5.59465 20.3142L6.10352e-05 29.9977H0.00171123L0.000561095 29.9999H1.94639C2.51177 29.6974 3.08388 29.4146 3.65582 29.1517C3.80032 29.0793 3.94498 29.0137 4.0962 28.9544C5.1736 28.4712 6.27766 28.0498 7.40302 27.6923C9.24567 27.1048 11.1381 26.6867 13.0567 26.4432H13.0633C14.4731 26.253 15.8942 26.1586 17.3167 26.1604H17.3233C17.4498 26.1604 17.5748 26.1514 17.7006 26.1476C17.8235 26.1439 17.947 26.1426 18.0692 26.135C18.2078 26.1267 18.3451 26.1124 18.4827 26.0995C18.6022 26.0882 18.7216 26.0775 18.8405 26.0628C18.9765 26.0462 19.1115 26.0258 19.2464 26.0045C19.3661 25.9858 19.4854 25.9654 19.6043 25.9433C19.7357 25.9188 19.8665 25.8929 19.9965 25.8642C20.1209 25.8369 20.244 25.806 20.3671 25.7751C20.4894 25.7439 20.6119 25.714 20.7331 25.6792C20.8799 25.6375 21.0248 25.5899 21.1696 25.5429C21.2641 25.5121 21.3597 25.4847 21.4533 25.4517C21.6878 25.3691 21.9191 25.2788 22.1479 25.1828C22.2131 25.1553 22.2768 25.1243 22.3415 25.0958C22.5178 25.0182 22.6927 24.9377 22.8649 24.8522C22.9272 24.8211 22.9885 24.7883 23.0501 24.7562C23.2311 24.6625 23.4098 24.5645 23.5862 24.4623C23.6086 24.4492 23.6321 24.438 23.6543 24.4249L23.6506 24.4243C24.9564 23.6573 26.1115 22.6588 27.0593 21.4776L27.0658 21.4843L27.5917 22.3916L29.7481 26.1321L29.7494 26.1345L29.7486 26.1342C28.2128 25.5487 26.6377 25.072 25.035 24.7075C23.9691 25.4448 22.805 26.0291 21.5769 26.4432C23.4956 26.6866 25.388 27.1047 27.2307 27.6923C28.3604 28.0498 29.4688 28.4712 30.5507 28.9544C30.5966 28.9757 30.6428 28.9959 30.6888 29.0165C30.8135 29.0725 30.9382 29.1268 31.063 29.1892C31.1415 29.2252 31.22 29.265 31.2985 29.3021C31.7654 29.5249 32.2325 29.7521 32.6938 29.9998L34.6462 29.9999ZM22.3647 16.1486C19.0525 15.3444 15.5958 15.3445 12.2836 16.149C13.8182 15.2703 15.5558 14.808 17.3241 14.808C19.0925 14.8079 20.8301 15.2701 22.3647 16.1486ZM17.3228 23.8509C15.7637 23.8486 14.2259 23.4897 12.8268 22.8017C11.4278 22.1137 10.2047 21.1148 9.25107 19.8814C11.4347 18.6068 13.9096 17.9156 16.4376 17.8743C16.6266 18.1277 16.7292 18.4352 16.7301 18.7513C16.7306 19.1291 16.5878 19.4931 16.3305 19.7698C16.0732 20.0465 15.7206 20.2153 15.3437 20.2423C14.9669 20.2692 14.5938 20.1522 14.2998 19.9149C14.0058 19.6776 13.8127 19.3377 13.7594 18.9636C13.7462 19.0846 13.74 19.2063 13.7409 19.328C13.7395 19.8496 13.852 20.3653 14.0707 20.8388C14.2894 21.3124 14.609 21.7324 15.0071 22.0695C15.4051 22.4066 15.872 22.6527 16.3751 22.7904C16.8782 22.9282 17.4054 22.9544 17.9196 22.8671C18.4339 22.7798 18.9228 22.5811 19.3523 22.285C19.7817 21.989 20.1413 21.6026 20.4058 21.153C20.6703 20.7034 20.8334 20.2015 20.8835 19.6823C20.9337 19.1631 20.8698 18.6392 20.6963 18.1472C22.3628 18.4117 23.9608 19.0019 25.3991 19.8842C24.4446 21.1175 23.2205 22.1161 21.8207 22.8036C20.4209 23.4912 18.8823 23.8494 17.3228 23.8509Z" fill="#39D885"/>
<path d="M48.5726 8.52157H55.1004C56.1637 8.45695 57.2126 8.79385 58.0394 9.46558C58.4038 9.82055 58.6865 10.2505 58.8681 10.7258C59.0496 11.201 59.1255 11.71 59.0906 12.2175C59.0991 12.8292 58.9392 13.4314 58.6282 13.9582C58.3364 14.4604 57.9111 14.8719 57.3995 15.147C58.0697 15.3419 58.6508 15.7648 59.0423 16.3426C59.4337 16.9204 59.611 17.6169 59.5434 18.3116C59.562 19.0539 59.3712 19.7864 58.9929 20.4252C58.6368 21.0116 58.1221 21.4852 57.5083 21.7916C56.8644 22.1114 56.1536 22.2731 55.4348 22.2634H48.5726V8.52157ZM54.7067 14.2429C55.2013 14.2673 55.6866 14.102 56.0634 13.7806C56.2444 13.5966 56.3837 13.3757 56.4718 13.133C56.5599 12.8904 56.5947 12.6316 56.5739 12.3743C56.606 12.1054 56.5777 11.8327 56.4911 11.5761C56.4045 11.3195 56.2617 11.0855 56.0731 10.8911C55.6381 10.5926 55.1147 10.4504 54.5884 10.4879H51.0493V14.2429H54.7067ZM54.8635 20.2971C55.4308 20.3334 55.9943 20.1816 56.4666 19.8652C56.6722 19.6705 56.8298 19.4307 56.927 19.1647C57.0242 18.8987 57.0583 18.6138 57.0266 18.3324C57.0539 18.0395 57.015 17.7443 56.9129 17.4685C56.8107 17.1927 56.6478 16.9433 56.4363 16.7389C55.9411 16.3804 55.3359 16.2066 54.7259 16.2478H51.0493V20.2971H54.8635Z" fill="white"/>
<path d="M61.8136 26.0873C61.5159 26.0582 61.2223 25.9959 60.9384 25.9016V24.0138C61.3288 24.1556 61.7425 24.2223 62.1577 24.2105C62.5594 24.2409 62.9583 24.1218 63.2776 23.8762C63.5741 23.5776 63.7965 23.2138 63.9271 22.8139L64.3 21.8315L60.2313 12.8271H62.7272L65.6375 19.7084L68.3703 12.8271H70.8469L66.7191 23.1098C66.4055 23.9888 65.8821 24.7781 65.1943 25.409C64.5396 25.9274 63.7199 26.1927 62.8856 26.1561C62.5272 26.1552 62.1692 26.1323 61.8136 26.0873Z" fill="white"/>
<path d="M79.2974 14.7149H77.9024V12.8271H79.2974V11.1952C79.265 10.7065 79.3397 10.2166 79.5163 9.75976C79.6929 9.30294 79.9672 8.89019 80.3199 8.55039C81.0698 7.91671 82.0318 7.59035 83.0125 7.63688C83.5757 7.62517 84.1362 7.71852 84.6653 7.91216V9.91683C84.2995 9.75771 83.9042 9.67753 83.5053 9.68155C83.035 9.64306 82.5676 9.78368 82.1966 10.0752C82.0407 10.2508 81.9228 10.4567 81.8501 10.68C81.7774 10.9032 81.7516 11.1391 81.7743 11.3728V12.8271H84.075V14.715H81.7742V22.2635H79.2974V14.7149Z" fill="white"/>
<path d="M85.2541 21.6635C84.8997 21.3732 84.6176 21.0046 84.4299 20.5868C84.2422 20.169 84.1541 19.7133 84.1724 19.2556C84.1482 18.7956 84.2274 18.336 84.4043 17.9107C84.5813 17.4854 84.8514 17.1052 85.1948 16.7981C86.0122 16.1641 87.0326 15.8495 88.0651 15.9134C89.14 15.8851 90.2039 16.1359 91.153 16.6413V16.3852C91.177 16.1105 91.1329 15.8341 91.0246 15.5805C90.9164 15.3268 90.7472 15.1038 90.5323 14.931C89.9289 14.5804 89.2328 14.4224 88.5371 14.4782C87.9628 14.478 87.39 14.5343 86.8267 14.6462C86.3126 14.7422 85.8112 14.8968 85.3324 15.107V13.1615C85.8388 12.9448 86.3704 12.7926 86.9148 12.7087C87.5479 12.5942 88.1898 12.5353 88.8332 12.5327C90.133 12.4282 91.4262 12.802 92.4698 13.5839C92.8683 13.9544 93.1805 14.408 93.3842 14.9126C93.588 15.4171 93.6783 15.9604 93.6489 16.5037V22.2634H91.3098V21.3404C90.9105 21.7281 90.44 22.035 89.9243 22.2443C89.3177 22.4695 88.6736 22.5765 88.0268 22.5595C87.0253 22.6009 86.0419 22.2831 85.2541 21.6635ZM90.1305 20.4252C90.5502 20.2315 90.9052 19.921 91.153 19.5308V18.4892C90.4293 17.977 89.5612 17.7086 88.6747 17.7229C87.3516 17.7229 86.6898 18.2338 86.6892 19.2556C86.6749 19.4692 86.713 19.6831 86.8002 19.8786C86.8875 20.0741 87.0213 20.2453 87.1899 20.3772C87.62 20.6522 88.1267 20.7827 88.6362 20.7499C89.1526 20.7571 89.6637 20.646 90.1305 20.4252Z" fill="white"/>
<path d="M95.9096 7.7345H98.3863V22.2635H95.9096L95.9096 7.7345Z" fill="white"/>
<path d="M100.649 21.9787C100.553 21.8896 100.478 21.7814 100.427 21.6613C100.376 21.5411 100.35 21.4116 100.353 21.2811C100.35 21.1459 100.374 21.0116 100.425 20.8865C100.476 20.7613 100.552 20.6478 100.649 20.5531C100.741 20.4598 100.851 20.3858 100.973 20.3353C101.094 20.2847 101.224 20.2587 101.356 20.2587C101.487 20.2587 101.617 20.2847 101.739 20.3353C101.86 20.3858 101.97 20.4598 102.063 20.5531C102.159 20.6478 102.235 20.7613 102.286 20.8865C102.337 21.0116 102.362 21.1459 102.359 21.2811C102.361 21.4116 102.336 21.5411 102.285 21.6613C102.234 21.7814 102.158 21.8896 102.063 21.9787C101.873 22.1614 101.619 22.2634 101.356 22.2634C101.092 22.2634 100.839 22.1614 100.649 21.9787Z" fill="#39D885"/>
<path d="M104.727 10.7823C104.595 10.6555 104.491 10.5027 104.422 10.3335C104.352 10.1644 104.319 9.98269 104.324 9.79994C104.321 9.61592 104.355 9.43323 104.424 9.26268C104.494 9.09213 104.596 8.93718 104.726 8.80697C104.856 8.67677 105.011 8.57396 105.182 8.50461C105.352 8.43527 105.535 8.4008 105.719 8.40325C105.905 8.3996 106.089 8.43344 106.261 8.50271C106.434 8.57199 106.59 8.67529 106.722 8.80645C106.856 8.93431 106.962 9.08868 107.033 9.25973C107.104 9.43078 107.139 9.61477 107.135 9.79994C107.139 9.98353 107.105 10.166 107.033 10.3353C106.962 10.5046 106.856 10.6569 106.722 10.7823C106.589 10.9109 106.432 11.0119 106.26 11.0795C106.088 11.1471 105.904 11.1799 105.719 11.176C105.536 11.1803 105.353 11.1476 105.183 11.08C105.012 11.0124 104.857 10.9111 104.727 10.7823ZM104.461 12.8271H106.978V22.2634H104.461V12.8271Z" fill="white"/>
<path d="M111.727 21.9595C110.924 21.5869 110.249 20.9844 109.789 20.2282C109.339 19.4127 109.103 18.4969 109.101 17.5656C109.099 16.6343 109.333 15.7177 109.779 14.9005C110.24 14.14 110.913 13.5318 111.717 13.1518C112.631 12.7436 113.621 12.5327 114.622 12.5327C115.623 12.5327 116.612 12.7436 117.526 13.1518C118.327 13.536 118.999 14.1432 119.462 14.9005C119.933 15.7009 120.172 16.6169 120.15 17.5453C120.175 18.4862 119.937 19.4154 119.462 20.2282C119.002 20.984 118.329 21.5864 117.526 21.9595C116.611 22.3553 115.624 22.5594 114.626 22.5594C113.629 22.5594 112.642 22.3553 111.727 21.9595ZM116.789 19.7579C117.308 19.1306 117.593 18.3422 117.595 17.5277C117.597 16.7132 117.315 15.9235 116.798 15.2941C116.197 14.7681 115.425 14.4782 114.626 14.4782C113.826 14.4782 113.054 14.7681 112.453 15.2941C111.937 15.924 111.656 16.7137 111.658 17.528C111.66 18.3423 111.945 19.1306 112.464 19.7579C113.05 20.3068 113.823 20.6123 114.626 20.6123C115.429 20.6123 116.203 20.3068 116.789 19.7579Z" fill="white"/>
<path d="M43.39 25.9844H47.5185V24.3295H45.0445V6.45545H47.5185V4.80075H43.39V25.9844ZM70.6191 4.80075V6.45545H73.0928V24.3295H70.6191V25.9844H74.7474V4.80075H70.6191Z" fill="#39D885"/>
</g>
<defs>
<clipPath id="clip0_81_15383">
<rect width="120.15" height="30" fill="white"/>
</clipPath>
</defs>
</svg>
