<svg width="40" height="40" viewBox="0 0 40 40" fill="none" xmlns="http://www.w3.org/2000/svg">
<rect width="40" height="40" rx="20" fill="#FFA73D"/>
<g clip-path="url(#clip0_64_8563)">
<path fill-rule="evenodd" clip-rule="evenodd" d="M23.6001 23.4286C23.7373 23.0171 23.6687 22.6057 23.5316 22.2629C23.3944 21.92 23.1201 21.6457 22.7087 21.3029C22.2973 21.0971 21.6801 20.8914 20.8573 20.7543L18.9373 20.4114L18.3201 23.6343C18.2516 24.1143 18.2516 24.3886 18.2516 24.4571C18.2516 24.5257 18.3201 24.5943 18.3887 24.6629C18.5259 24.7314 18.7316 24.8 19.0744 24.8686L20.1716 25.0743C20.7887 25.2114 21.3373 25.28 21.7487 25.2114C22.1601 25.1429 22.5716 25.0057 22.9144 24.6629C23.2573 24.32 23.5316 23.9771 23.6001 23.4286ZM21.6801 14.9257C22.6401 15.1314 23.2573 15.2686 23.6001 15.4743C23.943 15.68 24.2173 15.9543 24.2859 16.2286C24.4916 16.5029 24.4916 16.8457 24.423 17.2571C24.3774 17.6226 24.208 17.9614 23.943 18.2171C23.6687 18.4914 23.3259 18.6286 22.9144 18.6971C22.503 18.7657 21.8173 18.6971 20.9944 18.56L19.3487 18.2857L20.0344 14.6514L21.6801 14.9257ZM26.4801 13.8286C27.1659 14.3086 27.6459 14.8571 27.9201 15.4743C28.1944 16.0914 28.263 16.7771 27.9201 17.5314C27.8516 18.0114 27.6459 18.4229 27.3716 18.8343C27.0973 19.1771 26.7544 19.52 26.2744 19.7943C25.7944 20.0686 25.2459 20.2743 24.5601 20.3429C25.2459 20.6857 25.7259 20.96 26.0687 21.2343C26.5487 21.6457 26.8916 22.1257 27.0973 22.7429C27.303 23.2914 27.3716 23.9086 27.2344 24.5943C27.0973 25.4171 26.7544 26.1029 26.1373 26.6514C25.5887 27.2686 24.8344 27.6114 23.8744 27.8171C23.5316 27.8857 23.1201 27.9543 22.7087 27.9543L22.2287 30.56L19.7601 30.08L20.2401 27.6114C20.1716 27.5429 20.103 27.5429 20.0344 27.5429L18.5944 27.2686L18.1144 29.6686L15.5773 29.1886L16.0573 26.72L12.2173 26.0343L12.6287 23.9771L13.2459 24.1143C13.6573 24.2514 13.9316 24.2514 14.0687 24.1829C14.2059 24.1829 14.343 24.1143 14.4116 23.9771C14.4801 23.84 14.5487 23.5657 14.6173 23.1543L16.1259 14.9257L16.1601 14.72C16.215 14.4217 16.251 14.216 16.1944 14.1029C16.1957 14.0322 16.1771 13.9626 16.1407 13.9019C16.1044 13.8413 16.0517 13.7921 15.9887 13.76C15.8516 13.6229 15.6459 13.5543 15.2344 13.4857L14.6173 13.3486L15.0287 11.2914L18.8687 12.0457L19.3487 9.57715L21.8859 10.0571L21.4059 12.4571L23.0516 12.6629L23.5316 10.2629L26.0001 10.7429L25.5201 13.3486C25.863 13.4857 26.2059 13.6229 26.4801 13.8286Z" fill="white"/>
</g>
<defs>
<clipPath id="clip0_64_8563">
<rect width="24" height="24" fill="white" transform="translate(8 8)"/>
</clipPath>
</defs>
</svg>
