<svg width="949" height="698" viewBox="0 0 949 698" fill="none" xmlns="http://www.w3.org/2000/svg">
<rect x="783.5" y="161.5" width="8" height="29" fill="#EB5757" stroke="#EB5757"/>
<path d="M787.5 121V198" stroke="#EB5757"/>
<rect x="770.5" y="143.5" width="8" height="17" fill="#EB5757" stroke="#EB5757"/>
<path d="M774.5 120V255" stroke="#EB5757"/>
<rect x="744.5" y="188.5" width="8" height="15" fill="#EB5757" stroke="#EB5757"/>
<path d="M748.5 164V217" stroke="#EB5757"/>
<rect x="731.5" y="143.5" width="8" height="44" fill="#EB5757" stroke="#EB5757"/>
<path d="M735.5 141V191" stroke="#EB5757"/>
<rect x="718.5" y="132.5" width="8" height="10" fill="#EB5757" stroke="#EB5757"/>
<path d="M722.5 123V152" stroke="#EB5757"/>
<rect x="692.5" y="144.5" width="8" height="26" fill="#EB5757" stroke="#EB5757"/>
<path d="M696.5 137V226" stroke="#EB5757"/>
<rect x="679.5" y="122.5" width="8" height="22" fill="#EB5757" stroke="#EB5757"/>
<path d="M683.5 119V173" stroke="#EB5757"/>
<rect x="601.5" y="170.5" width="8" height="75" fill="#EB5757" stroke="#EB5757"/>
<path d="M605.5 162V248" stroke="#EB5757"/>
<rect x="549.5" y="248.5" width="8" height="33" fill="#EB5757" stroke="#EB5757"/>
<path d="M553.5 192V293" stroke="#EB5757"/>
<rect x="510.5" y="270.5" width="8" height="64" fill="#EB5757" stroke="#EB5757"/>
<path d="M514.5 265V364" stroke="#EB5757"/>
<rect x="432.5" y="370.5" width="8" height="8" fill="#EB5757" stroke="#EB5757"/>
<path d="M436.5 358V394" stroke="#EB5757"/>
<rect x="367.5" y="400.5" width="8" height="34" fill="#EB5757" stroke="#EB5757"/>
<path d="M371.5 390V448" stroke="#EB5757"/>
<rect x="354.5" y="388.5" width="8" height="11" fill="#EB5757" stroke="#EB5757"/>
<path d="M358.5 365V414" stroke="#EB5757"/>
<rect x="315.5" y="397.5" width="8" height="23" fill="#EB5757" stroke="#EB5757"/>
<path d="M319.5 395V424" stroke="#EB5757"/>
<rect x="276.5" y="410.5" width="8" height="13" fill="#EB5757" stroke="#EB5757"/>
<path d="M280.5 384V439" stroke="#EB5757"/>
<rect x="263.5" y="396.5" width="8" height="13" fill="#EB5757" stroke="#EB5757"/>
<path d="M267.5 372V425" stroke="#EB5757"/>
<rect x="250.5" y="369.5" width="8" height="27" fill="#EB5757" stroke="#EB5757"/>
<path d="M254.5 288V406" stroke="#EB5757"/>
<rect x="237.5" y="349.5" width="8" height="19" fill="#EB5757" stroke="#EB5757"/>
<path d="M241.5 255L241.5 495" stroke="#EB5757"/>
<rect x="211.5" y="401.5" width="8" height="30" fill="#EB5757" stroke="#EB5757"/>
<path d="M215.5 321V454" stroke="#EB5757"/>
<rect x="185.5" y="441.5" width="8" height="8" fill="#EB5757" stroke="#EB5757"/>
<path d="M189.5 412V469" stroke="#EB5757"/>
<rect x="159.5" y="455.5" width="8" height="6" fill="#EB5757" stroke="#EB5757"/>
<path d="M163.5 391V465" stroke="#EB5757"/>
<rect x="146.5" y="417.5" width="8" height="37" fill="#EB5757" stroke="#EB5757"/>
<path d="M150.5 394V464" stroke="#EB5757"/>
<rect x="105.5" y="465.5" width="8" height="21" fill="#EB5757" stroke="#EB5757"/>
<path d="M109.5 461V522" stroke="#EB5757"/>
<rect x="66.5" y="412.5" width="8" height="66" fill="#EB5757" stroke="#EB5757"/>
<path d="M70.5 399V481" stroke="#EB5757"/>
<rect x="53.5" y="382.5" width="8" height="29" fill="#EB5757" stroke="#EB5757"/>
<path d="M57.5 380V418" stroke="#EB5757"/>
<rect x="27.5" y="373.5" width="8" height="19" fill="#EB5757" stroke="#EB5757"/>
<path d="M31.5 371V394" stroke="#EB5757"/>
<rect x="1.5" y="380.5" width="8" height="8" fill="#EB5757" stroke="#EB5757"/>
<path d="M5.5 355L5.5 410" stroke="#EB5757"/>
<rect x="79.5" y="479.5" width="8" height="14" fill="#EB5757" stroke="#EB5757"/>
<path d="M83.5 452V504" stroke="#EB5757"/>
<rect x="705.5" y="132.5" width="8" height="38" fill="#39D885" stroke="#39D885"/>
<path d="M709.5 124V194" stroke="#39D885"/>
<rect x="666.5" y="122.5" width="8" height="70" fill="#39D885" stroke="#39D885"/>
<path d="M670.5 118V193" stroke="#39D885"/>
<rect x="653.5" y="193.5" width="8" height="16" fill="#39D885" stroke="#39D885"/>
<path d="M657.5 193V229" stroke="#39D885"/>
<rect x="640.5" y="210.5" width="8" height="1" fill="#39D885" stroke="#39D885"/>
<path d="M644.5 188V223" stroke="#39D885"/>
<rect x="627.5" y="212.5" width="8" height="14" fill="#39D885" stroke="#39D885"/>
<path d="M631.5 210V248" stroke="#39D885"/>
<rect x="614.5" y="227.5" width="8" height="18" fill="#39D885" stroke="#39D885"/>
<path d="M618.5 208V264" stroke="#39D885"/>
<rect x="588.5" y="170.5" width="8" height="67" fill="#39D885" stroke="#39D885"/>
<path d="M592.5 167V260" stroke="#39D885"/>
<rect x="575.5" y="238.5" width="8" height="7" fill="#39D885" stroke="#39D885"/>
<path d="M579.5 225V279" stroke="#39D885"/>
<rect x="562.5" y="246.5" width="8" height="35" fill="#39D885" stroke="#39D885"/>
<path d="M566.5 201V309" stroke="#39D885"/>
<rect x="536.5" y="248.5" width="8" height="6" fill="#39D885" stroke="#39D885"/>
<path d="M540.5 188V296" stroke="#39D885"/>
<rect x="523.5" y="255.5" width="8" height="79" fill="#39D885" stroke="#39D885"/>
<path d="M527.5 234V370" stroke="#39D885"/>
<rect x="497.5" y="270.5" width="8" height="25" fill="#39D885" stroke="#39D885"/>
<path d="M501.5 215V297" stroke="#39D885"/>
<rect x="484.5" y="296.5" width="8" height="41" fill="#39D885" stroke="#39D885"/>
<path d="M488.5 283V366" stroke="#39D885"/>
<rect x="471.5" y="338.5" width="8" height="6" fill="#39D885" stroke="#39D885"/>
<path d="M475.5 277V382" stroke="#39D885"/>
<rect x="458.5" y="345.5" width="8" height="4" fill="#39D885" stroke="#39D885"/>
<path d="M462.5 312V393" stroke="#39D885"/>
<rect x="445.5" y="349.5" width="8" height="29" fill="#39D885" stroke="#39D885"/>
<path d="M449.5 331V387" stroke="#39D885"/>
<rect x="419.5" y="370.5" width="8" height="4" fill="#39D885" stroke="#39D885"/>
<path d="M423.5 354V385" stroke="#39D885"/>
<rect x="406.5" y="375.5" width="8" height="12" fill="#39D885" stroke="#39D885"/>
<path d="M410.5 365V405" stroke="#39D885"/>
<rect x="393.5" y="388.5" width="8" height="20" fill="#39D885" stroke="#39D885"/>
<path d="M397.5 378V419" stroke="#39D885"/>
<rect x="380.5" y="409.5" width="8" height="25" fill="#39D885" stroke="#39D885"/>
<path d="M384.5 391V441" stroke="#39D885"/>
<rect x="341.5" y="388.5" width="8" height="29" fill="#39D885" stroke="#39D885"/>
<path d="M345.5 384V410" stroke="#39D885"/>
<rect x="328.5" y="418.5" width="8" height="2" fill="#39D885" stroke="#39D885"/>
<path d="M332.5 391V435" stroke="#39D885"/>
<rect x="302.5" y="397.5" width="8" height="8" fill="#39D885" stroke="#39D885"/>
<path d="M306.5 383V431" stroke="#39D885"/>
<rect x="289.5" y="406.5" width="8" height="17" fill="#39D885" stroke="#39D885"/>
<path d="M293.5 379V430" stroke="#39D885"/>
<rect x="224.5" y="349.5" width="8" height="82" fill="#39D885" stroke="#39D885"/>
<path d="M228.5 321V432" stroke="#39D885"/>
<rect x="198.5" y="401.5" width="8" height="48" fill="#39D885" stroke="#39D885"/>
<path d="M202.5 388V454" stroke="#39D885"/>
<rect x="172.5" y="441.5" width="8" height="20" fill="#39D885" stroke="#39D885"/>
<path d="M176.5 404V470" stroke="#39D885"/>
<rect x="133.5" y="417.5" width="8" height="20" fill="#39D885" stroke="#39D885"/>
<path d="M137.5 399V472" stroke="#39D885"/>
<rect x="118.5" y="438.5" width="8" height="48" fill="#39D885" stroke="#39D885"/>
<path d="M122.5 436V489" stroke="#39D885"/>
<rect x="92.5" y="465.5" width="8" height="28" fill="#39D885" stroke="#39D885"/>
<path d="M96.5 457V494" stroke="#39D885"/>
<rect x="40.5" y="382.5" width="8" height="10" fill="#39D885" stroke="#39D885"/>
<path d="M44.5 379V425" stroke="#39D885"/>
<rect x="14.5" y="373.5" width="8" height="15" fill="#39D885" stroke="#39D885"/>
<path d="M18.5 350L18.5 396" stroke="#39D885"/>
<rect x="757.5" y="143.5" width="8" height="60" fill="#39D885" stroke="#39D885"/>
<path d="M761.5 77V204" stroke="#39D885"/>
<path d="M1 27H855" stroke="#2D2E35"/>
<path d="M878.21 29.992L878.218 28.504L883.234 24.008C883.64 23.6507 883.914 23.3093 884.058 22.984C884.208 22.6587 884.282 22.3333 884.282 22.008C884.282 21.5973 884.192 21.2293 884.01 20.904C883.829 20.5733 883.578 20.312 883.258 20.12C882.938 19.928 882.57 19.832 882.154 19.832C881.728 19.832 881.346 19.9333 881.01 20.136C880.68 20.3333 880.421 20.5973 880.234 20.928C880.048 21.2587 879.957 21.616 879.962 22H878.25C878.25 21.2533 878.418 20.6 878.754 20.04C879.096 19.4747 879.562 19.0347 880.154 18.72C880.746 18.4 881.424 18.24 882.186 18.24C882.912 18.24 883.562 18.4053 884.138 18.736C884.714 19.0613 885.168 19.5093 885.498 20.08C885.834 20.6507 886.002 21.3013 886.002 22.032C886.002 22.56 885.933 23.008 885.794 23.376C885.656 23.744 885.448 24.0853 885.17 24.4C884.893 24.7147 884.546 25.056 884.13 25.424L880.258 28.88L880.074 28.4H886.002V29.992H878.21ZM891.425 18.248C892.166 18.248 892.836 18.4267 893.433 18.784C894.03 19.136 894.505 19.6213 894.857 20.24C895.209 20.8587 895.385 21.5653 895.385 22.36V26.024C895.385 26.8667 895.209 27.6053 894.857 28.24C894.51 28.8693 894.025 29.36 893.401 29.712C892.782 30.064 892.068 30.24 891.257 30.24C890.649 30.24 890.078 30.1253 889.545 29.896C889.012 29.6667 888.548 29.3253 888.153 28.872L889.385 27.728C889.604 28.0107 889.878 28.2373 890.209 28.408C890.54 28.5787 890.889 28.664 891.257 28.664C891.732 28.664 892.15 28.5493 892.513 28.32C892.881 28.0907 893.166 27.792 893.369 27.424C893.572 27.056 893.673 26.6613 893.673 26.24V24.128L894.009 24.496C893.678 24.928 893.268 25.2693 892.777 25.52C892.286 25.7707 891.761 25.896 891.201 25.896C890.481 25.896 889.841 25.7307 889.281 25.4C888.721 25.0693 888.278 24.6187 887.953 24.048C887.628 23.4773 887.465 22.832 887.465 22.112C887.465 21.392 887.646 20.7413 888.009 20.16C888.372 19.5787 888.852 19.1147 889.449 18.768C890.046 18.4213 890.705 18.248 891.425 18.248ZM891.425 19.864C891.009 19.864 890.628 19.9653 890.281 20.168C889.94 20.3653 889.668 20.6347 889.465 20.976C889.262 21.3173 889.161 21.696 889.161 22.112C889.161 22.528 889.262 22.9093 889.465 23.256C889.668 23.5973 889.94 23.8693 890.281 24.072C890.622 24.2747 891.001 24.376 891.417 24.376C891.833 24.376 892.212 24.2747 892.553 24.072C892.894 23.8693 893.166 23.5973 893.369 23.256C893.572 22.9093 893.673 22.528 893.673 22.112C893.673 21.7013 893.572 21.3253 893.369 20.984C893.172 20.6427 892.902 20.3707 892.561 20.168C892.22 19.9653 891.841 19.864 891.425 19.864ZM897.047 31.912L897.151 31.168C897.38 31.184 897.559 31.1413 897.687 31.04C897.815 30.9387 897.9 30.7973 897.943 30.616C897.985 30.4347 897.993 30.2293 897.967 30H897.047V28.072H898.815V30.16C898.815 30.7893 898.663 31.264 898.359 31.584C898.06 31.904 897.623 32.0133 897.047 31.912ZM904.831 30.216C904.261 30.216 903.725 30.1093 903.223 29.896C902.722 29.6773 902.287 29.368 901.919 28.968C901.557 28.568 901.293 28.096 901.127 27.552L902.743 27.104C902.898 27.6 903.167 27.9813 903.551 28.248C903.935 28.5093 904.362 28.6373 904.831 28.632C905.253 28.6267 905.623 28.528 905.943 28.336C906.263 28.144 906.514 27.8853 906.695 27.56C906.877 27.2293 906.967 26.8507 906.967 26.424C906.967 25.784 906.767 25.256 906.367 24.84C905.973 24.424 905.455 24.216 904.815 24.216C904.634 24.216 904.447 24.2427 904.255 24.296C904.069 24.3493 903.893 24.4187 903.727 24.504L902.943 23.184L907.007 19.592L907.183 20.072H901.583V18.48H908.511V20.072L905.135 23.32L905.119 22.776C905.845 22.776 906.474 22.9387 907.007 23.264C907.541 23.584 907.951 24.0213 908.239 24.576C908.533 25.1253 908.679 25.7413 908.679 26.424C908.679 27.16 908.506 27.8133 908.159 28.384C907.818 28.9547 907.357 29.4027 906.775 29.728C906.199 30.0533 905.551 30.216 904.831 30.216ZM913.747 30.216C913.177 30.216 912.641 30.1093 912.139 29.896C911.638 29.6773 911.203 29.368 910.835 28.968C910.473 28.568 910.209 28.096 910.043 27.552L911.659 27.104C911.814 27.6 912.083 27.9813 912.467 28.248C912.851 28.5093 913.278 28.6373 913.747 28.632C914.169 28.6267 914.539 28.528 914.859 28.336C915.179 28.144 915.43 27.8853 915.611 27.56C915.793 27.2293 915.883 26.8507 915.883 26.424C915.883 25.784 915.683 25.256 915.283 24.84C914.889 24.424 914.371 24.216 913.731 24.216C913.55 24.216 913.363 24.2427 913.171 24.296C912.985 24.3493 912.809 24.4187 912.643 24.504L911.859 23.184L915.923 19.592L916.099 20.072H910.499V18.48H917.427V20.072L914.051 23.32L914.035 22.776C914.761 22.776 915.39 22.9387 915.923 23.264C916.457 23.584 916.867 24.0213 917.155 24.576C917.449 25.1253 917.595 25.7413 917.595 26.424C917.595 27.16 917.422 27.8133 917.075 28.384C916.734 28.9547 916.273 29.4027 915.691 29.728C915.115 30.0533 914.467 30.216 913.747 30.216ZM920.04 30L924.088 20.072H918.96V18.48H925.888V20.072L921.848 30H920.04ZM927.331 30V28.232H929.099V30H927.331ZM934.798 30.24C934.206 30.24 933.654 30.12 933.142 29.88C932.635 29.6347 932.2 29.2987 931.838 28.872C931.475 28.44 931.216 27.944 931.062 27.384L932.67 26.952C932.76 27.2933 932.915 27.5893 933.134 27.84C933.358 28.0907 933.619 28.2853 933.918 28.424C934.216 28.5573 934.526 28.624 934.846 28.624C935.267 28.624 935.648 28.5227 935.99 28.32C936.336 28.1173 936.608 27.8453 936.806 27.504C937.008 27.1627 937.11 26.7867 937.11 26.376C937.11 25.9547 937.006 25.5733 936.798 25.232C936.595 24.8907 936.32 24.6213 935.974 24.424C935.632 24.2213 935.256 24.12 934.846 24.12C934.376 24.12 933.979 24.2133 933.654 24.4C933.328 24.5867 933.075 24.8027 932.894 25.048L931.438 24.536L931.79 18.48H938.006V20.056H932.646L933.326 19.424L933.046 23.96L932.718 23.536C933.022 23.232 933.384 23 933.806 22.84C934.227 22.68 934.646 22.6 935.062 22.6C935.776 22.6 936.414 22.7653 936.974 23.096C937.539 23.4267 937.984 23.8773 938.31 24.448C938.635 25.0133 938.798 25.656 938.798 26.376C938.798 27.0907 938.614 27.7413 938.246 28.328C937.878 28.9093 937.39 29.3733 936.782 29.72C936.174 30.0667 935.512 30.24 934.798 30.24Z" fill="#5E6367"/>
<path d="M1 227H855" stroke="#2D2E35"/>
<path d="M878.21 229.992L878.218 228.504L883.234 224.008C883.64 223.651 883.914 223.309 884.058 222.984C884.208 222.659 884.282 222.333 884.282 222.008C884.282 221.597 884.192 221.229 884.01 220.904C883.829 220.573 883.578 220.312 883.258 220.12C882.938 219.928 882.57 219.832 882.154 219.832C881.728 219.832 881.346 219.933 881.01 220.136C880.68 220.333 880.421 220.597 880.234 220.928C880.048 221.259 879.957 221.616 879.962 222H878.25C878.25 221.253 878.418 220.6 878.754 220.04C879.096 219.475 879.562 219.035 880.154 218.72C880.746 218.4 881.424 218.24 882.186 218.24C882.912 218.24 883.562 218.405 884.138 218.736C884.714 219.061 885.168 219.509 885.498 220.08C885.834 220.651 886.002 221.301 886.002 222.032C886.002 222.56 885.933 223.008 885.794 223.376C885.656 223.744 885.448 224.085 885.17 224.4C884.893 224.715 884.546 225.056 884.13 225.424L880.258 228.88L880.074 228.4H886.002V229.992H878.21ZM891.425 218.248C892.166 218.248 892.836 218.427 893.433 218.784C894.03 219.136 894.505 219.621 894.857 220.24C895.209 220.859 895.385 221.565 895.385 222.36V226.024C895.385 226.867 895.209 227.605 894.857 228.24C894.51 228.869 894.025 229.36 893.401 229.712C892.782 230.064 892.068 230.24 891.257 230.24C890.649 230.24 890.078 230.125 889.545 229.896C889.012 229.667 888.548 229.325 888.153 228.872L889.385 227.728C889.604 228.011 889.878 228.237 890.209 228.408C890.54 228.579 890.889 228.664 891.257 228.664C891.732 228.664 892.15 228.549 892.513 228.32C892.881 228.091 893.166 227.792 893.369 227.424C893.572 227.056 893.673 226.661 893.673 226.24V224.128L894.009 224.496C893.678 224.928 893.268 225.269 892.777 225.52C892.286 225.771 891.761 225.896 891.201 225.896C890.481 225.896 889.841 225.731 889.281 225.4C888.721 225.069 888.278 224.619 887.953 224.048C887.628 223.477 887.465 222.832 887.465 222.112C887.465 221.392 887.646 220.741 888.009 220.16C888.372 219.579 888.852 219.115 889.449 218.768C890.046 218.421 890.705 218.248 891.425 218.248ZM891.425 219.864C891.009 219.864 890.628 219.965 890.281 220.168C889.94 220.365 889.668 220.635 889.465 220.976C889.262 221.317 889.161 221.696 889.161 222.112C889.161 222.528 889.262 222.909 889.465 223.256C889.668 223.597 889.94 223.869 890.281 224.072C890.622 224.275 891.001 224.376 891.417 224.376C891.833 224.376 892.212 224.275 892.553 224.072C892.894 223.869 893.166 223.597 893.369 223.256C893.572 222.909 893.673 222.528 893.673 222.112C893.673 221.701 893.572 221.325 893.369 220.984C893.172 220.643 892.902 220.371 892.561 220.168C892.22 219.965 891.841 219.864 891.425 219.864ZM897.047 231.912L897.151 231.168C897.38 231.184 897.559 231.141 897.687 231.04C897.815 230.939 897.9 230.797 897.943 230.616C897.985 230.435 897.993 230.229 897.967 230H897.047V228.072H898.815V230.16C898.815 230.789 898.663 231.264 898.359 231.584C898.06 231.904 897.623 232.013 897.047 231.912ZM904.831 230.216C904.261 230.216 903.725 230.109 903.223 229.896C902.722 229.677 902.287 229.368 901.919 228.968C901.557 228.568 901.293 228.096 901.127 227.552L902.743 227.104C902.898 227.6 903.167 227.981 903.551 228.248C903.935 228.509 904.362 228.637 904.831 228.632C905.253 228.627 905.623 228.528 905.943 228.336C906.263 228.144 906.514 227.885 906.695 227.56C906.877 227.229 906.967 226.851 906.967 226.424C906.967 225.784 906.767 225.256 906.367 224.84C905.973 224.424 905.455 224.216 904.815 224.216C904.634 224.216 904.447 224.243 904.255 224.296C904.069 224.349 903.893 224.419 903.727 224.504L902.943 223.184L907.007 219.592L907.183 220.072H901.583V218.48H908.511V220.072L905.135 223.32L905.119 222.776C905.845 222.776 906.474 222.939 907.007 223.264C907.541 223.584 907.951 224.021 908.239 224.576C908.533 225.125 908.679 225.741 908.679 226.424C908.679 227.16 908.506 227.813 908.159 228.384C907.818 228.955 907.357 229.403 906.775 229.728C906.199 230.053 905.551 230.216 904.831 230.216ZM913.747 230.216C913.177 230.216 912.641 230.109 912.139 229.896C911.638 229.677 911.203 229.368 910.835 228.968C910.473 228.568 910.209 228.096 910.043 227.552L911.659 227.104C911.814 227.6 912.083 227.981 912.467 228.248C912.851 228.509 913.278 228.637 913.747 228.632C914.169 228.627 914.539 228.528 914.859 228.336C915.179 228.144 915.43 227.885 915.611 227.56C915.793 227.229 915.883 226.851 915.883 226.424C915.883 225.784 915.683 225.256 915.283 224.84C914.889 224.424 914.371 224.216 913.731 224.216C913.55 224.216 913.363 224.243 913.171 224.296C912.985 224.349 912.809 224.419 912.643 224.504L911.859 223.184L915.923 219.592L916.099 220.072H910.499V218.48H917.427V220.072L914.051 223.32L914.035 222.776C914.761 222.776 915.39 222.939 915.923 223.264C916.457 223.584 916.867 224.021 917.155 224.576C917.449 225.125 917.595 225.741 917.595 226.424C917.595 227.16 917.422 227.813 917.075 228.384C916.734 228.955 916.273 229.403 915.691 229.728C915.115 230.053 914.467 230.216 913.747 230.216ZM920.04 230L924.088 220.072H918.96V218.48H925.888V220.072L921.848 230H920.04ZM927.331 230V228.232H929.099V230H927.331ZM934.798 230.24C934.206 230.24 933.654 230.12 933.142 229.88C932.635 229.635 932.2 229.299 931.838 228.872C931.475 228.44 931.216 227.944 931.062 227.384L932.67 226.952C932.76 227.293 932.915 227.589 933.134 227.84C933.358 228.091 933.619 228.285 933.918 228.424C934.216 228.557 934.526 228.624 934.846 228.624C935.267 228.624 935.648 228.523 935.99 228.32C936.336 228.117 936.608 227.845 936.806 227.504C937.008 227.163 937.11 226.787 937.11 226.376C937.11 225.955 937.006 225.573 936.798 225.232C936.595 224.891 936.32 224.621 935.974 224.424C935.632 224.221 935.256 224.12 934.846 224.12C934.376 224.12 933.979 224.213 933.654 224.4C933.328 224.587 933.075 224.803 932.894 225.048L931.438 224.536L931.79 218.48H938.006V220.056H932.646L933.326 219.424L933.046 223.96L932.718 223.536C933.022 223.232 933.384 223 933.806 222.84C934.227 222.68 934.646 222.6 935.062 222.6C935.776 222.6 936.414 222.765 936.974 223.096C937.539 223.427 937.984 223.877 938.31 224.448C938.635 225.013 938.798 225.656 938.798 226.376C938.798 227.091 938.614 227.741 938.246 228.328C937.878 228.909 937.39 229.373 936.782 229.72C936.174 230.067 935.512 230.24 934.798 230.24Z" fill="#5E6367"/>
<path d="M1 527H855" stroke="#2D2E35"/>
<path d="M878.21 529.992L878.218 528.504L883.234 524.008C883.64 523.651 883.914 523.309 884.058 522.984C884.208 522.659 884.282 522.333 884.282 522.008C884.282 521.597 884.192 521.229 884.01 520.904C883.829 520.573 883.578 520.312 883.258 520.12C882.938 519.928 882.57 519.832 882.154 519.832C881.728 519.832 881.346 519.933 881.01 520.136C880.68 520.333 880.421 520.597 880.234 520.928C880.048 521.259 879.957 521.616 879.962 522H878.25C878.25 521.253 878.418 520.6 878.754 520.04C879.096 519.475 879.562 519.035 880.154 518.72C880.746 518.4 881.424 518.24 882.186 518.24C882.912 518.24 883.562 518.405 884.138 518.736C884.714 519.061 885.168 519.509 885.498 520.08C885.834 520.651 886.002 521.301 886.002 522.032C886.002 522.56 885.933 523.008 885.794 523.376C885.656 523.744 885.448 524.085 885.17 524.4C884.893 524.715 884.546 525.056 884.13 525.424L880.258 528.88L880.074 528.4H886.002V529.992H878.21ZM891.425 518.248C892.166 518.248 892.836 518.427 893.433 518.784C894.03 519.136 894.505 519.621 894.857 520.24C895.209 520.859 895.385 521.565 895.385 522.36V526.024C895.385 526.867 895.209 527.605 894.857 528.24C894.51 528.869 894.025 529.36 893.401 529.712C892.782 530.064 892.068 530.24 891.257 530.24C890.649 530.24 890.078 530.125 889.545 529.896C889.012 529.667 888.548 529.325 888.153 528.872L889.385 527.728C889.604 528.011 889.878 528.237 890.209 528.408C890.54 528.579 890.889 528.664 891.257 528.664C891.732 528.664 892.15 528.549 892.513 528.32C892.881 528.091 893.166 527.792 893.369 527.424C893.572 527.056 893.673 526.661 893.673 526.24V524.128L894.009 524.496C893.678 524.928 893.268 525.269 892.777 525.52C892.286 525.771 891.761 525.896 891.201 525.896C890.481 525.896 889.841 525.731 889.281 525.4C888.721 525.069 888.278 524.619 887.953 524.048C887.628 523.477 887.465 522.832 887.465 522.112C887.465 521.392 887.646 520.741 888.009 520.16C888.372 519.579 888.852 519.115 889.449 518.768C890.046 518.421 890.705 518.248 891.425 518.248ZM891.425 519.864C891.009 519.864 890.628 519.965 890.281 520.168C889.94 520.365 889.668 520.635 889.465 520.976C889.262 521.317 889.161 521.696 889.161 522.112C889.161 522.528 889.262 522.909 889.465 523.256C889.668 523.597 889.94 523.869 890.281 524.072C890.622 524.275 891.001 524.376 891.417 524.376C891.833 524.376 892.212 524.275 892.553 524.072C892.894 523.869 893.166 523.597 893.369 523.256C893.572 522.909 893.673 522.528 893.673 522.112C893.673 521.701 893.572 521.325 893.369 520.984C893.172 520.643 892.902 520.371 892.561 520.168C892.22 519.965 891.841 519.864 891.425 519.864ZM897.047 531.912L897.151 531.168C897.38 531.184 897.559 531.141 897.687 531.04C897.815 530.939 897.9 530.797 897.943 530.616C897.985 530.435 897.993 530.229 897.967 530H897.047V528.072H898.815V530.16C898.815 530.789 898.663 531.264 898.359 531.584C898.06 531.904 897.623 532.013 897.047 531.912ZM904.831 530.216C904.261 530.216 903.725 530.109 903.223 529.896C902.722 529.677 902.287 529.368 901.919 528.968C901.557 528.568 901.293 528.096 901.127 527.552L902.743 527.104C902.898 527.6 903.167 527.981 903.551 528.248C903.935 528.509 904.362 528.637 904.831 528.632C905.253 528.627 905.623 528.528 905.943 528.336C906.263 528.144 906.514 527.885 906.695 527.56C906.877 527.229 906.967 526.851 906.967 526.424C906.967 525.784 906.767 525.256 906.367 524.84C905.973 524.424 905.455 524.216 904.815 524.216C904.634 524.216 904.447 524.243 904.255 524.296C904.069 524.349 903.893 524.419 903.727 524.504L902.943 523.184L907.007 519.592L907.183 520.072H901.583V518.48H908.511V520.072L905.135 523.32L905.119 522.776C905.845 522.776 906.474 522.939 907.007 523.264C907.541 523.584 907.951 524.021 908.239 524.576C908.533 525.125 908.679 525.741 908.679 526.424C908.679 527.16 908.506 527.813 908.159 528.384C907.818 528.955 907.357 529.403 906.775 529.728C906.199 530.053 905.551 530.216 904.831 530.216ZM913.747 530.216C913.177 530.216 912.641 530.109 912.139 529.896C911.638 529.677 911.203 529.368 910.835 528.968C910.473 528.568 910.209 528.096 910.043 527.552L911.659 527.104C911.814 527.6 912.083 527.981 912.467 528.248C912.851 528.509 913.278 528.637 913.747 528.632C914.169 528.627 914.539 528.528 914.859 528.336C915.179 528.144 915.43 527.885 915.611 527.56C915.793 527.229 915.883 526.851 915.883 526.424C915.883 525.784 915.683 525.256 915.283 524.84C914.889 524.424 914.371 524.216 913.731 524.216C913.55 524.216 913.363 524.243 913.171 524.296C912.985 524.349 912.809 524.419 912.643 524.504L911.859 523.184L915.923 519.592L916.099 520.072H910.499V518.48H917.427V520.072L914.051 523.32L914.035 522.776C914.761 522.776 915.39 522.939 915.923 523.264C916.457 523.584 916.867 524.021 917.155 524.576C917.449 525.125 917.595 525.741 917.595 526.424C917.595 527.16 917.422 527.813 917.075 528.384C916.734 528.955 916.273 529.403 915.691 529.728C915.115 530.053 914.467 530.216 913.747 530.216ZM920.04 530L924.088 520.072H918.96V518.48H925.888V520.072L921.848 530H920.04ZM927.331 530V528.232H929.099V530H927.331ZM934.798 530.24C934.206 530.24 933.654 530.12 933.142 529.88C932.635 529.635 932.2 529.299 931.838 528.872C931.475 528.44 931.216 527.944 931.062 527.384L932.67 526.952C932.76 527.293 932.915 527.589 933.134 527.84C933.358 528.091 933.619 528.285 933.918 528.424C934.216 528.557 934.526 528.624 934.846 528.624C935.267 528.624 935.648 528.523 935.99 528.32C936.336 528.117 936.608 527.845 936.806 527.504C937.008 527.163 937.11 526.787 937.11 526.376C937.11 525.955 937.006 525.573 936.798 525.232C936.595 524.891 936.32 524.621 935.974 524.424C935.632 524.221 935.256 524.12 934.846 524.12C934.376 524.12 933.979 524.213 933.654 524.4C933.328 524.587 933.075 524.803 932.894 525.048L931.438 524.536L931.79 518.48H938.006V520.056H932.646L933.326 519.424L933.046 523.96L932.718 523.536C933.022 523.232 933.384 523 933.806 522.84C934.227 522.68 934.646 522.6 935.062 522.6C935.776 522.6 936.414 522.765 936.974 523.096C937.539 523.427 937.984 523.877 938.31 524.448C938.635 525.013 938.798 525.656 938.798 526.376C938.798 527.091 938.614 527.741 938.246 528.328C937.878 528.909 937.39 529.373 936.782 529.72C936.174 530.067 935.512 530.24 934.798 530.24Z" fill="#5E6367"/>
<path d="M1 127H855" stroke="#2D2E35"/>
<path d="M878.21 129.992L878.218 128.504L883.234 124.008C883.64 123.651 883.914 123.309 884.058 122.984C884.208 122.659 884.282 122.333 884.282 122.008C884.282 121.597 884.192 121.229 884.01 120.904C883.829 120.573 883.578 120.312 883.258 120.12C882.938 119.928 882.57 119.832 882.154 119.832C881.728 119.832 881.346 119.933 881.01 120.136C880.68 120.333 880.421 120.597 880.234 120.928C880.048 121.259 879.957 121.616 879.962 122H878.25C878.25 121.253 878.418 120.6 878.754 120.04C879.096 119.475 879.562 119.035 880.154 118.72C880.746 118.4 881.424 118.24 882.186 118.24C882.912 118.24 883.562 118.405 884.138 118.736C884.714 119.061 885.168 119.509 885.498 120.08C885.834 120.651 886.002 121.301 886.002 122.032C886.002 122.56 885.933 123.008 885.794 123.376C885.656 123.744 885.448 124.085 885.17 124.4C884.893 124.715 884.546 125.056 884.13 125.424L880.258 128.88L880.074 128.4H886.002V129.992H878.21ZM891.425 118.248C892.166 118.248 892.836 118.427 893.433 118.784C894.03 119.136 894.505 119.621 894.857 120.24C895.209 120.859 895.385 121.565 895.385 122.36V126.024C895.385 126.867 895.209 127.605 894.857 128.24C894.51 128.869 894.025 129.36 893.401 129.712C892.782 130.064 892.068 130.24 891.257 130.24C890.649 130.24 890.078 130.125 889.545 129.896C889.012 129.667 888.548 129.325 888.153 128.872L889.385 127.728C889.604 128.011 889.878 128.237 890.209 128.408C890.54 128.579 890.889 128.664 891.257 128.664C891.732 128.664 892.15 128.549 892.513 128.32C892.881 128.091 893.166 127.792 893.369 127.424C893.572 127.056 893.673 126.661 893.673 126.24V124.128L894.009 124.496C893.678 124.928 893.268 125.269 892.777 125.52C892.286 125.771 891.761 125.896 891.201 125.896C890.481 125.896 889.841 125.731 889.281 125.4C888.721 125.069 888.278 124.619 887.953 124.048C887.628 123.477 887.465 122.832 887.465 122.112C887.465 121.392 887.646 120.741 888.009 120.16C888.372 119.579 888.852 119.115 889.449 118.768C890.046 118.421 890.705 118.248 891.425 118.248ZM891.425 119.864C891.009 119.864 890.628 119.965 890.281 120.168C889.94 120.365 889.668 120.635 889.465 120.976C889.262 121.317 889.161 121.696 889.161 122.112C889.161 122.528 889.262 122.909 889.465 123.256C889.668 123.597 889.94 123.869 890.281 124.072C890.622 124.275 891.001 124.376 891.417 124.376C891.833 124.376 892.212 124.275 892.553 124.072C892.894 123.869 893.166 123.597 893.369 123.256C893.572 122.909 893.673 122.528 893.673 122.112C893.673 121.701 893.572 121.325 893.369 120.984C893.172 120.643 892.902 120.371 892.561 120.168C892.22 119.965 891.841 119.864 891.425 119.864ZM897.047 131.912L897.151 131.168C897.38 131.184 897.559 131.141 897.687 131.04C897.815 130.939 897.9 130.797 897.943 130.616C897.985 130.435 897.993 130.229 897.967 130H897.047V128.072H898.815V130.16C898.815 130.789 898.663 131.264 898.359 131.584C898.06 131.904 897.623 132.013 897.047 131.912ZM904.831 130.216C904.261 130.216 903.725 130.109 903.223 129.896C902.722 129.677 902.287 129.368 901.919 128.968C901.557 128.568 901.293 128.096 901.127 127.552L902.743 127.104C902.898 127.6 903.167 127.981 903.551 128.248C903.935 128.509 904.362 128.637 904.831 128.632C905.253 128.627 905.623 128.528 905.943 128.336C906.263 128.144 906.514 127.885 906.695 127.56C906.877 127.229 906.967 126.851 906.967 126.424C906.967 125.784 906.767 125.256 906.367 124.84C905.973 124.424 905.455 124.216 904.815 124.216C904.634 124.216 904.447 124.243 904.255 124.296C904.069 124.349 903.893 124.419 903.727 124.504L902.943 123.184L907.007 119.592L907.183 120.072H901.583V118.48H908.511V120.072L905.135 123.32L905.119 122.776C905.845 122.776 906.474 122.939 907.007 123.264C907.541 123.584 907.951 124.021 908.239 124.576C908.533 125.125 908.679 125.741 908.679 126.424C908.679 127.16 908.506 127.813 908.159 128.384C907.818 128.955 907.357 129.403 906.775 129.728C906.199 130.053 905.551 130.216 904.831 130.216ZM913.747 130.216C913.177 130.216 912.641 130.109 912.139 129.896C911.638 129.677 911.203 129.368 910.835 128.968C910.473 128.568 910.209 128.096 910.043 127.552L911.659 127.104C911.814 127.6 912.083 127.981 912.467 128.248C912.851 128.509 913.278 128.637 913.747 128.632C914.169 128.627 914.539 128.528 914.859 128.336C915.179 128.144 915.43 127.885 915.611 127.56C915.793 127.229 915.883 126.851 915.883 126.424C915.883 125.784 915.683 125.256 915.283 124.84C914.889 124.424 914.371 124.216 913.731 124.216C913.55 124.216 913.363 124.243 913.171 124.296C912.985 124.349 912.809 124.419 912.643 124.504L911.859 123.184L915.923 119.592L916.099 120.072H910.499V118.48H917.427V120.072L914.051 123.32L914.035 122.776C914.761 122.776 915.39 122.939 915.923 123.264C916.457 123.584 916.867 124.021 917.155 124.576C917.449 125.125 917.595 125.741 917.595 126.424C917.595 127.16 917.422 127.813 917.075 128.384C916.734 128.955 916.273 129.403 915.691 129.728C915.115 130.053 914.467 130.216 913.747 130.216ZM920.04 130L924.088 120.072H918.96V118.48H925.888V120.072L921.848 130H920.04ZM927.331 130V128.232H929.099V130H927.331ZM934.798 130.24C934.206 130.24 933.654 130.12 933.142 129.88C932.635 129.635 932.2 129.299 931.838 128.872C931.475 128.44 931.216 127.944 931.062 127.384L932.67 126.952C932.76 127.293 932.915 127.589 933.134 127.84C933.358 128.091 933.619 128.285 933.918 128.424C934.216 128.557 934.526 128.624 934.846 128.624C935.267 128.624 935.648 128.523 935.99 128.32C936.336 128.117 936.608 127.845 936.806 127.504C937.008 127.163 937.11 126.787 937.11 126.376C937.11 125.955 937.006 125.573 936.798 125.232C936.595 124.891 936.32 124.621 935.974 124.424C935.632 124.221 935.256 124.12 934.846 124.12C934.376 124.12 933.979 124.213 933.654 124.4C933.328 124.587 933.075 124.803 932.894 125.048L931.438 124.536L931.79 118.48H938.006V120.056H932.646L933.326 119.424L933.046 123.96L932.718 123.536C933.022 123.232 933.384 123 933.806 122.84C934.227 122.68 934.646 122.6 935.062 122.6C935.776 122.6 936.414 122.765 936.974 123.096C937.539 123.427 937.984 123.877 938.31 124.448C938.635 125.013 938.798 125.656 938.798 126.376C938.798 127.091 938.614 127.741 938.246 128.328C937.878 128.909 937.39 129.373 936.782 129.72C936.174 130.067 935.512 130.24 934.798 130.24Z" fill="#5E6367"/>
<path d="M1 427H855" stroke="#2D2E35"/>
<path d="M878.21 429.992L878.218 428.504L883.234 424.008C883.64 423.651 883.914 423.309 884.058 422.984C884.208 422.659 884.282 422.333 884.282 422.008C884.282 421.597 884.192 421.229 884.01 420.904C883.829 420.573 883.578 420.312 883.258 420.12C882.938 419.928 882.57 419.832 882.154 419.832C881.728 419.832 881.346 419.933 881.01 420.136C880.68 420.333 880.421 420.597 880.234 420.928C880.048 421.259 879.957 421.616 879.962 422H878.25C878.25 421.253 878.418 420.6 878.754 420.04C879.096 419.475 879.562 419.035 880.154 418.72C880.746 418.4 881.424 418.24 882.186 418.24C882.912 418.24 883.562 418.405 884.138 418.736C884.714 419.061 885.168 419.509 885.498 420.08C885.834 420.651 886.002 421.301 886.002 422.032C886.002 422.56 885.933 423.008 885.794 423.376C885.656 423.744 885.448 424.085 885.17 424.4C884.893 424.715 884.546 425.056 884.13 425.424L880.258 428.88L880.074 428.4H886.002V429.992H878.21ZM891.425 418.248C892.166 418.248 892.836 418.427 893.433 418.784C894.03 419.136 894.505 419.621 894.857 420.24C895.209 420.859 895.385 421.565 895.385 422.36V426.024C895.385 426.867 895.209 427.605 894.857 428.24C894.51 428.869 894.025 429.36 893.401 429.712C892.782 430.064 892.068 430.24 891.257 430.24C890.649 430.24 890.078 430.125 889.545 429.896C889.012 429.667 888.548 429.325 888.153 428.872L889.385 427.728C889.604 428.011 889.878 428.237 890.209 428.408C890.54 428.579 890.889 428.664 891.257 428.664C891.732 428.664 892.15 428.549 892.513 428.32C892.881 428.091 893.166 427.792 893.369 427.424C893.572 427.056 893.673 426.661 893.673 426.24V424.128L894.009 424.496C893.678 424.928 893.268 425.269 892.777 425.52C892.286 425.771 891.761 425.896 891.201 425.896C890.481 425.896 889.841 425.731 889.281 425.4C888.721 425.069 888.278 424.619 887.953 424.048C887.628 423.477 887.465 422.832 887.465 422.112C887.465 421.392 887.646 420.741 888.009 420.16C888.372 419.579 888.852 419.115 889.449 418.768C890.046 418.421 890.705 418.248 891.425 418.248ZM891.425 419.864C891.009 419.864 890.628 419.965 890.281 420.168C889.94 420.365 889.668 420.635 889.465 420.976C889.262 421.317 889.161 421.696 889.161 422.112C889.161 422.528 889.262 422.909 889.465 423.256C889.668 423.597 889.94 423.869 890.281 424.072C890.622 424.275 891.001 424.376 891.417 424.376C891.833 424.376 892.212 424.275 892.553 424.072C892.894 423.869 893.166 423.597 893.369 423.256C893.572 422.909 893.673 422.528 893.673 422.112C893.673 421.701 893.572 421.325 893.369 420.984C893.172 420.643 892.902 420.371 892.561 420.168C892.22 419.965 891.841 419.864 891.425 419.864ZM897.047 431.912L897.151 431.168C897.38 431.184 897.559 431.141 897.687 431.04C897.815 430.939 897.9 430.797 897.943 430.616C897.985 430.435 897.993 430.229 897.967 430H897.047V428.072H898.815V430.16C898.815 430.789 898.663 431.264 898.359 431.584C898.06 431.904 897.623 432.013 897.047 431.912ZM904.831 430.216C904.261 430.216 903.725 430.109 903.223 429.896C902.722 429.677 902.287 429.368 901.919 428.968C901.557 428.568 901.293 428.096 901.127 427.552L902.743 427.104C902.898 427.6 903.167 427.981 903.551 428.248C903.935 428.509 904.362 428.637 904.831 428.632C905.253 428.627 905.623 428.528 905.943 428.336C906.263 428.144 906.514 427.885 906.695 427.56C906.877 427.229 906.967 426.851 906.967 426.424C906.967 425.784 906.767 425.256 906.367 424.84C905.973 424.424 905.455 424.216 904.815 424.216C904.634 424.216 904.447 424.243 904.255 424.296C904.069 424.349 903.893 424.419 903.727 424.504L902.943 423.184L907.007 419.592L907.183 420.072H901.583V418.48H908.511V420.072L905.135 423.32L905.119 422.776C905.845 422.776 906.474 422.939 907.007 423.264C907.541 423.584 907.951 424.021 908.239 424.576C908.533 425.125 908.679 425.741 908.679 426.424C908.679 427.16 908.506 427.813 908.159 428.384C907.818 428.955 907.357 429.403 906.775 429.728C906.199 430.053 905.551 430.216 904.831 430.216ZM913.747 430.216C913.177 430.216 912.641 430.109 912.139 429.896C911.638 429.677 911.203 429.368 910.835 428.968C910.473 428.568 910.209 428.096 910.043 427.552L911.659 427.104C911.814 427.6 912.083 427.981 912.467 428.248C912.851 428.509 913.278 428.637 913.747 428.632C914.169 428.627 914.539 428.528 914.859 428.336C915.179 428.144 915.43 427.885 915.611 427.56C915.793 427.229 915.883 426.851 915.883 426.424C915.883 425.784 915.683 425.256 915.283 424.84C914.889 424.424 914.371 424.216 913.731 424.216C913.55 424.216 913.363 424.243 913.171 424.296C912.985 424.349 912.809 424.419 912.643 424.504L911.859 423.184L915.923 419.592L916.099 420.072H910.499V418.48H917.427V420.072L914.051 423.32L914.035 422.776C914.761 422.776 915.39 422.939 915.923 423.264C916.457 423.584 916.867 424.021 917.155 424.576C917.449 425.125 917.595 425.741 917.595 426.424C917.595 427.16 917.422 427.813 917.075 428.384C916.734 428.955 916.273 429.403 915.691 429.728C915.115 430.053 914.467 430.216 913.747 430.216ZM920.04 430L924.088 420.072H918.96V418.48H925.888V420.072L921.848 430H920.04ZM927.331 430V428.232H929.099V430H927.331ZM934.798 430.24C934.206 430.24 933.654 430.12 933.142 429.88C932.635 429.635 932.2 429.299 931.838 428.872C931.475 428.44 931.216 427.944 931.062 427.384L932.67 426.952C932.76 427.293 932.915 427.589 933.134 427.84C933.358 428.091 933.619 428.285 933.918 428.424C934.216 428.557 934.526 428.624 934.846 428.624C935.267 428.624 935.648 428.523 935.99 428.32C936.336 428.117 936.608 427.845 936.806 427.504C937.008 427.163 937.11 426.787 937.11 426.376C937.11 425.955 937.006 425.573 936.798 425.232C936.595 424.891 936.32 424.621 935.974 424.424C935.632 424.221 935.256 424.12 934.846 424.12C934.376 424.12 933.979 424.213 933.654 424.4C933.328 424.587 933.075 424.803 932.894 425.048L931.438 424.536L931.79 418.48H938.006V420.056H932.646L933.326 419.424L933.046 423.96L932.718 423.536C933.022 423.232 933.384 423 933.806 422.84C934.227 422.68 934.646 422.6 935.062 422.6C935.776 422.6 936.414 422.765 936.974 423.096C937.539 423.427 937.984 423.877 938.31 424.448C938.635 425.013 938.798 425.656 938.798 426.376C938.798 427.091 938.614 427.741 938.246 428.328C937.878 428.909 937.39 429.373 936.782 429.72C936.174 430.067 935.512 430.24 934.798 430.24Z" fill="#5E6367"/>
<path d="M1 327H855" stroke="#2D2E35"/>
<path d="M878.21 329.992L878.218 328.504L883.234 324.008C883.64 323.651 883.914 323.309 884.058 322.984C884.208 322.659 884.282 322.333 884.282 322.008C884.282 321.597 884.192 321.229 884.01 320.904C883.829 320.573 883.578 320.312 883.258 320.12C882.938 319.928 882.57 319.832 882.154 319.832C881.728 319.832 881.346 319.933 881.01 320.136C880.68 320.333 880.421 320.597 880.234 320.928C880.048 321.259 879.957 321.616 879.962 322H878.25C878.25 321.253 878.418 320.6 878.754 320.04C879.096 319.475 879.562 319.035 880.154 318.72C880.746 318.4 881.424 318.24 882.186 318.24C882.912 318.24 883.562 318.405 884.138 318.736C884.714 319.061 885.168 319.509 885.498 320.08C885.834 320.651 886.002 321.301 886.002 322.032C886.002 322.56 885.933 323.008 885.794 323.376C885.656 323.744 885.448 324.085 885.17 324.4C884.893 324.715 884.546 325.056 884.13 325.424L880.258 328.88L880.074 328.4H886.002V329.992H878.21ZM891.425 318.248C892.166 318.248 892.836 318.427 893.433 318.784C894.03 319.136 894.505 319.621 894.857 320.24C895.209 320.859 895.385 321.565 895.385 322.36V326.024C895.385 326.867 895.209 327.605 894.857 328.24C894.51 328.869 894.025 329.36 893.401 329.712C892.782 330.064 892.068 330.24 891.257 330.24C890.649 330.24 890.078 330.125 889.545 329.896C889.012 329.667 888.548 329.325 888.153 328.872L889.385 327.728C889.604 328.011 889.878 328.237 890.209 328.408C890.54 328.579 890.889 328.664 891.257 328.664C891.732 328.664 892.15 328.549 892.513 328.32C892.881 328.091 893.166 327.792 893.369 327.424C893.572 327.056 893.673 326.661 893.673 326.24V324.128L894.009 324.496C893.678 324.928 893.268 325.269 892.777 325.52C892.286 325.771 891.761 325.896 891.201 325.896C890.481 325.896 889.841 325.731 889.281 325.4C888.721 325.069 888.278 324.619 887.953 324.048C887.628 323.477 887.465 322.832 887.465 322.112C887.465 321.392 887.646 320.741 888.009 320.16C888.372 319.579 888.852 319.115 889.449 318.768C890.046 318.421 890.705 318.248 891.425 318.248ZM891.425 319.864C891.009 319.864 890.628 319.965 890.281 320.168C889.94 320.365 889.668 320.635 889.465 320.976C889.262 321.317 889.161 321.696 889.161 322.112C889.161 322.528 889.262 322.909 889.465 323.256C889.668 323.597 889.94 323.869 890.281 324.072C890.622 324.275 891.001 324.376 891.417 324.376C891.833 324.376 892.212 324.275 892.553 324.072C892.894 323.869 893.166 323.597 893.369 323.256C893.572 322.909 893.673 322.528 893.673 322.112C893.673 321.701 893.572 321.325 893.369 320.984C893.172 320.643 892.902 320.371 892.561 320.168C892.22 319.965 891.841 319.864 891.425 319.864ZM897.047 331.912L897.151 331.168C897.38 331.184 897.559 331.141 897.687 331.04C897.815 330.939 897.9 330.797 897.943 330.616C897.985 330.435 897.993 330.229 897.967 330H897.047V328.072H898.815V330.16C898.815 330.789 898.663 331.264 898.359 331.584C898.06 331.904 897.623 332.013 897.047 331.912ZM904.831 330.216C904.261 330.216 903.725 330.109 903.223 329.896C902.722 329.677 902.287 329.368 901.919 328.968C901.557 328.568 901.293 328.096 901.127 327.552L902.743 327.104C902.898 327.6 903.167 327.981 903.551 328.248C903.935 328.509 904.362 328.637 904.831 328.632C905.253 328.627 905.623 328.528 905.943 328.336C906.263 328.144 906.514 327.885 906.695 327.56C906.877 327.229 906.967 326.851 906.967 326.424C906.967 325.784 906.767 325.256 906.367 324.84C905.973 324.424 905.455 324.216 904.815 324.216C904.634 324.216 904.447 324.243 904.255 324.296C904.069 324.349 903.893 324.419 903.727 324.504L902.943 323.184L907.007 319.592L907.183 320.072H901.583V318.48H908.511V320.072L905.135 323.32L905.119 322.776C905.845 322.776 906.474 322.939 907.007 323.264C907.541 323.584 907.951 324.021 908.239 324.576C908.533 325.125 908.679 325.741 908.679 326.424C908.679 327.16 908.506 327.813 908.159 328.384C907.818 328.955 907.357 329.403 906.775 329.728C906.199 330.053 905.551 330.216 904.831 330.216ZM913.747 330.216C913.177 330.216 912.641 330.109 912.139 329.896C911.638 329.677 911.203 329.368 910.835 328.968C910.473 328.568 910.209 328.096 910.043 327.552L911.659 327.104C911.814 327.6 912.083 327.981 912.467 328.248C912.851 328.509 913.278 328.637 913.747 328.632C914.169 328.627 914.539 328.528 914.859 328.336C915.179 328.144 915.43 327.885 915.611 327.56C915.793 327.229 915.883 326.851 915.883 326.424C915.883 325.784 915.683 325.256 915.283 324.84C914.889 324.424 914.371 324.216 913.731 324.216C913.55 324.216 913.363 324.243 913.171 324.296C912.985 324.349 912.809 324.419 912.643 324.504L911.859 323.184L915.923 319.592L916.099 320.072H910.499V318.48H917.427V320.072L914.051 323.32L914.035 322.776C914.761 322.776 915.39 322.939 915.923 323.264C916.457 323.584 916.867 324.021 917.155 324.576C917.449 325.125 917.595 325.741 917.595 326.424C917.595 327.16 917.422 327.813 917.075 328.384C916.734 328.955 916.273 329.403 915.691 329.728C915.115 330.053 914.467 330.216 913.747 330.216ZM920.04 330L924.088 320.072H918.96V318.48H925.888V320.072L921.848 330H920.04ZM927.331 330V328.232H929.099V330H927.331ZM934.798 330.24C934.206 330.24 933.654 330.12 933.142 329.88C932.635 329.635 932.2 329.299 931.838 328.872C931.475 328.44 931.216 327.944 931.062 327.384L932.67 326.952C932.76 327.293 932.915 327.589 933.134 327.84C933.358 328.091 933.619 328.285 933.918 328.424C934.216 328.557 934.526 328.624 934.846 328.624C935.267 328.624 935.648 328.523 935.99 328.32C936.336 328.117 936.608 327.845 936.806 327.504C937.008 327.163 937.11 326.787 937.11 326.376C937.11 325.955 937.006 325.573 936.798 325.232C936.595 324.891 936.32 324.621 935.974 324.424C935.632 324.221 935.256 324.12 934.846 324.12C934.376 324.12 933.979 324.213 933.654 324.4C933.328 324.587 933.075 324.803 932.894 325.048L931.438 324.536L931.79 318.48H938.006V320.056H932.646L933.326 319.424L933.046 323.96L932.718 323.536C933.022 323.232 933.384 323 933.806 322.84C934.227 322.68 934.646 322.6 935.062 322.6C935.776 322.6 936.414 322.765 936.974 323.096C937.539 323.427 937.984 323.877 938.31 324.448C938.635 325.013 938.798 325.656 938.798 326.376C938.798 327.091 938.614 327.741 938.246 328.328C937.878 328.909 937.39 329.373 936.782 329.72C936.174 330.067 935.512 330.24 934.798 330.24Z" fill="#5E6367"/>
<path d="M1 627H855" stroke="#2D2E35"/>
<path d="M878.21 629.992L878.218 628.504L883.234 624.008C883.64 623.651 883.914 623.309 884.058 622.984C884.208 622.659 884.282 622.333 884.282 622.008C884.282 621.597 884.192 621.229 884.01 620.904C883.829 620.573 883.578 620.312 883.258 620.12C882.938 619.928 882.57 619.832 882.154 619.832C881.728 619.832 881.346 619.933 881.01 620.136C880.68 620.333 880.421 620.597 880.234 620.928C880.048 621.259 879.957 621.616 879.962 622H878.25C878.25 621.253 878.418 620.6 878.754 620.04C879.096 619.475 879.562 619.035 880.154 618.72C880.746 618.4 881.424 618.24 882.186 618.24C882.912 618.24 883.562 618.405 884.138 618.736C884.714 619.061 885.168 619.509 885.498 620.08C885.834 620.651 886.002 621.301 886.002 622.032C886.002 622.56 885.933 623.008 885.794 623.376C885.656 623.744 885.448 624.085 885.17 624.4C884.893 624.715 884.546 625.056 884.13 625.424L880.258 628.88L880.074 628.4H886.002V629.992H878.21ZM891.425 618.248C892.166 618.248 892.836 618.427 893.433 618.784C894.03 619.136 894.505 619.621 894.857 620.24C895.209 620.859 895.385 621.565 895.385 622.36V626.024C895.385 626.867 895.209 627.605 894.857 628.24C894.51 628.869 894.025 629.36 893.401 629.712C892.782 630.064 892.068 630.24 891.257 630.24C890.649 630.24 890.078 630.125 889.545 629.896C889.012 629.667 888.548 629.325 888.153 628.872L889.385 627.728C889.604 628.011 889.878 628.237 890.209 628.408C890.54 628.579 890.889 628.664 891.257 628.664C891.732 628.664 892.15 628.549 892.513 628.32C892.881 628.091 893.166 627.792 893.369 627.424C893.572 627.056 893.673 626.661 893.673 626.24V624.128L894.009 624.496C893.678 624.928 893.268 625.269 892.777 625.52C892.286 625.771 891.761 625.896 891.201 625.896C890.481 625.896 889.841 625.731 889.281 625.4C888.721 625.069 888.278 624.619 887.953 624.048C887.628 623.477 887.465 622.832 887.465 622.112C887.465 621.392 887.646 620.741 888.009 620.16C888.372 619.579 888.852 619.115 889.449 618.768C890.046 618.421 890.705 618.248 891.425 618.248ZM891.425 619.864C891.009 619.864 890.628 619.965 890.281 620.168C889.94 620.365 889.668 620.635 889.465 620.976C889.262 621.317 889.161 621.696 889.161 622.112C889.161 622.528 889.262 622.909 889.465 623.256C889.668 623.597 889.94 623.869 890.281 624.072C890.622 624.275 891.001 624.376 891.417 624.376C891.833 624.376 892.212 624.275 892.553 624.072C892.894 623.869 893.166 623.597 893.369 623.256C893.572 622.909 893.673 622.528 893.673 622.112C893.673 621.701 893.572 621.325 893.369 620.984C893.172 620.643 892.902 620.371 892.561 620.168C892.22 619.965 891.841 619.864 891.425 619.864ZM897.047 631.912L897.151 631.168C897.38 631.184 897.559 631.141 897.687 631.04C897.815 630.939 897.9 630.797 897.943 630.616C897.985 630.435 897.993 630.229 897.967 630H897.047V628.072H898.815V630.16C898.815 630.789 898.663 631.264 898.359 631.584C898.06 631.904 897.623 632.013 897.047 631.912ZM904.831 630.216C904.261 630.216 903.725 630.109 903.223 629.896C902.722 629.677 902.287 629.368 901.919 628.968C901.557 628.568 901.293 628.096 901.127 627.552L902.743 627.104C902.898 627.6 903.167 627.981 903.551 628.248C903.935 628.509 904.362 628.637 904.831 628.632C905.253 628.627 905.623 628.528 905.943 628.336C906.263 628.144 906.514 627.885 906.695 627.56C906.877 627.229 906.967 626.851 906.967 626.424C906.967 625.784 906.767 625.256 906.367 624.84C905.973 624.424 905.455 624.216 904.815 624.216C904.634 624.216 904.447 624.243 904.255 624.296C904.069 624.349 903.893 624.419 903.727 624.504L902.943 623.184L907.007 619.592L907.183 620.072H901.583V618.48H908.511V620.072L905.135 623.32L905.119 622.776C905.845 622.776 906.474 622.939 907.007 623.264C907.541 623.584 907.951 624.021 908.239 624.576C908.533 625.125 908.679 625.741 908.679 626.424C908.679 627.16 908.506 627.813 908.159 628.384C907.818 628.955 907.357 629.403 906.775 629.728C906.199 630.053 905.551 630.216 904.831 630.216ZM913.747 630.216C913.177 630.216 912.641 630.109 912.139 629.896C911.638 629.677 911.203 629.368 910.835 628.968C910.473 628.568 910.209 628.096 910.043 627.552L911.659 627.104C911.814 627.6 912.083 627.981 912.467 628.248C912.851 628.509 913.278 628.637 913.747 628.632C914.169 628.627 914.539 628.528 914.859 628.336C915.179 628.144 915.43 627.885 915.611 627.56C915.793 627.229 915.883 626.851 915.883 626.424C915.883 625.784 915.683 625.256 915.283 624.84C914.889 624.424 914.371 624.216 913.731 624.216C913.55 624.216 913.363 624.243 913.171 624.296C912.985 624.349 912.809 624.419 912.643 624.504L911.859 623.184L915.923 619.592L916.099 620.072H910.499V618.48H917.427V620.072L914.051 623.32L914.035 622.776C914.761 622.776 915.39 622.939 915.923 623.264C916.457 623.584 916.867 624.021 917.155 624.576C917.449 625.125 917.595 625.741 917.595 626.424C917.595 627.16 917.422 627.813 917.075 628.384C916.734 628.955 916.273 629.403 915.691 629.728C915.115 630.053 914.467 630.216 913.747 630.216ZM920.04 630L924.088 620.072H918.96V618.48H925.888V620.072L921.848 630H920.04ZM927.331 630V628.232H929.099V630H927.331ZM934.798 630.24C934.206 630.24 933.654 630.12 933.142 629.88C932.635 629.635 932.2 629.299 931.838 628.872C931.475 628.44 931.216 627.944 931.062 627.384L932.67 626.952C932.76 627.293 932.915 627.589 933.134 627.84C933.358 628.091 933.619 628.285 933.918 628.424C934.216 628.557 934.526 628.624 934.846 628.624C935.267 628.624 935.648 628.523 935.99 628.32C936.336 628.117 936.608 627.845 936.806 627.504C937.008 627.163 937.11 626.787 937.11 626.376C937.11 625.955 937.006 625.573 936.798 625.232C936.595 624.891 936.32 624.621 935.974 624.424C935.632 624.221 935.256 624.12 934.846 624.12C934.376 624.12 933.979 624.213 933.654 624.4C933.328 624.587 933.075 624.803 932.894 625.048L931.438 624.536L931.79 618.48H938.006V620.056H932.646L933.326 619.424L933.046 623.96L932.718 623.536C933.022 623.232 933.384 623 933.806 622.84C934.227 622.68 934.646 622.6 935.062 622.6C935.776 622.6 936.414 622.765 936.974 623.096C937.539 623.427 937.984 623.877 938.31 624.448C938.635 625.013 938.798 625.656 938.798 626.376C938.798 627.091 938.614 627.741 938.246 628.328C937.878 628.909 937.39 629.373 936.782 629.72C936.174 630.067 935.512 630.24 934.798 630.24Z" fill="#5E6367"/>
<path d="M91 665L91 -1.46031e-06" stroke="#2D2E35"/>
<path d="M49.3523 693.24C48.5683 693.24 47.8749 693.069 47.2723 692.728C46.6696 692.381 46.1949 691.907 45.8483 691.304C45.5069 690.701 45.3363 690.008 45.3363 689.224V685.256C45.3363 684.472 45.5069 683.779 45.8483 683.176C46.1949 682.573 46.6696 682.101 47.2723 681.76C47.8749 681.413 48.5683 681.24 49.3523 681.24C50.1363 681.24 50.8296 681.413 51.4323 681.76C52.0349 682.101 52.5069 682.573 52.8483 683.176C53.1949 683.779 53.3683 684.472 53.3683 685.256V689.224C53.3683 690.008 53.1949 690.701 52.8483 691.304C52.5069 691.907 52.0349 692.381 51.4323 692.728C50.8296 693.069 50.1363 693.24 49.3523 693.24ZM49.3523 691.64C49.7789 691.64 50.1656 691.539 50.5123 691.336C50.8643 691.128 51.1443 690.851 51.3523 690.504C51.5603 690.152 51.6643 689.76 51.6643 689.328V685.136C51.6643 684.709 51.5603 684.323 51.3523 683.976C51.1443 683.624 50.8643 683.347 50.5123 683.144C50.1656 682.936 49.7789 682.832 49.3523 682.832C48.9256 682.832 48.5363 682.936 48.1843 683.144C47.8376 683.347 47.5603 683.624 47.3523 683.976C47.1443 684.323 47.0403 684.709 47.0403 685.136V689.328C47.0403 689.76 47.1443 690.152 47.3523 690.504C47.5603 690.851 47.8376 691.128 48.1843 691.336C48.5363 691.539 48.9256 691.64 49.3523 691.64ZM60.2419 693V690.992H55.0419V689.408L58.7859 681.48H60.6979L56.9539 689.408H60.2419V686.288H61.9379V689.408H63.0819V690.992H61.9379V693H60.2419ZM64.6025 687.904V686.56H69.4025V687.904H64.6025ZM75.2573 693.24C74.4733 693.24 73.7799 693.069 73.1773 692.728C72.5746 692.381 72.0999 691.907 71.7533 691.304C71.4119 690.701 71.2413 690.008 71.2413 689.224V685.256C71.2413 684.472 71.4119 683.779 71.7533 683.176C72.0999 682.573 72.5746 682.101 73.1773 681.76C73.7799 681.413 74.4733 681.24 75.2573 681.24C76.0413 681.24 76.7346 681.413 77.3373 681.76C77.9399 682.101 78.4119 682.573 78.7533 683.176C79.0999 683.779 79.2733 684.472 79.2733 685.256V689.224C79.2733 690.008 79.0999 690.701 78.7533 691.304C78.4119 691.907 77.9399 692.381 77.3373 692.728C76.7346 693.069 76.0413 693.24 75.2573 693.24ZM75.2573 691.64C75.6839 691.64 76.0706 691.539 76.4173 691.336C76.7693 691.128 77.0493 690.851 77.2573 690.504C77.4653 690.152 77.5693 689.76 77.5693 689.328V685.136C77.5693 684.709 77.4653 684.323 77.2573 683.976C77.0493 683.624 76.7693 683.347 76.4173 683.144C76.0706 682.936 75.6839 682.832 75.2573 682.832C74.8306 682.832 74.4413 682.936 74.0893 683.144C73.7426 683.347 73.4653 683.624 73.2573 683.976C73.0493 684.323 72.9453 684.709 72.9453 685.136V689.328C72.9453 689.76 73.0493 690.152 73.2573 690.504C73.4653 690.851 73.7426 691.128 74.0893 691.336C74.4413 691.539 74.8306 691.64 75.2573 691.64ZM81.8669 693L85.9149 683.072H80.7869V681.48H87.7149V683.072L83.6749 693H81.8669ZM107.905 693.24C107.153 693.24 106.487 693.091 105.905 692.792C105.329 692.488 104.876 692.067 104.545 691.528C104.22 690.989 104.057 690.365 104.057 689.656C104.057 688.995 104.212 688.389 104.521 687.84C104.831 687.291 105.292 686.859 105.905 686.544L105.873 687.12C105.383 686.816 105.004 686.437 104.737 685.984C104.476 685.525 104.345 685.013 104.345 684.448C104.345 683.792 104.497 683.224 104.801 682.744C105.105 682.264 105.524 681.893 106.057 681.632C106.596 681.371 107.212 681.24 107.905 681.24C108.599 681.24 109.212 681.371 109.746 681.632C110.279 681.893 110.698 682.264 111.002 682.744C111.306 683.224 111.458 683.792 111.458 684.448C111.458 685.013 111.332 685.523 111.082 685.976C110.831 686.429 110.447 686.811 109.93 687.12L109.905 686.56C110.514 686.859 110.975 687.285 111.29 687.84C111.604 688.389 111.762 688.995 111.762 689.656C111.762 690.365 111.596 690.989 111.266 691.528C110.935 692.067 110.479 692.488 109.898 692.792C109.316 693.091 108.652 693.24 107.905 693.24ZM107.905 691.648C108.524 691.648 109.025 691.48 109.41 691.144C109.794 690.803 109.986 690.307 109.986 689.656C109.986 689.005 109.794 688.509 109.41 688.168C109.031 687.821 108.53 687.648 107.905 687.648C107.282 687.648 106.778 687.821 106.394 688.168C106.015 688.509 105.826 689.005 105.826 689.656C105.826 690.307 106.018 690.803 106.401 691.144C106.785 691.48 107.287 691.648 107.905 691.648ZM107.905 686.048C108.434 686.048 108.86 685.917 109.186 685.656C109.516 685.389 109.681 684.987 109.681 684.448C109.681 683.909 109.516 683.507 109.186 683.24C108.86 682.968 108.434 682.832 107.905 682.832C107.378 682.832 106.948 682.968 106.618 683.24C106.287 683.507 106.122 683.909 106.122 684.448C106.122 684.987 106.287 685.389 106.618 685.656C106.948 685.917 107.378 686.048 107.905 686.048ZM114.242 691.88V690.112H116.01V691.88H114.242ZM114.25 687.248V685.48H116.018V687.248H114.25ZM122.629 693.24C121.845 693.24 121.151 693.069 120.549 692.728C119.946 692.381 119.471 691.907 119.125 691.304C118.783 690.701 118.613 690.008 118.613 689.224V685.256C118.613 684.472 118.783 683.779 119.125 683.176C119.471 682.573 119.946 682.101 120.549 681.76C121.151 681.413 121.845 681.24 122.629 681.24C123.413 681.24 124.106 681.413 124.709 681.76C125.311 682.101 125.783 682.573 126.125 683.176C126.471 683.779 126.645 684.472 126.645 685.256V689.224C126.645 690.008 126.471 690.701 126.125 691.304C125.783 691.907 125.311 692.381 124.709 692.728C124.106 693.069 123.413 693.24 122.629 693.24ZM122.629 691.64C123.055 691.64 123.442 691.539 123.789 691.336C124.141 691.128 124.421 690.851 124.629 690.504C124.837 690.152 124.941 689.76 124.941 689.328V685.136C124.941 684.709 124.837 684.323 124.629 683.976C124.421 683.624 124.141 683.347 123.789 683.144C123.442 682.936 123.055 682.832 122.629 682.832C122.202 682.832 121.813 682.936 121.461 683.144C121.114 683.347 120.837 683.624 120.629 683.976C120.421 684.323 120.317 684.709 120.317 685.136V689.328C120.317 689.76 120.421 690.152 120.629 690.504C120.837 690.851 121.114 691.128 121.461 691.336C121.813 691.539 122.202 691.64 122.629 691.64ZM132.654 693.24C131.87 693.24 131.177 693.069 130.574 692.728C129.971 692.381 129.497 691.907 129.15 691.304C128.809 690.701 128.638 690.008 128.638 689.224V685.256C128.638 684.472 128.809 683.779 129.15 683.176C129.497 682.573 129.971 682.101 130.574 681.76C131.177 681.413 131.87 681.24 132.654 681.24C133.438 681.24 134.131 681.413 134.734 681.76C135.337 682.101 135.809 682.573 136.15 683.176C136.497 683.779 136.67 684.472 136.67 685.256V689.224C136.67 690.008 136.497 690.701 136.15 691.304C135.809 691.907 135.337 692.381 134.734 692.728C134.131 693.069 133.438 693.24 132.654 693.24ZM132.654 691.64C133.081 691.64 133.467 691.539 133.814 691.336C134.166 691.128 134.446 690.851 134.654 690.504C134.862 690.152 134.966 689.76 134.966 689.328V685.136C134.966 684.709 134.862 684.323 134.654 683.976C134.446 683.624 134.166 683.347 133.814 683.144C133.467 682.936 133.081 682.832 132.654 682.832C132.227 682.832 131.838 682.936 131.486 683.144C131.139 683.347 130.862 683.624 130.654 683.976C130.446 684.323 130.342 684.709 130.342 685.136V689.328C130.342 689.76 130.446 690.152 130.654 690.504C130.862 690.851 131.139 691.128 131.486 691.336C131.838 691.539 132.227 691.64 132.654 691.64Z" fill="#5E6367"/>
<path d="M317 665L317 -1.46031e-06" stroke="#2D2E35"/>
<path d="M272.214 693.24C271.43 693.24 270.737 693.069 270.134 692.728C269.532 692.381 269.057 691.907 268.71 691.304C268.369 690.701 268.198 690.008 268.198 689.224V685.256C268.198 684.472 268.369 683.779 268.71 683.176C269.057 682.573 269.532 682.101 270.134 681.76C270.737 681.413 271.43 681.24 272.214 681.24C272.998 681.24 273.692 681.413 274.294 681.76C274.897 682.101 275.369 682.573 275.71 683.176C276.057 683.779 276.23 684.472 276.23 685.256V689.224C276.23 690.008 276.057 690.701 275.71 691.304C275.369 691.907 274.897 692.381 274.294 692.728C273.692 693.069 272.998 693.24 272.214 693.24ZM272.214 691.64C272.641 691.64 273.028 691.539 273.374 691.336C273.726 691.128 274.006 690.851 274.214 690.504C274.422 690.152 274.526 689.76 274.526 689.328V685.136C274.526 684.709 274.422 684.323 274.214 683.976C274.006 683.624 273.726 683.347 273.374 683.144C273.028 682.936 272.641 682.832 272.214 682.832C271.788 682.832 271.398 682.936 271.046 683.144C270.7 683.347 270.422 683.624 270.214 683.976C270.006 684.323 269.902 684.709 269.902 685.136V689.328C269.902 689.76 270.006 690.152 270.214 690.504C270.422 690.851 270.7 691.128 271.046 691.336C271.398 691.539 271.788 691.64 272.214 691.64ZM283.104 693V690.992H277.904V689.408L281.648 681.48H283.56L279.816 689.408H283.104V686.288H284.8V689.408H285.944V690.992H284.8V693H283.104ZM287.465 687.904V686.56H292.265V687.904H287.465ZM298.119 693.24C297.335 693.24 296.642 693.069 296.039 692.728C295.437 692.381 294.962 691.907 294.615 691.304C294.274 690.701 294.103 690.008 294.103 689.224V685.256C294.103 684.472 294.274 683.779 294.615 683.176C294.962 682.573 295.437 682.101 296.039 681.76C296.642 681.413 297.335 681.24 298.119 681.24C298.903 681.24 299.597 681.413 300.199 681.76C300.802 682.101 301.274 682.573 301.615 683.176C301.962 683.779 302.135 684.472 302.135 685.256V689.224C302.135 690.008 301.962 690.701 301.615 691.304C301.274 691.907 300.802 692.381 300.199 692.728C299.597 693.069 298.903 693.24 298.119 693.24ZM298.119 691.64C298.546 691.64 298.933 691.539 299.279 691.336C299.631 691.128 299.911 690.851 300.119 690.504C300.327 690.152 300.431 689.76 300.431 689.328V685.136C300.431 684.709 300.327 684.323 300.119 683.976C299.911 683.624 299.631 683.347 299.279 683.144C298.933 682.936 298.546 682.832 298.119 682.832C297.693 682.832 297.303 682.936 296.951 683.144C296.605 683.347 296.327 683.624 296.119 683.976C295.911 684.323 295.807 684.709 295.807 685.136V689.328C295.807 689.76 295.911 690.152 296.119 690.504C296.327 690.851 296.605 691.128 296.951 691.336C297.303 691.539 297.693 691.64 298.119 691.64ZM304.729 693L308.777 683.072H303.649V681.48H310.577V683.072L306.537 693H304.729ZM329.088 693V683.32L326.92 684.64V682.776L329.088 681.48H330.792V693H329.088ZM333.27 692.992L333.278 691.504L338.294 687.008C338.699 686.651 338.974 686.309 339.118 685.984C339.267 685.659 339.342 685.333 339.342 685.008C339.342 684.597 339.251 684.229 339.07 683.904C338.888 683.573 338.638 683.312 338.318 683.12C337.998 682.928 337.63 682.832 337.214 682.832C336.787 682.832 336.406 682.933 336.07 683.136C335.739 683.333 335.48 683.597 335.294 683.928C335.107 684.259 335.016 684.616 335.022 685H333.31C333.31 684.253 333.478 683.6 333.814 683.04C334.155 682.475 334.622 682.035 335.214 681.72C335.806 681.4 336.483 681.24 337.246 681.24C337.971 681.24 338.622 681.405 339.198 681.736C339.774 682.061 340.227 682.509 340.558 683.08C340.894 683.651 341.062 684.301 341.062 685.032C341.062 685.56 340.992 686.008 340.854 686.376C340.715 686.744 340.507 687.085 340.23 687.4C339.952 687.715 339.606 688.056 339.19 688.424L335.318 691.88L335.134 691.4H341.062V692.992H333.27ZM343.38 691.88V690.112H345.148V691.88H343.38ZM343.388 687.248V685.48H345.156V687.248H343.388ZM351.766 693.24C350.982 693.24 350.289 693.069 349.686 692.728C349.084 692.381 348.609 691.907 348.262 691.304C347.921 690.701 347.75 690.008 347.75 689.224V685.256C347.75 684.472 347.921 683.779 348.262 683.176C348.609 682.573 349.084 682.101 349.686 681.76C350.289 681.413 350.982 681.24 351.766 681.24C352.55 681.24 353.244 681.413 353.846 681.76C354.449 682.101 354.921 682.573 355.262 683.176C355.609 683.779 355.782 684.472 355.782 685.256V689.224C355.782 690.008 355.609 690.701 355.262 691.304C354.921 691.907 354.449 692.381 353.846 692.728C353.244 693.069 352.55 693.24 351.766 693.24ZM351.766 691.64C352.193 691.64 352.58 691.539 352.926 691.336C353.278 691.128 353.558 690.851 353.766 690.504C353.974 690.152 354.078 689.76 354.078 689.328V685.136C354.078 684.709 353.974 684.323 353.766 683.976C353.558 683.624 353.278 683.347 352.926 683.144C352.58 682.936 352.193 682.832 351.766 682.832C351.34 682.832 350.95 682.936 350.598 683.144C350.252 683.347 349.974 683.624 349.766 683.976C349.558 684.323 349.454 684.709 349.454 685.136V689.328C349.454 689.76 349.558 690.152 349.766 690.504C349.974 690.851 350.252 691.128 350.598 691.336C350.95 691.539 351.34 691.64 351.766 691.64ZM361.792 693.24C361.008 693.24 360.315 693.069 359.712 692.728C359.109 692.381 358.635 691.907 358.288 691.304C357.947 690.701 357.776 690.008 357.776 689.224V685.256C357.776 684.472 357.947 683.779 358.288 683.176C358.635 682.573 359.109 682.101 359.712 681.76C360.315 681.413 361.008 681.24 361.792 681.24C362.576 681.24 363.269 681.413 363.872 681.76C364.475 682.101 364.947 682.573 365.288 683.176C365.635 683.779 365.808 684.472 365.808 685.256V689.224C365.808 690.008 365.635 690.701 365.288 691.304C364.947 691.907 364.475 692.381 363.872 692.728C363.269 693.069 362.576 693.24 361.792 693.24ZM361.792 691.64C362.219 691.64 362.605 691.539 362.952 691.336C363.304 691.128 363.584 690.851 363.792 690.504C364 690.152 364.104 689.76 364.104 689.328V685.136C364.104 684.709 364 684.323 363.792 683.976C363.584 683.624 363.304 683.347 362.952 683.144C362.605 682.936 362.219 682.832 361.792 682.832C361.365 682.832 360.976 682.936 360.624 683.144C360.277 683.347 360 683.624 359.792 683.976C359.584 684.323 359.48 684.709 359.48 685.136V689.328C359.48 689.76 359.584 690.152 359.792 690.504C360 690.851 360.277 691.128 360.624 691.336C360.976 691.539 361.365 691.64 361.792 691.64Z" fill="#5E6367"/>
<path d="M547 665L547 -1.46031e-06" stroke="#2D2E35"/>
<path d="M502.441 693.24C501.657 693.24 500.964 693.069 500.361 692.728C499.758 692.381 499.284 691.907 498.937 691.304C498.596 690.701 498.425 690.008 498.425 689.224V685.256C498.425 684.472 498.596 683.779 498.937 683.176C499.284 682.573 499.758 682.101 500.361 681.76C500.964 681.413 501.657 681.24 502.441 681.24C503.225 681.24 503.918 681.413 504.521 681.76C505.124 682.101 505.596 682.573 505.937 683.176C506.284 683.779 506.457 684.472 506.457 685.256V689.224C506.457 690.008 506.284 690.701 505.937 691.304C505.596 691.907 505.124 692.381 504.521 692.728C503.918 693.069 503.225 693.24 502.441 693.24ZM502.441 691.64C502.868 691.64 503.254 691.539 503.601 691.336C503.953 691.128 504.233 690.851 504.441 690.504C504.649 690.152 504.753 689.76 504.753 689.328V685.136C504.753 684.709 504.649 684.323 504.441 683.976C504.233 683.624 503.953 683.347 503.601 683.144C503.254 682.936 502.868 682.832 502.441 682.832C502.014 682.832 501.625 682.936 501.273 683.144C500.926 683.347 500.649 683.624 500.441 683.976C500.233 684.323 500.129 684.709 500.129 685.136V689.328C500.129 689.76 500.233 690.152 500.441 690.504C500.649 690.851 500.926 691.128 501.273 691.336C501.625 691.539 502.014 691.64 502.441 691.64ZM513.331 693V690.992H508.131V689.408L511.875 681.48H513.787L510.043 689.408H513.331V686.288H515.027V689.408H516.171V690.992H515.027V693H513.331ZM517.691 687.904V686.56H522.491V687.904H517.691ZM528.346 693.24C527.562 693.24 526.869 693.069 526.266 692.728C525.663 692.381 525.189 691.907 524.842 691.304C524.501 690.701 524.33 690.008 524.33 689.224V685.256C524.33 684.472 524.501 683.779 524.842 683.176C525.189 682.573 525.663 682.101 526.266 681.76C526.869 681.413 527.562 681.24 528.346 681.24C529.13 681.24 529.823 681.413 530.426 681.76C531.029 682.101 531.501 682.573 531.842 683.176C532.189 683.779 532.362 684.472 532.362 685.256V689.224C532.362 690.008 532.189 690.701 531.842 691.304C531.501 691.907 531.029 692.381 530.426 692.728C529.823 693.069 529.13 693.24 528.346 693.24ZM528.346 691.64C528.773 691.64 529.159 691.539 529.506 691.336C529.858 691.128 530.138 690.851 530.346 690.504C530.554 690.152 530.658 689.76 530.658 689.328V685.136C530.658 684.709 530.554 684.323 530.346 683.976C530.138 683.624 529.858 683.347 529.506 683.144C529.159 682.936 528.773 682.832 528.346 682.832C527.919 682.832 527.53 682.936 527.178 683.144C526.831 683.347 526.554 683.624 526.346 683.976C526.138 684.323 526.034 684.709 526.034 685.136V689.328C526.034 689.76 526.138 690.152 526.346 690.504C526.554 690.851 526.831 691.128 527.178 691.336C527.53 691.539 527.919 691.64 528.346 691.64ZM534.956 693L539.004 683.072H533.876V681.48H540.804V683.072L536.764 693H534.956ZM559.314 693V683.32L557.146 684.64V682.776L559.314 681.48H561.018V693H559.314ZM567.776 693.24C567.03 693.24 566.358 693.064 565.76 692.712C565.163 692.355 564.688 691.867 564.336 691.248C563.99 690.629 563.816 689.925 563.816 689.136V685.464C563.816 684.627 563.99 683.891 564.336 683.256C564.688 682.621 565.174 682.128 565.792 681.776C566.416 681.424 567.134 681.248 567.944 681.248C568.552 681.248 569.123 681.363 569.656 681.592C570.19 681.821 570.651 682.163 571.04 682.616L569.816 683.76C569.598 683.477 569.323 683.253 568.992 683.088C568.667 682.917 568.318 682.832 567.944 682.832C567.464 682.832 567.043 682.947 566.68 683.176C566.318 683.4 566.032 683.696 565.824 684.064C565.622 684.432 565.52 684.827 565.52 685.248V687.36L565.192 686.992C565.523 686.56 565.934 686.219 566.424 685.968C566.915 685.717 567.44 685.592 568 685.592C568.715 685.592 569.352 685.76 569.912 686.096C570.478 686.427 570.92 686.877 571.24 687.448C571.566 688.019 571.728 688.661 571.728 689.376C571.728 690.096 571.547 690.749 571.184 691.336C570.827 691.917 570.347 692.381 569.744 692.728C569.147 693.069 568.491 693.24 567.776 693.24ZM567.776 691.632C568.192 691.632 568.571 691.531 568.912 691.328C569.254 691.125 569.526 690.853 569.728 690.512C569.931 690.171 570.032 689.792 570.032 689.376C570.032 688.96 569.931 688.581 569.728 688.24C569.531 687.899 569.262 687.627 568.92 687.424C568.579 687.221 568.2 687.12 567.784 687.12C567.368 687.12 566.987 687.221 566.64 687.424C566.299 687.627 566.027 687.899 565.824 688.24C565.622 688.581 565.52 688.96 565.52 689.376C565.52 689.787 565.622 690.163 565.824 690.504C566.027 690.845 566.299 691.12 566.64 691.328C566.982 691.531 567.36 691.632 567.776 691.632ZM574.154 691.88V690.112H575.922V691.88H574.154ZM574.162 687.248V685.48H575.93V687.248H574.162ZM582.54 693.24C581.756 693.24 581.062 693.069 580.46 692.728C579.857 692.381 579.382 691.907 579.036 691.304C578.694 690.701 578.524 690.008 578.524 689.224V685.256C578.524 684.472 578.694 683.779 579.036 683.176C579.382 682.573 579.857 682.101 580.46 681.76C581.062 681.413 581.756 681.24 582.54 681.24C583.324 681.24 584.017 681.413 584.62 681.76C585.222 682.101 585.694 682.573 586.036 683.176C586.382 683.779 586.556 684.472 586.556 685.256V689.224C586.556 690.008 586.382 690.701 586.036 691.304C585.694 691.907 585.222 692.381 584.62 692.728C584.017 693.069 583.324 693.24 582.54 693.24ZM582.54 691.64C582.966 691.64 583.353 691.539 583.7 691.336C584.052 691.128 584.332 690.851 584.54 690.504C584.748 690.152 584.852 689.76 584.852 689.328V685.136C584.852 684.709 584.748 684.323 584.54 683.976C584.332 683.624 584.052 683.347 583.7 683.144C583.353 682.936 582.966 682.832 582.54 682.832C582.113 682.832 581.724 682.936 581.372 683.144C581.025 683.347 580.748 683.624 580.54 683.976C580.332 684.323 580.228 684.709 580.228 685.136V689.328C580.228 689.76 580.332 690.152 580.54 690.504C580.748 690.851 581.025 691.128 581.372 691.336C581.724 691.539 582.113 691.64 582.54 691.64ZM592.565 693.24C591.781 693.24 591.088 693.069 590.485 692.728C589.883 692.381 589.408 691.907 589.061 691.304C588.72 690.701 588.549 690.008 588.549 689.224V685.256C588.549 684.472 588.72 683.779 589.061 683.176C589.408 682.573 589.883 682.101 590.485 681.76C591.088 681.413 591.781 681.24 592.565 681.24C593.349 681.24 594.043 681.413 594.645 681.76C595.248 682.101 595.72 682.573 596.061 683.176C596.408 683.779 596.581 684.472 596.581 685.256V689.224C596.581 690.008 596.408 690.701 596.061 691.304C595.72 691.907 595.248 692.381 594.645 692.728C594.043 693.069 593.349 693.24 592.565 693.24ZM592.565 691.64C592.992 691.64 593.379 691.539 593.725 691.336C594.077 691.128 594.357 690.851 594.565 690.504C594.773 690.152 594.877 689.76 594.877 689.328V685.136C594.877 684.709 594.773 684.323 594.565 683.976C594.357 683.624 594.077 683.347 593.725 683.144C593.379 682.936 592.992 682.832 592.565 682.832C592.139 682.832 591.749 682.936 591.397 683.144C591.051 683.347 590.773 683.624 590.565 683.976C590.357 684.323 590.253 684.709 590.253 685.136V689.328C590.253 689.76 590.357 690.152 590.565 690.504C590.773 690.851 591.051 691.128 591.397 691.336C591.749 691.539 592.139 691.64 592.565 691.64Z" fill="#5E6367"/>
<path d="M777 665L777 -1.46031e-06" stroke="#2D2E35"/>
<path d="M730.457 693.24C729.673 693.24 728.979 693.069 728.377 692.728C727.774 692.381 727.299 691.907 726.953 691.304C726.611 690.701 726.441 690.008 726.441 689.224V685.256C726.441 684.472 726.611 683.779 726.953 683.176C727.299 682.573 727.774 682.101 728.377 681.76C728.979 681.413 729.673 681.24 730.457 681.24C731.241 681.24 731.934 681.413 732.537 681.76C733.139 682.101 733.611 682.573 733.953 683.176C734.299 683.779 734.473 684.472 734.473 685.256V689.224C734.473 690.008 734.299 690.701 733.953 691.304C733.611 691.907 733.139 692.381 732.537 692.728C731.934 693.069 731.241 693.24 730.457 693.24ZM730.457 691.64C730.883 691.64 731.27 691.539 731.617 691.336C731.969 691.128 732.249 690.851 732.457 690.504C732.665 690.152 732.769 689.76 732.769 689.328V685.136C732.769 684.709 732.665 684.323 732.457 683.976C732.249 683.624 731.969 683.347 731.617 683.144C731.27 682.936 730.883 682.832 730.457 682.832C730.03 682.832 729.641 682.936 729.289 683.144C728.942 683.347 728.665 683.624 728.457 683.976C728.249 684.323 728.145 684.709 728.145 685.136V689.328C728.145 689.76 728.249 690.152 728.457 690.504C728.665 690.851 728.942 691.128 729.289 691.336C729.641 691.539 730.03 691.64 730.457 691.64ZM741.346 693V690.992H736.146V689.408L739.89 681.48H741.802L738.058 689.408H741.346V686.288H743.042V689.408H744.186V690.992H743.042V693H741.346ZM745.707 687.904V686.56H750.507V687.904H745.707ZM756.362 693.24C755.578 693.24 754.884 693.069 754.282 692.728C753.679 692.381 753.204 691.907 752.858 691.304C752.516 690.701 752.346 690.008 752.346 689.224V685.256C752.346 684.472 752.516 683.779 752.858 683.176C753.204 682.573 753.679 682.101 754.282 681.76C754.884 681.413 755.578 681.24 756.362 681.24C757.146 681.24 757.839 681.413 758.442 681.76C759.044 682.101 759.516 682.573 759.858 683.176C760.204 683.779 760.378 684.472 760.378 685.256V689.224C760.378 690.008 760.204 690.701 759.858 691.304C759.516 691.907 759.044 692.381 758.442 692.728C757.839 693.069 757.146 693.24 756.362 693.24ZM756.362 691.64C756.788 691.64 757.175 691.539 757.522 691.336C757.874 691.128 758.154 690.851 758.362 690.504C758.57 690.152 758.674 689.76 758.674 689.328V685.136C758.674 684.709 758.57 684.323 758.362 683.976C758.154 683.624 757.874 683.347 757.522 683.144C757.175 682.936 756.788 682.832 756.362 682.832C755.935 682.832 755.546 682.936 755.194 683.144C754.847 683.347 754.57 683.624 754.362 683.976C754.154 684.323 754.05 684.709 754.05 685.136V689.328C754.05 689.76 754.154 690.152 754.362 690.504C754.57 690.851 754.847 691.128 755.194 691.336C755.546 691.539 755.935 691.64 756.362 691.64ZM762.971 693L767.019 683.072H761.891V681.48H768.819V683.072L764.779 693H762.971ZM785.002 692.992L785.01 691.504L790.026 687.008C790.431 686.651 790.706 686.309 790.85 685.984C790.999 685.659 791.074 685.333 791.074 685.008C791.074 684.597 790.983 684.229 790.802 683.904C790.621 683.573 790.37 683.312 790.05 683.12C789.73 682.928 789.362 682.832 788.946 682.832C788.519 682.832 788.138 682.933 787.802 683.136C787.471 683.333 787.213 683.597 787.026 683.928C786.839 684.259 786.749 684.616 786.754 685H785.042C785.042 684.253 785.21 683.6 785.546 683.04C785.887 682.475 786.354 682.035 786.946 681.72C787.538 681.4 788.215 681.24 788.978 681.24C789.703 681.24 790.354 681.405 790.93 681.736C791.506 682.061 791.959 682.509 792.29 683.08C792.626 683.651 792.794 684.301 792.794 685.032C792.794 685.56 792.725 686.008 792.586 686.376C792.447 686.744 792.239 687.085 791.962 687.4C791.685 687.715 791.338 688.056 790.922 688.424L787.05 691.88L786.866 691.4H792.794V692.992H785.002ZM798.489 693.24C797.705 693.24 797.011 693.069 796.409 692.728C795.806 692.381 795.331 691.907 794.985 691.304C794.643 690.701 794.473 690.008 794.473 689.224V685.256C794.473 684.472 794.643 683.779 794.985 683.176C795.331 682.573 795.806 682.101 796.409 681.76C797.011 681.413 797.705 681.24 798.489 681.24C799.273 681.24 799.966 681.413 800.569 681.76C801.171 682.101 801.643 682.573 801.985 683.176C802.331 683.779 802.505 684.472 802.505 685.256V689.224C802.505 690.008 802.331 690.701 801.985 691.304C801.643 691.907 801.171 692.381 800.569 692.728C799.966 693.069 799.273 693.24 798.489 693.24ZM798.489 691.64C798.915 691.64 799.302 691.539 799.649 691.336C800.001 691.128 800.281 690.851 800.489 690.504C800.697 690.152 800.801 689.76 800.801 689.328V685.136C800.801 684.709 800.697 684.323 800.489 683.976C800.281 683.624 800.001 683.347 799.649 683.144C799.302 682.936 798.915 682.832 798.489 682.832C798.062 682.832 797.673 682.936 797.321 683.144C796.974 683.347 796.697 683.624 796.489 683.976C796.281 684.323 796.177 684.709 796.177 685.136V689.328C796.177 689.76 796.281 690.152 796.489 690.504C796.697 690.851 796.974 691.128 797.321 691.336C797.673 691.539 798.062 691.64 798.489 691.64ZM805.138 691.88V690.112H806.906V691.88H805.138ZM805.146 687.248V685.48H806.914V687.248H805.146ZM813.524 693.24C812.74 693.24 812.047 693.069 811.444 692.728C810.841 692.381 810.367 691.907 810.02 691.304C809.679 690.701 809.508 690.008 809.508 689.224V685.256C809.508 684.472 809.679 683.779 810.02 683.176C810.367 682.573 810.841 682.101 811.444 681.76C812.047 681.413 812.74 681.24 813.524 681.24C814.308 681.24 815.001 681.413 815.604 681.76C816.207 682.101 816.679 682.573 817.02 683.176C817.367 683.779 817.54 684.472 817.54 685.256V689.224C817.54 690.008 817.367 690.701 817.02 691.304C816.679 691.907 816.207 692.381 815.604 692.728C815.001 693.069 814.308 693.24 813.524 693.24ZM813.524 691.64C813.951 691.64 814.337 691.539 814.684 691.336C815.036 691.128 815.316 690.851 815.524 690.504C815.732 690.152 815.836 689.76 815.836 689.328V685.136C815.836 684.709 815.732 684.323 815.524 683.976C815.316 683.624 815.036 683.347 814.684 683.144C814.337 682.936 813.951 682.832 813.524 682.832C813.097 682.832 812.708 682.936 812.356 683.144C812.009 683.347 811.732 683.624 811.524 683.976C811.316 684.323 811.212 684.709 811.212 685.136V689.328C811.212 689.76 811.316 690.152 811.524 690.504C811.732 690.851 812.009 691.128 812.356 691.336C812.708 691.539 813.097 691.64 813.524 691.64ZM823.55 693.24C822.766 693.24 822.072 693.069 821.47 692.728C820.867 692.381 820.392 691.907 820.046 691.304C819.704 690.701 819.534 690.008 819.534 689.224V685.256C819.534 684.472 819.704 683.779 820.046 683.176C820.392 682.573 820.867 682.101 821.47 681.76C822.072 681.413 822.766 681.24 823.55 681.24C824.334 681.24 825.027 681.413 825.63 681.76C826.232 682.101 826.704 682.573 827.046 683.176C827.392 683.779 827.566 684.472 827.566 685.256V689.224C827.566 690.008 827.392 690.701 827.046 691.304C826.704 691.907 826.232 692.381 825.63 692.728C825.027 693.069 824.334 693.24 823.55 693.24ZM823.55 691.64C823.976 691.64 824.363 691.539 824.71 691.336C825.062 691.128 825.342 690.851 825.55 690.504C825.758 690.152 825.862 689.76 825.862 689.328V685.136C825.862 684.709 825.758 684.323 825.55 683.976C825.342 683.624 825.062 683.347 824.71 683.144C824.363 682.936 823.976 682.832 823.55 682.832C823.123 682.832 822.734 682.936 822.382 683.144C822.035 683.347 821.758 683.624 821.55 683.976C821.342 684.323 821.238 684.709 821.238 685.136V689.328C821.238 689.76 821.342 690.152 821.55 690.504C821.758 690.851 822.035 691.128 822.382 691.336C822.734 691.539 823.123 691.64 823.55 691.64Z" fill="#5E6367"/>
<path d="M0 161L855 161" stroke="#FFFD54" stroke-dasharray="2 2"/>
<rect x="855.5" y="145.537" width="93" height="31" rx="15.5" fill="#1B1D21" stroke="#FFFD54"/>
<path d="M872.21 166.992L872.218 165.504L877.234 161.008C877.64 160.651 877.914 160.309 878.058 159.984C878.208 159.659 878.282 159.333 878.282 159.008C878.282 158.597 878.192 158.229 878.01 157.904C877.829 157.573 877.578 157.312 877.258 157.12C876.938 156.928 876.57 156.832 876.154 156.832C875.728 156.832 875.346 156.933 875.01 157.136C874.68 157.333 874.421 157.597 874.234 157.928C874.048 158.259 873.957 158.616 873.962 159H872.25C872.25 158.253 872.418 157.6 872.754 157.04C873.096 156.475 873.562 156.035 874.154 155.72C874.746 155.4 875.424 155.24 876.186 155.24C876.912 155.24 877.562 155.405 878.138 155.736C878.714 156.061 879.168 156.509 879.498 157.08C879.834 157.651 880.002 158.301 880.002 159.032C880.002 159.56 879.933 160.008 879.794 160.376C879.656 160.744 879.448 161.085 879.17 161.4C878.893 161.715 878.546 162.056 878.13 162.424L874.258 165.88L874.074 165.4H880.002V166.992H872.21ZM885.425 155.248C886.166 155.248 886.836 155.427 887.433 155.784C888.03 156.136 888.505 156.621 888.857 157.24C889.209 157.859 889.385 158.565 889.385 159.36V163.024C889.385 163.867 889.209 164.605 888.857 165.24C888.51 165.869 888.025 166.36 887.401 166.712C886.782 167.064 886.068 167.24 885.257 167.24C884.649 167.24 884.078 167.125 883.545 166.896C883.012 166.667 882.548 166.325 882.153 165.872L883.385 164.728C883.604 165.011 883.878 165.237 884.209 165.408C884.54 165.579 884.889 165.664 885.257 165.664C885.732 165.664 886.15 165.549 886.513 165.32C886.881 165.091 887.166 164.792 887.369 164.424C887.572 164.056 887.673 163.661 887.673 163.24V161.128L888.009 161.496C887.678 161.928 887.268 162.269 886.777 162.52C886.286 162.771 885.761 162.896 885.201 162.896C884.481 162.896 883.841 162.731 883.281 162.4C882.721 162.069 882.278 161.619 881.953 161.048C881.628 160.477 881.465 159.832 881.465 159.112C881.465 158.392 881.646 157.741 882.009 157.16C882.372 156.579 882.852 156.115 883.449 155.768C884.046 155.421 884.705 155.248 885.425 155.248ZM885.425 156.864C885.009 156.864 884.628 156.965 884.281 157.168C883.94 157.365 883.668 157.635 883.465 157.976C883.262 158.317 883.161 158.696 883.161 159.112C883.161 159.528 883.262 159.909 883.465 160.256C883.668 160.597 883.94 160.869 884.281 161.072C884.622 161.275 885.001 161.376 885.417 161.376C885.833 161.376 886.212 161.275 886.553 161.072C886.894 160.869 887.166 160.597 887.369 160.256C887.572 159.909 887.673 159.528 887.673 159.112C887.673 158.701 887.572 158.325 887.369 157.984C887.172 157.643 886.902 157.371 886.561 157.168C886.22 156.965 885.841 156.864 885.425 156.864ZM891.047 168.912L891.151 168.168C891.38 168.184 891.559 168.141 891.687 168.04C891.815 167.939 891.9 167.797 891.943 167.616C891.985 167.435 891.993 167.229 891.967 167H891.047V165.072H892.815V167.16C892.815 167.789 892.663 168.264 892.359 168.584C892.06 168.904 891.623 169.013 891.047 168.912ZM898.831 167.216C898.261 167.216 897.725 167.109 897.223 166.896C896.722 166.677 896.287 166.368 895.919 165.968C895.557 165.568 895.293 165.096 895.127 164.552L896.743 164.104C896.898 164.6 897.167 164.981 897.551 165.248C897.935 165.509 898.362 165.637 898.831 165.632C899.253 165.627 899.623 165.528 899.943 165.336C900.263 165.144 900.514 164.885 900.695 164.56C900.877 164.229 900.967 163.851 900.967 163.424C900.967 162.784 900.767 162.256 900.367 161.84C899.973 161.424 899.455 161.216 898.815 161.216C898.634 161.216 898.447 161.243 898.255 161.296C898.069 161.349 897.893 161.419 897.727 161.504L896.943 160.184L901.007 156.592L901.183 157.072H895.583V155.48H902.511V157.072L899.135 160.32L899.119 159.776C899.845 159.776 900.474 159.939 901.007 160.264C901.541 160.584 901.951 161.021 902.239 161.576C902.533 162.125 902.679 162.741 902.679 163.424C902.679 164.16 902.506 164.813 902.159 165.384C901.818 165.955 901.357 166.403 900.775 166.728C900.199 167.053 899.551 167.216 898.831 167.216ZM907.747 167.216C907.177 167.216 906.641 167.109 906.139 166.896C905.638 166.677 905.203 166.368 904.835 165.968C904.473 165.568 904.209 165.096 904.043 164.552L905.659 164.104C905.814 164.6 906.083 164.981 906.467 165.248C906.851 165.509 907.278 165.637 907.747 165.632C908.169 165.627 908.539 165.528 908.859 165.336C909.179 165.144 909.43 164.885 909.611 164.56C909.793 164.229 909.883 163.851 909.883 163.424C909.883 162.784 909.683 162.256 909.283 161.84C908.889 161.424 908.371 161.216 907.731 161.216C907.55 161.216 907.363 161.243 907.171 161.296C906.985 161.349 906.809 161.419 906.643 161.504L905.859 160.184L909.923 156.592L910.099 157.072H904.499V155.48H911.427V157.072L908.051 160.32L908.035 159.776C908.761 159.776 909.39 159.939 909.923 160.264C910.457 160.584 910.867 161.021 911.155 161.576C911.449 162.125 911.595 162.741 911.595 163.424C911.595 164.16 911.422 164.813 911.075 165.384C910.734 165.955 910.273 166.403 909.691 166.728C909.115 167.053 908.467 167.216 907.747 167.216ZM914.04 167L918.088 157.072H912.96V155.48H919.888V157.072L915.848 167H914.04ZM921.331 167V165.232H923.099V167H921.331ZM928.798 167.24C928.206 167.24 927.654 167.12 927.142 166.88C926.635 166.635 926.2 166.299 925.838 165.872C925.475 165.44 925.216 164.944 925.062 164.384L926.67 163.952C926.76 164.293 926.915 164.589 927.134 164.84C927.358 165.091 927.619 165.285 927.918 165.424C928.216 165.557 928.526 165.624 928.846 165.624C929.267 165.624 929.648 165.523 929.99 165.32C930.336 165.117 930.608 164.845 930.806 164.504C931.008 164.163 931.11 163.787 931.11 163.376C931.11 162.955 931.006 162.573 930.798 162.232C930.595 161.891 930.32 161.621 929.974 161.424C929.632 161.221 929.256 161.12 928.846 161.12C928.376 161.12 927.979 161.213 927.654 161.4C927.328 161.587 927.075 161.803 926.894 162.048L925.438 161.536L925.79 155.48H932.006V157.056H926.646L927.326 156.424L927.046 160.96L926.718 160.536C927.022 160.232 927.384 160 927.806 159.84C928.227 159.68 928.646 159.6 929.062 159.6C929.776 159.6 930.414 159.765 930.974 160.096C931.539 160.427 931.984 160.877 932.31 161.448C932.635 162.013 932.798 162.656 932.798 163.376C932.798 164.091 932.614 164.741 932.246 165.328C931.878 165.909 931.39 166.373 930.782 166.72C930.174 167.067 929.512 167.24 928.798 167.24Z" fill="#FFFD54"/>
</svg>
