<svg width="147" height="37" viewBox="0 0 147 37" fill="none" xmlns="http://www.w3.org/2000/svg">
<g clip-path="url(#clip0_211_716)">
<path d="M42.2876 36.6167L42.2862 36.6141H42.2872L34.3752 22.9169L34.3593 22.8929L34.3578 22.8905L34.359 22.8899C34.3014 22.7899 34.2367 22.6955 34.1769 22.5973C34.1051 22.4789 34.0369 22.3566 33.9581 22.243C33.9477 22.2256 33.9351 22.2092 33.9243 22.1918C33.8669 22.1038 33.8103 22.0158 33.7513 21.9294C33.7425 21.9166 33.7343 21.9024 33.7253 21.89C33.7035 21.8585 33.6779 21.8281 33.6559 21.7965C33.121 21.0278 32.5162 20.3101 31.8492 19.6526L31.8236 19.627C31.7812 19.5866 31.7374 19.5494 31.695 19.509C31.5093 19.3314 31.3223 19.1555 31.1283 18.9877L31.1255 18.9851C31.1129 18.9743 31.0995 18.9647 31.0869 18.9539C30.6118 18.545 30.112 18.1657 29.5904 17.8181L29.5608 17.7975C29.3858 17.6873 29.213 17.5793 29.0359 17.4735C28.5874 17.2021 28.1253 16.9537 27.6515 16.7294C27.6079 16.7088 27.5663 16.686 27.5227 16.6662L27.5263 16.6726C25.5271 15.7409 23.348 15.2584 21.1423 15.2589C18.9366 15.2593 16.7578 15.7428 14.759 16.6754L14.7644 16.6662L21.1434 5.62479L26.5437 14.9651C28.2562 15.5661 29.8583 16.4444 31.2859 17.5649L21.1434 -0.00012207L7.56674 23.5107C7.66404 23.7828 7.7848 24.046 7.92767 24.2972L7.9437 24.3212C8.32964 24.9874 8.76978 25.6207 9.25967 26.2147C10.4165 27.6564 11.8266 28.8752 13.4206 29.8113L13.417 29.8121C13.4088 29.8201 13.4088 29.8121 13.4088 29.8121C12.8471 29.9163 12.2934 30.0287 11.7399 30.157C9.7811 30.594 7.85665 31.1729 5.98181 31.889L8.6098 27.3383C7.96223 26.579 7.38485 25.7625 6.8847 24.8989L6.82852 24.7947L0 36.614H0.00201416L0.000610352 36.6166H2.37561C3.06569 36.2475 3.76398 35.9023 4.46207 35.5814C4.63844 35.493 4.815 35.413 4.99957 35.3406C6.3146 34.7508 7.66217 34.2365 9.03574 33.8C11.2848 33.083 13.5946 32.5727 15.9364 32.2755H15.9444C17.6652 32.0434 19.3997 31.9281 21.136 31.9304H21.144C21.2984 31.9304 21.451 31.9194 21.6045 31.9148C21.7545 31.9102 21.9053 31.9086 22.0544 31.8994C22.2236 31.8892 22.3912 31.8718 22.5591 31.856C22.7049 31.8422 22.8507 31.8292 22.9959 31.8112C23.1619 31.791 23.3266 31.766 23.4912 31.74C23.6374 31.7172 23.783 31.6923 23.9281 31.6654C24.0885 31.6354 24.2481 31.6038 24.4069 31.5688C24.5586 31.5354 24.7089 31.4978 24.8592 31.46C25.0084 31.422 25.1579 31.3855 25.3059 31.343C25.4851 31.292 25.6619 31.234 25.8386 31.1767C25.954 31.1391 26.0706 31.1057 26.185 31.0653C26.4711 30.9645 26.7535 30.8543 27.0327 30.7371C27.1122 30.7035 27.19 30.6658 27.269 30.631C27.4842 30.5362 27.6977 30.4379 27.9079 30.3336C27.9839 30.2956 28.0587 30.2556 28.1339 30.2164C28.3549 30.102 28.573 29.9825 28.7882 29.8577C28.8156 29.8417 28.8442 29.8281 28.8714 29.8121L28.8668 29.8113C30.4607 28.8752 31.8705 27.6564 33.0273 26.2147L33.0353 26.2228L33.6772 27.3303L36.3092 31.8958L36.3108 31.8987L36.3098 31.8983C34.4353 31.1837 32.5128 30.6018 30.5565 30.157C29.2555 31.0569 27.8348 31.77 26.3358 32.2755C28.6776 32.5726 30.9875 33.083 33.2365 33.8C34.6154 34.2364 35.9683 34.7507 37.2888 35.3406C37.3448 35.3666 37.4012 35.3912 37.4574 35.4164C37.6096 35.4848 37.7618 35.5509 37.9142 35.6271C38.0099 35.6711 38.1057 35.7197 38.2015 35.7649C38.7714 36.0369 39.3415 36.3142 39.9046 36.6166L42.2876 36.6167ZM27.2974 19.7104C23.2545 18.7288 19.0355 18.7289 14.9928 19.7108C16.8658 18.6383 18.9867 18.0741 21.145 18.0741C23.3034 18.074 25.4242 18.6381 27.2974 19.7104ZM21.1434 29.1115C19.2405 29.1087 17.3634 28.6706 15.6558 27.8309C13.9482 26.9911 12.4553 25.7719 11.2914 24.2665C13.9566 22.7108 16.9774 21.8671 20.063 21.8167C20.2937 22.126 20.4188 22.5013 20.4199 22.8871C20.4205 23.3483 20.2462 23.7925 19.9322 24.1302C19.6182 24.4679 19.1878 24.674 18.7278 24.7069C18.2678 24.7398 17.8125 24.597 17.4536 24.3074C17.0948 24.0177 16.8591 23.6028 16.7941 23.1463C16.778 23.294 16.7704 23.4424 16.7715 23.591C16.7697 24.2277 16.9071 24.857 17.1741 25.435C17.441 26.013 17.8311 26.5257 18.3169 26.9372C18.8027 27.3486 19.3726 27.649 19.9867 27.8171C20.6008 27.9853 21.2442 28.0172 21.8719 27.9106C22.4995 27.8041 23.0963 27.5616 23.6205 27.2002C24.1447 26.8389 24.5835 26.3673 24.9064 25.8185C25.2292 25.2698 25.4282 24.6571 25.4895 24.0234C25.5507 23.3897 25.4727 22.7502 25.2609 22.1498C27.295 22.4726 29.2455 23.193 31.001 24.2699C29.8359 25.7752 28.3419 26.9941 26.6334 27.8332C24.9248 28.6724 23.0469 29.1096 21.1434 29.1115Z" fill="#39D885"/>
<path d="M59.2856 10.4012H67.2532C68.551 10.3223 69.8312 10.7335 70.8404 11.5534C71.2851 11.9866 71.6303 12.5115 71.8518 13.0915C72.0734 13.6715 72.166 14.2928 72.1234 14.9122C72.1339 15.6588 71.9386 16.3939 71.5591 17.0369C71.2029 17.6499 70.6837 18.1521 70.0593 18.4879C70.8774 18.7257 71.5866 19.2419 72.0644 19.9472C72.5422 20.6525 72.7586 21.5026 72.6761 22.3505C72.6988 23.2564 72.466 24.1505 72.0042 24.9303C71.5695 25.6459 70.9413 26.2241 70.1921 26.598C69.4062 26.9883 68.5387 27.1857 67.6613 27.1739H59.2856V10.4012ZM66.7726 17.3844C67.3764 17.4142 67.9687 17.2124 68.4286 16.8201C68.6495 16.5955 68.8195 16.3259 68.9271 16.0297C69.0346 15.7335 69.0771 15.4177 69.0517 15.1036C69.0909 14.7754 69.0563 14.4426 68.9506 14.1294C68.8448 13.8162 68.6705 13.5306 68.4404 13.2933C67.9094 12.9289 67.2706 12.7555 66.6283 12.8012H62.3086V17.3844H66.7726ZM66.964 24.7738C67.6565 24.8182 68.3442 24.633 68.9207 24.2467C69.1717 24.0091 69.364 23.7164 69.4826 23.3917C69.6012 23.0671 69.6428 22.7193 69.6042 22.3758C69.6375 22.0184 69.5901 21.658 69.4654 21.3214C69.3407 20.9847 69.1419 20.6804 68.8837 20.4309C68.2793 19.9933 67.5406 19.7812 66.7961 19.8314H62.3086V24.7738H66.964Z" fill="white"/>
<path d="M75.4471 31.8411C75.0837 31.8056 74.7254 31.7296 74.3789 31.6145V29.3102C74.8554 29.4833 75.3603 29.5648 75.8671 29.5504C76.3575 29.5875 76.8443 29.4421 77.2341 29.1423C77.5959 28.7779 77.8674 28.3339 78.0267 27.8457L78.4819 26.6467L73.5159 15.6562H76.5622L80.1144 24.0553L83.4499 15.6562H86.4728L81.4346 28.2068C81.0518 29.2798 80.413 30.2431 79.5735 31.0132C78.7743 31.646 77.7739 31.9697 76.7555 31.925C76.3181 31.924 75.8811 31.896 75.4471 31.8411Z" fill="white"/>
<path d="M96.787 17.9606H95.0842V15.6563H96.787V13.6645C96.7474 13.068 96.8386 12.47 97.0541 11.9125C97.2697 11.3549 97.6045 10.8511 98.035 10.4364C98.9503 9.66292 100.124 9.26458 101.321 9.32138C102.009 9.30708 102.693 9.42103 103.339 9.65737V12.1042C102.892 11.91 102.41 11.8121 101.923 11.817C101.349 11.77 100.778 11.9417 100.326 12.2975C100.135 12.5119 99.9914 12.7631 99.9027 13.0356C99.814 13.3081 99.7825 13.596 99.8101 13.8813V15.6564H102.618V17.9606H99.8101V27.1739H96.787V17.9606Z" fill="white"/>
<path d="M104.058 26.4416C103.625 26.0873 103.281 25.6375 103.052 25.1275C102.823 24.6175 102.715 24.0613 102.737 23.5027C102.708 22.9412 102.804 22.3802 103.02 21.8611C103.236 21.342 103.566 20.8779 103.985 20.5032C104.983 19.7293 106.228 19.3454 107.489 19.4233C108.801 19.3888 110.099 19.6949 111.258 20.3118V19.9992C111.287 19.6639 111.233 19.3265 111.101 19.0169C110.969 18.7074 110.762 18.4352 110.5 18.2243C109.763 17.7964 108.914 17.6035 108.065 17.6716C107.364 17.6714 106.665 17.74 105.977 17.8766C105.35 17.9938 104.738 18.1825 104.153 18.4391V16.0645C104.771 15.7999 105.42 15.6142 106.085 15.5118C106.857 15.3721 107.641 15.3002 108.426 15.297C110.013 15.1695 111.591 15.6257 112.865 16.58C113.351 17.0323 113.732 17.5859 113.981 18.2018C114.23 18.8176 114.34 19.4806 114.304 20.1438V27.1739H111.449V26.0473C110.962 26.5204 110.387 26.8951 109.758 27.1505C109.018 27.4254 108.231 27.556 107.442 27.5353C106.219 27.5858 105.019 27.198 104.058 26.4416ZM110.01 24.9302C110.522 24.6938 110.955 24.3148 111.258 23.8386V22.5672C110.374 21.9421 109.315 21.6145 108.233 21.632C106.618 21.632 105.81 22.2555 105.809 23.5027C105.792 23.7634 105.838 24.0245 105.945 24.2631C106.051 24.5017 106.215 24.7106 106.42 24.8717C106.945 25.2073 107.564 25.3666 108.186 25.3266C108.816 25.3353 109.44 25.1998 110.01 24.9302Z" fill="white"/>
<path d="M117.063 9.44043H120.086V27.1739H117.063L117.063 9.44043Z" fill="white"/>
<path d="M122.847 26.8263C122.731 26.7176 122.639 26.5856 122.576 26.4389C122.514 26.2923 122.483 26.1342 122.486 25.9749C122.483 25.8099 122.513 25.646 122.575 25.4932C122.637 25.3404 122.73 25.202 122.847 25.0864C122.961 24.9725 123.095 24.8821 123.243 24.8205C123.391 24.7588 123.55 24.7271 123.711 24.7271C123.871 24.7271 124.03 24.7588 124.178 24.8205C124.326 24.8821 124.461 24.9725 124.574 25.0864C124.691 25.202 124.784 25.3404 124.846 25.4932C124.908 25.646 124.939 25.8099 124.935 25.9749C124.938 26.1342 124.907 26.2923 124.845 26.4389C124.782 26.5856 124.69 26.7176 124.574 26.8263C124.342 27.0493 124.032 27.1739 123.711 27.1739C123.389 27.1739 123.079 27.0493 122.847 26.8263Z" fill="#39D885"/>
<path d="M127.825 13.1605C127.664 13.0058 127.538 12.8192 127.453 12.6128C127.368 12.4064 127.327 12.1846 127.333 11.9615C127.33 11.7369 127.372 11.5139 127.456 11.3058C127.54 11.0976 127.666 10.9085 127.825 10.7496C127.983 10.5906 128.172 10.4651 128.38 10.3805C128.588 10.2959 128.811 10.2538 129.036 10.2568C129.263 10.2523 129.488 10.2936 129.698 10.3782C129.909 10.4627 130.1 10.5888 130.26 10.7489C130.424 10.905 130.553 11.0934 130.64 11.3022C130.727 11.511 130.769 11.7355 130.764 11.9615C130.769 12.1856 130.727 12.4083 130.641 12.6149C130.554 12.8216 130.424 13.0075 130.26 13.1605C130.098 13.3175 129.906 13.4408 129.696 13.5233C129.486 13.6058 129.262 13.6458 129.036 13.641C128.812 13.6463 128.59 13.6065 128.382 13.5239C128.174 13.4414 127.984 13.3178 127.825 13.1605ZM127.501 15.6563H130.573V27.1739H127.501V15.6563Z" fill="white"/>
<path d="M136.369 26.8029C135.389 26.3482 134.566 25.6127 134.004 24.6898C133.455 23.6944 133.166 22.5766 133.164 21.4399C133.162 20.3032 133.447 19.1844 133.992 18.187C134.554 17.2588 135.376 16.5164 136.357 16.0526C137.473 15.5544 138.681 15.2969 139.902 15.2969C141.124 15.2969 142.332 15.5544 143.448 16.0526C144.425 16.5215 145.245 17.2627 145.811 18.187C146.386 19.1638 146.677 20.2819 146.65 21.4151C146.681 22.5635 146.39 23.6977 145.811 24.6898C145.249 25.6122 144.427 26.3475 143.448 26.8029C142.33 27.2859 141.126 27.5351 139.908 27.5351C138.691 27.5351 137.486 27.2859 136.369 26.8029ZM142.547 24.1157C143.182 23.3501 143.53 22.3877 143.532 21.3936C143.534 20.3995 143.19 19.4357 142.559 18.6674C141.825 18.0253 140.883 17.6715 139.907 17.6715C138.932 17.6715 137.989 18.0253 137.255 18.6674C136.625 19.4362 136.282 20.4 136.285 21.394C136.287 22.3879 136.635 23.3501 137.269 24.1157C137.984 24.7857 138.928 25.1585 139.908 25.1585C140.888 25.1585 141.832 24.7857 142.547 24.1157Z" fill="white"/>
<path d="M52.96 31.7155H57.9991V29.6956H54.9794V7.87927H57.9991V5.85962H52.96V31.7155ZM86.1946 5.85962V7.87927H89.2139V29.6956H86.1946V31.7155H91.2336V5.85962H86.1946Z" fill="#39D885"/>
</g>
<defs>
<clipPath id="clip0_211_716">
<rect width="146.65" height="36.6167" fill="white"/>
</clipPath>
</defs>
</svg>
