<svg width="32" height="32" viewBox="0 0 32 32" fill="none" xmlns="http://www.w3.org/2000/svg">
<path d="M21.5867 2.66669H10.4134C5.56008 2.66669 2.66675 5.56002 2.66675 10.4134V21.5867C2.66675 26.44 5.56008 29.3334 10.4134 29.3334H21.5867C26.4401 29.3334 29.3334 26.44 29.3334 21.5867V10.4134C29.3334 5.56002 26.4401 2.66669 21.5867 2.66669ZM13.2934 19.8667L10.2934 22.8667C10.0934 23.0667 9.84008 23.16 9.58675 23.16C9.33341 23.16 9.06675 23.0667 8.88008 22.8667L7.88008 21.8667C7.48008 21.48 7.48008 20.84 7.88008 20.4534C8.26675 20.0667 8.89341 20.0667 9.29341 20.4534L9.58675 20.7467L11.8801 18.4534C12.2667 18.0667 12.8934 18.0667 13.2934 18.4534C13.6801 18.84 13.6801 19.48 13.2934 19.8667ZM13.2934 10.5334L10.2934 13.5334C10.0934 13.7334 9.84008 13.8267 9.58675 13.8267C9.33341 13.8267 9.06675 13.7334 8.88008 13.5334L7.88008 12.5334C7.48008 12.1467 7.48008 11.5067 7.88008 11.12C8.26675 10.7334 8.89341 10.7334 9.29341 11.12L9.58675 11.4134L11.8801 9.12002C12.2667 8.73335 12.8934 8.73335 13.2934 9.12002C13.6801 9.50669 13.6801 10.1467 13.2934 10.5334ZM23.4134 22.16H16.4134C15.8667 22.16 15.4134 21.7067 15.4134 21.16C15.4134 20.6134 15.8667 20.16 16.4134 20.16H23.4134C23.9734 20.16 24.4134 20.6134 24.4134 21.16C24.4134 21.7067 23.9734 22.16 23.4134 22.16ZM23.4134 12.8267H16.4134C15.8667 12.8267 15.4134 12.3734 15.4134 11.8267C15.4134 11.28 15.8667 10.8267 16.4134 10.8267H23.4134C23.9734 10.8267 24.4134 11.28 24.4134 11.8267C24.4134 12.3734 23.9734 12.8267 23.4134 12.8267Z" fill="#29CC74"/>
</svg>
