<svg width="32" height="32" viewBox="0 0 32 32" fill="none" xmlns="http://www.w3.org/2000/svg">
<g clip-path="url(#clip0_224_2340)">
<path d="M16.2134 14.4933C16.0801 14.48 15.9201 14.48 15.7734 14.4933C12.6001 14.3867 10.0801 11.7867 10.0801 8.58667C10.0801 5.32 12.7201 2.66667 16.0001 2.66667C19.2667 2.66667 21.9201 5.32 21.9201 8.58667C21.9067 11.7867 19.3867 14.3867 16.2134 14.4933Z" stroke="#5E6367" stroke-width="1.5" stroke-linecap="round" stroke-linejoin="round"/>
<path d="M9.54671 19.4133C6.32004 21.5733 6.32004 25.0933 9.54671 27.24C13.2134 29.6933 19.2267 29.6933 22.8934 27.24C26.12 25.08 26.12 21.56 22.8934 19.4133C19.24 16.9733 13.2267 16.9733 9.54671 19.4133Z" stroke="#5E6367" stroke-width="1.5" stroke-linecap="round" stroke-linejoin="round"/>
</g>
<defs>
<clipPath id="clip0_224_2340">
<rect width="32" height="32" fill="white"/>
</clipPath>
</defs>
</svg>
