<svg width="32" height="32" viewBox="0 0 32 32" fill="none" xmlns="http://www.w3.org/2000/svg">
<path d="M15 24.3334H12C10.5333 24.3334 9.33333 25.5334 9.33333 27V27.3334H8C7.45333 27.3334 7 27.7867 7 28.3334C7 28.88 7.45333 29.3334 8 29.3334H24C24.5467 29.3334 25 28.88 25 28.3334C25 27.7867 24.5467 27.3334 24 27.3334H22.6667V27C22.6667 25.5334 21.4667 24.3334 20 24.3334H17V21.28C16.6667 21.32 16.3333 21.3334 16 21.3334C15.6667 21.3334 15.3333 21.32 15 21.28V24.3334Z" fill="#29CC74"/>
<path d="M24.64 15.52C25.52 15.1867 26.2934 14.64 26.9067 14.0267C28.1467 12.6534 28.96 11.0134 28.96 9.09335C28.96 7.17335 27.4534 5.66669 25.5334 5.66669H24.7867C23.92 3.89335 22.1067 2.66669 20 2.66669H12C9.89337 2.66669 8.08004 3.89335 7.21337 5.66669H6.46671C4.54671 5.66669 3.04004 7.17335 3.04004 9.09335C3.04004 11.0134 3.85337 12.6534 5.09337 14.0267C5.70671 14.64 6.48004 15.1867 7.36004 15.52C8.74671 18.9334 12.08 21.3334 16 21.3334C19.92 21.3334 23.2534 18.9334 24.64 15.52ZM19.7867 11.2667L18.96 12.28C18.8267 12.4267 18.7334 12.72 18.7467 12.92L18.8267 14.2267C18.88 15.0267 18.3067 15.44 17.56 15.1467L16.3467 14.6667C16.16 14.6 15.84 14.6 15.6534 14.6667L14.44 15.1467C13.6934 15.44 13.12 15.0267 13.1734 14.2267L13.2534 12.92C13.2667 12.72 13.1734 12.4267 13.04 12.28L12.2134 11.2667C11.6934 10.6534 11.92 9.97335 12.6934 9.77335L13.96 9.45335C14.16 9.40002 14.4 9.21335 14.5067 9.04002L15.2134 7.94669C15.6534 7.26669 16.3467 7.26669 16.7867 7.94669L17.4934 9.04002C17.6 9.21335 17.84 9.40002 18.04 9.45335L19.3067 9.77335C20.08 9.97335 20.3067 10.6534 19.7867 11.2667Z" fill="#29CC74"/>
</svg>
