<svg width="20" height="20" viewBox="0 0 20 20" fill="none" xmlns="http://www.w3.org/2000/svg">
<path d="M4.16667 8.33334C3.25 8.33334 2.5 9.08334 2.5 10C2.5 10.9167 3.25 11.6667 4.16667 11.6667C5.08333 11.6667 5.83333 10.9167 5.83333 10C5.83333 9.08334 5.08333 8.33334 4.16667 8.33334Z" stroke="#5E6367" stroke-width="1.5"/>
<path d="M15.8346 8.33334C14.918 8.33334 14.168 9.08334 14.168 10C14.168 10.9167 14.918 11.6667 15.8346 11.6667C16.7513 11.6667 17.5013 10.9167 17.5013 10C17.5013 9.08334 16.7513 8.33334 15.8346 8.33334Z" stroke="#5E6367" stroke-width="1.5"/>
<path d="M9.9987 8.33334C9.08203 8.33334 8.33203 9.08334 8.33203 10C8.33203 10.9167 9.08203 11.6667 9.9987 11.6667C10.9154 11.6667 11.6654 10.9167 11.6654 10C11.6654 9.08334 10.9154 8.33334 9.9987 8.33334Z" stroke="#5E6367" stroke-width="1.5"/>
</svg>
