<svg width="22" height="22" viewBox="0 0 22 22" fill="none" xmlns="http://www.w3.org/2000/svg">
<path d="M3.53436 16.6005L4.20518 16.9359L4.41266 16.521L4.134 16.1501L3.53436 16.6005ZM5.40076 18.4669L5.85123 17.8673L5.4803 17.5886L5.06535 17.7961L5.40076 18.4669ZM1.66797 20.3333L0.997148 19.9979C0.852778 20.2867 0.909368 20.6354 1.13764 20.8637C1.36591 21.0919 1.71464 21.1485 2.00338 21.0041L1.66797 20.3333ZM7.0013 6.99999L6.58528 6.37595C6.37663 6.51505 6.2513 6.74922 6.2513 6.99999H7.0013ZM15.0013 15V15.75C15.2521 15.75 15.4862 15.6247 15.6253 15.416L15.0013 15ZM9.34031 7.70071L10.0801 7.57741L9.34031 7.70071ZM9.52624 8.81627L8.78644 8.93957L9.52624 8.81627ZM8.95065 10.1449L9.36667 10.7689L8.95065 10.1449ZM14.3006 12.661L14.4239 11.9212L14.4239 11.9212L14.3006 12.661ZM13.185 12.4751L13.0617 13.2148H13.0617L13.185 12.4751ZM11.8564 13.0506L11.2324 12.6346L11.8564 13.0506ZM0.917969 11C0.917969 13.2694 1.66856 15.3656 2.93472 17.051L4.134 16.1501C3.0563 14.7155 2.41797 12.9334 2.41797 11H0.917969ZM11.0013 0.916656C5.43243 0.916656 0.917969 5.43112 0.917969 11H2.41797C2.41797 6.25955 6.26086 2.41666 11.0013 2.41666V0.916656ZM21.0846 11C21.0846 5.43112 16.5702 0.916656 11.0013 0.916656V2.41666C15.7417 2.41666 19.5846 6.25955 19.5846 11H21.0846ZM11.0013 21.0833C16.5702 21.0833 21.0846 16.5689 21.0846 11H19.5846C19.5846 15.7404 15.7417 19.5833 11.0013 19.5833V21.0833ZM4.95028 19.0666C6.6357 20.3327 8.73193 21.0833 11.0013 21.0833V19.5833C9.06792 19.5833 7.2858 18.945 5.85123 17.8673L4.95028 19.0666ZM2.00338 21.0041L5.73617 19.1377L5.06535 17.7961L1.33256 19.6625L2.00338 21.0041ZM2.86354 16.2651L0.997148 19.9979L2.33879 20.6687L4.20518 16.9359L2.86354 16.2651ZM6.2513 6.99999V8.33332H7.7513V6.99999H6.2513ZM13.668 15.75H15.0013V14.25H13.668V15.75ZM6.2513 8.33332C6.2513 12.4294 9.57186 15.75 13.668 15.75V14.25C10.4003 14.25 7.7513 11.601 7.7513 8.33332H6.2513ZM7.41733 7.62403L7.70154 7.43455L6.86949 6.18647L6.58528 6.37595L7.41733 7.62403ZM8.60052 7.82401L8.78644 8.93957L10.266 8.69297L10.0801 7.57741L8.60052 7.82401ZM8.53462 9.52083L7.25194 10.376L8.08399 11.624L9.36667 10.7689L8.53462 9.52083ZM8.78644 8.93957C8.82418 9.166 8.72562 9.3935 8.53462 9.52083L9.36667 10.7689C10.0488 10.3142 10.4008 9.50163 10.266 8.69297L8.78644 8.93957ZM7.70154 7.43455C8.05375 7.19974 8.53093 7.40647 8.60052 7.82401L10.0801 7.57741C9.83157 6.0862 8.12738 5.34789 6.86949 6.18647L7.70154 7.43455ZM15.6253 15.416L15.8148 15.1318L14.5667 14.2997L14.3773 14.584L15.6253 15.416ZM14.4239 11.9212L13.3083 11.7353L13.0617 13.2148L14.1773 13.4008L14.4239 11.9212ZM11.2324 12.6346L10.3773 13.9173L11.6253 14.7493L12.4805 13.4667L11.2324 12.6346ZM13.3083 11.7353C12.4997 11.6005 11.6871 11.9525 11.2324 12.6346L12.4805 13.4667C12.6078 13.2757 12.8353 13.1771 13.0617 13.2148L13.3083 11.7353ZM15.8148 15.1318C16.6534 13.8739 15.9151 12.1697 14.4239 11.9212L14.1773 13.4008C14.5948 13.4704 14.8015 13.9475 14.5667 14.2997L15.8148 15.1318Z" fill="#5E6367"/>
</svg>
