<svg width="30" height="30" viewBox="0 0 30 30" fill="none" xmlns="http://www.w3.org/2000/svg">
<rect width="30" height="30" rx="15" fill="#FFA73D"/>
<g clip-path="url(#clip0_81_14527)">
<path fill-rule="evenodd" clip-rule="evenodd" d="M17.7 17.5714C17.8028 17.2629 17.7514 16.9543 17.6486 16.6971C17.5457 16.44 17.34 16.2343 17.0314 15.9771C16.7228 15.8229 16.26 15.6686 15.6428 15.5657L14.2028 15.3086L13.74 17.7257C13.6886 18.0857 13.6886 18.2914 13.6886 18.3429C13.6886 18.3943 13.74 18.4457 13.7914 18.4971C13.8943 18.5486 14.0486 18.6 14.3057 18.6514L15.1286 18.8057C15.5914 18.9086 16.0028 18.96 16.3114 18.9086C16.62 18.8571 16.9286 18.7543 17.1857 18.4971C17.4428 18.24 17.6486 17.9829 17.7 17.5714ZM16.26 11.1943C16.98 11.3486 17.4428 11.4514 17.7 11.6057C17.9571 11.76 18.1628 11.9657 18.2143 12.1714C18.3686 12.3771 18.3686 12.6343 18.3171 12.9429C18.2829 13.2169 18.1559 13.4711 17.9571 13.6629C17.7514 13.8686 17.4943 13.9714 17.1857 14.0229C16.8771 14.0743 16.3628 14.0229 15.7457 13.92L14.5114 13.7143L15.0257 10.9886L16.26 11.1943ZM19.86 10.3714C20.3743 10.7314 20.7343 11.1429 20.94 11.6057C21.1457 12.0686 21.1971 12.5829 20.94 13.1486C20.8886 13.5086 20.7343 13.8171 20.5286 14.1257C20.3228 14.3829 20.0657 14.64 19.7057 14.8457C19.3457 15.0514 18.9343 15.2057 18.42 15.2571C18.9343 15.5143 19.2943 15.72 19.5514 15.9257C19.9114 16.2343 20.1686 16.5943 20.3228 17.0571C20.4771 17.4686 20.5286 17.9314 20.4257 18.4457C20.3228 19.0629 20.0657 19.5771 19.6028 19.9886C19.1914 20.4514 18.6257 20.7086 17.9057 20.8629C17.6486 20.9143 17.34 20.9657 17.0314 20.9657L16.6714 22.92L14.82 22.56L15.18 20.7086C15.1286 20.6571 15.0771 20.6571 15.0257 20.6571L13.9457 20.4514L13.5857 22.2514L11.6828 21.8914L12.0428 20.04L9.16284 19.5257L9.47141 17.9829L9.93427 18.0857C10.2428 18.1886 10.4486 18.1886 10.5514 18.1371C10.6543 18.1371 10.7571 18.0857 10.8086 17.9829C10.86 17.88 10.9114 17.6743 10.9628 17.3657L12.0943 11.1943L12.12 11.04C12.1611 10.8163 12.1881 10.662 12.1457 10.5771C12.1467 10.5241 12.1327 10.4719 12.1054 10.4264C12.0782 10.381 12.0386 10.3441 11.9914 10.32C11.8886 10.2171 11.7343 10.1657 11.4257 10.1143L10.9628 10.0114L11.2714 8.46858L14.1514 9.03429L14.5114 7.18286L16.4143 7.54286L16.0543 9.34286L17.2886 9.49715L17.6486 7.69715L19.5 8.05715L19.14 10.0114C19.3971 10.1143 19.6543 10.2171 19.86 10.3714Z" fill="white"/>
</g>
<defs>
<clipPath id="clip0_81_14527">
<rect width="18" height="18" fill="white" transform="translate(6 6)"/>
</clipPath>
</defs>
</svg>
