<svg width="22" height="20" viewBox="0 0 22 20" fill="none" xmlns="http://www.w3.org/2000/svg">
<path d="M20.3058 2L21.0542 1.95038C21.0342 1.64953 20.8361 1.38987 20.5511 1.29125C20.2662 1.19263 19.9499 1.27424 19.7482 1.49839L20.3058 2ZM19.7245 5.94521C19.7245 5.53099 19.3888 5.19521 18.9745 5.19521C18.5603 5.19521 18.2245 5.53099 18.2245 5.94521H19.7245ZM10.9869 6.0548H10.2369H10.9869ZM10.9869 7.33333L11.7369 7.33333V7.33333L10.9869 7.33333ZM1.66797 16.6667V15.9167C1.33757 15.9167 1.04609 16.1329 0.950227 16.4491C0.854369 16.7653 0.976719 17.1069 1.2515 17.2904L1.66797 16.6667ZM2.99924 2L3.70162 1.73701C3.59697 1.45751 3.33656 1.26666 3.03851 1.25103C2.74047 1.2354 2.46152 1.39798 2.32822 1.665L2.99924 2ZM8.32435 14L8.85509 14.5299C9.03863 14.3461 9.11398 14.0804 9.05426 13.8276C8.99453 13.5748 8.80825 13.3709 8.56185 13.2886L8.32435 14ZM17.956 3.29784L17.3997 3.80085L17.67 4.09972L18.0683 4.03938L17.956 3.29784ZM19.5575 2.04962C19.6259 3.0825 19.5616 3.69879 19.3991 4.15688C19.2422 4.59929 18.9678 4.96772 18.4556 5.45848L19.4935 6.54152C20.0814 5.97813 20.5436 5.41714 20.8128 4.65837C21.0764 3.91528 21.1277 3.05865 21.0542 1.95038L19.5575 2.04962ZM19.7245 6.91666V5.94521H18.2245V6.91666H19.7245ZM10.2369 6.0548L10.2369 7.33333L11.7369 7.33333L11.7369 6.05479L10.2369 6.0548ZM10.2369 7.33333L10.2369 8L11.7369 8L11.7369 7.33333L10.2369 7.33333ZM15.0354 1.25C12.3842 1.25 10.2369 3.40227 10.2369 6.0548H11.7369C11.7369 4.22851 13.2148 2.75 15.0354 2.75V1.25ZM18.2245 6.91666C18.2245 12.6247 13.6047 17.25 7.90831 17.25V18.75C14.4353 18.75 19.7245 13.4509 19.7245 6.91666H18.2245ZM2.29686 2.26299C3.02872 4.21762 5.77357 8.08333 10.9869 8.08333V6.58333C6.61504 6.58333 4.30105 3.33794 3.70162 1.73701L2.29686 2.26299ZM2.32822 1.665C0.924538 4.4767 0.703425 7.21458 1.73015 9.55166C2.75428 11.8828 4.95431 13.6656 8.08685 14.7114L8.56185 13.2886C5.70365 12.3344 3.90985 10.7839 3.10347 8.94834C2.29969 7.11875 2.4114 4.85663 3.67027 2.335L2.32822 1.665ZM7.7936 13.4701C7.00138 14.2635 4.60773 15.9167 1.66797 15.9167V17.4167C5.11833 17.4167 7.87231 15.5142 8.85509 14.5299L7.7936 13.4701ZM18.5123 2.79483C17.6555 1.84725 16.4147 1.25 15.0354 1.25V2.75C15.9727 2.75 16.815 3.1542 17.3997 3.80085L18.5123 2.79483ZM18.0683 4.03938C19.1022 3.88281 20.1088 3.34041 20.8634 2.50161L19.7482 1.49839C19.2168 2.08911 18.5209 2.45375 17.8437 2.5563L18.0683 4.03938ZM1.2515 17.2904C3.46291 18.767 5.78188 18.75 7.90831 18.75V17.25C5.73232 17.25 3.86685 17.233 2.08444 16.0429L1.2515 17.2904Z" fill="#5E6367"/>
</svg>
