<svg width="22" height="22" viewBox="0 0 22 22" fill="none" xmlns="http://www.w3.org/2000/svg">
<path d="M4.91435 17.3523L5.638 17.5494C5.71546 17.2649 5.61905 16.9614 5.39162 16.7738L4.91435 17.3523ZM4.10275 20.3333L3.37909 20.1363C3.30231 20.4183 3.39637 20.7193 3.62008 20.9074C3.8438 21.0955 4.15642 21.1365 4.42108 21.0124L4.10275 20.3333ZM7.34913 18.8116L7.63148 18.1168C7.43781 18.0381 7.22009 18.0438 7.0308 18.1325L7.34913 18.8116ZM9.66797 9.66666L10.118 9.06666L9.67877 8.73726L9.23204 9.05636L9.66797 9.66666ZM12.3346 11.6667L11.8846 12.2667L12.3591 12.6225L12.8148 12.2428L12.3346 11.6667ZM11.0013 0.916656C5.46357 0.916656 0.917969 5.21851 0.917969 10.5942H2.41797C2.41797 6.10901 6.22854 2.41666 11.0013 2.41666V0.916656ZM0.917969 10.5942C0.917969 13.5391 2.29405 16.163 4.43708 17.9309L5.39162 16.7738C3.56594 15.2677 2.41797 13.0561 2.41797 10.5942H0.917969ZM4.19069 17.1553L3.37909 20.1363L4.82641 20.5303L5.638 17.5494L4.19069 17.1553ZM4.42108 21.0124L7.66745 19.4907L7.0308 18.1325L3.78443 19.6542L4.42108 21.0124ZM7.06678 19.5064C8.27713 19.9982 9.60651 20.2717 11.0013 20.2717V18.7717C9.80386 18.7717 8.66599 18.5371 7.63148 18.1168L7.06678 19.5064ZM11.0013 20.2717C16.539 20.2717 21.0846 15.9699 21.0846 10.5942H19.5846C19.5846 15.0794 15.7741 18.7717 11.0013 18.7717V20.2717ZM21.0846 10.5942C21.0846 5.21851 16.539 0.916656 11.0013 0.916656V2.41666C15.7741 2.41666 19.5846 6.10901 19.5846 10.5942H21.0846ZM5.43723 13.6103L10.1039 10.277L9.23204 9.05636L4.56537 12.3897L5.43723 13.6103ZM9.21797 10.2667L11.8846 12.2667L12.7846 11.0667L10.118 9.06666L9.21797 10.2667ZM12.8148 12.2428L16.8148 8.90949L15.8545 7.75716L11.8545 11.0905L12.8148 12.2428Z" fill="#5E6367"/>
</svg>
