<svg width="20" height="20" viewBox="0 0 20 20" fill="none" xmlns="http://www.w3.org/2000/svg">
<path d="M13.3346 10.75V14.25C13.3346 17.1667 12.168 18.3333 9.2513 18.3333H5.7513C2.83464 18.3333 1.66797 17.1667 1.66797 14.25V10.75C1.66797 7.83332 2.83464 6.66666 5.7513 6.66666H9.2513C12.168 6.66666 13.3346 7.83332 13.3346 10.75Z" stroke="#5E6367" stroke-width="1.5" stroke-linecap="round" stroke-linejoin="round"/>
<path d="M18.3346 5.74999V9.24999C18.3346 12.1667 17.168 13.3333 14.2513 13.3333H13.3346V10.75C13.3346 7.83332 12.168 6.66666 9.2513 6.66666H6.66797V5.74999C6.66797 2.83332 7.83464 1.66666 10.7513 1.66666H14.2513C17.168 1.66666 18.3346 2.83332 18.3346 5.74999Z" stroke="#5E6367" stroke-width="1.5" stroke-linecap="round" stroke-linejoin="round"/>
</svg>
