<svg width="14" height="14" viewBox="0 0 14 14" fill="none" xmlns="http://www.w3.org/2000/svg">
<path d="M9.33317 7.52502V9.97502C9.33317 12.0167 8.5165 12.8334 6.47484 12.8334H4.02484C1.98317 12.8334 1.1665 12.0167 1.1665 9.97502V7.52502C1.1665 5.48335 1.98317 4.66669 4.02484 4.66669H6.47484C8.5165 4.66669 9.33317 5.48335 9.33317 7.52502Z" stroke="#5E6367" stroke-linecap="round" stroke-linejoin="round"/>
<path d="M12.8332 4.02502V6.47502C12.8332 8.51669 12.0165 9.33335 9.97484 9.33335H9.33317V7.52502C9.33317 5.48335 8.5165 4.66669 6.47484 4.66669H4.6665V4.02502C4.6665 1.98335 5.48317 1.16669 7.52484 1.16669H9.97484C12.0165 1.16669 12.8332 1.98335 12.8332 4.02502Z" stroke="#5E6367" stroke-linecap="round" stroke-linejoin="round"/>
</svg>
