<svg width="32" height="32" viewBox="0 0 32 32" fill="none" xmlns="http://www.w3.org/2000/svg">
<g clip-path="url(#clip0_519_9729)">
<path d="M9.76011 0H22.24C24.8285 0 27.311 1.02828 29.1414 2.85863C30.9717 4.68897 32 7.17146 32 9.75996V22.2399C32 24.8284 30.9717 27.311 29.1413 29.1413C27.311 30.9717 24.8284 32 22.2399 32H9.76011C7.17157 32 4.68905 30.9717 2.85867 29.1413C1.02829 27.311 0 24.8284 0 22.2399L0 9.76011C0 7.17157 1.02829 4.68905 2.85867 2.85867C4.68905 1.02829 7.17157 0 9.76011 0Z" fill="black"/>
<path d="M17.8492 17.2272C17.8492 17.7177 17.6543 18.1881 17.3075 18.5349C16.9607 18.8817 16.4903 19.0766 15.9999 19.0766C15.5094 19.0766 15.039 18.8817 14.6922 18.5349C14.3454 18.1881 14.1505 17.7177 14.1505 17.2272C14.1501 17.1644 14.1533 17.1015 14.1601 17.039C14.1876 17.2323 14.2874 17.4079 14.4393 17.5305C14.5912 17.653 14.7839 17.7135 14.9786 17.6995C15.1733 17.6856 15.3555 17.5984 15.4884 17.4555C15.6213 17.3125 15.695 17.1245 15.6948 16.9293C15.6944 16.766 15.6414 16.6071 15.5438 16.4762C14.2377 16.4976 12.9591 16.8547 11.831 17.5132C12.3231 18.1512 12.955 18.6679 13.6781 19.0234C14.4012 19.3789 15.1962 19.5638 16.0019 19.564C16.8077 19.5641 17.6027 19.3794 18.3259 19.0241C19.0491 18.6689 19.6812 18.1525 20.1735 17.5146C19.4305 17.0588 18.6049 16.7539 17.744 16.6172C17.8132 16.8132 17.8488 17.0194 17.8492 17.2272ZM18.6059 15.5847C17.813 15.1308 16.9153 14.892 16.0018 14.892C15.0882 14.892 14.1905 15.1309 13.3977 15.5848C15.1089 15.1693 16.8947 15.1693 18.6059 15.5847ZM26.0783 22.3638C26.0529 22.2875 26.0198 22.2141 25.9794 22.1445L22.6321 16.3495L22.6251 16.3372L22.6242 16.3355C22.6013 16.2957 22.5771 16.2572 22.5525 16.2192L22.5134 16.1558C22.4832 16.1047 22.4524 16.0544 22.4199 16.0051L22.3969 15.9707L22.3304 15.8699L22.3005 15.8258L22.2717 15.7866C22.0324 15.4437 21.7656 15.1208 21.4739 14.8211C21.5058 14.565 21.453 14.3055 21.3237 14.0821L17.0309 6.64756C16.9266 6.46686 16.7765 6.3168 16.5959 6.21246C16.4152 6.10812 16.2102 6.05319 16.0016 6.05316C15.7929 6.05313 15.5879 6.10801 15.4072 6.2123C15.2265 6.31659 15.0764 6.46661 14.9721 6.64728L9.39061 16.3116L9.36865 16.3481L9.22378 16.6015C9.17022 16.8062 9.06277 16.9928 8.91263 17.1418L6.02239 22.1445C5.91792 22.3253 5.86287 22.5304 5.86279 22.7393C5.86271 22.9481 5.9176 23.1532 6.02193 23.3341C6.12626 23.515 6.27638 23.6652 6.45717 23.7697C6.63796 23.8742 6.84305 23.9292 7.05187 23.9293H8.05719C8.25276 23.9294 8.44532 23.8812 8.61781 23.789C8.8788 23.6494 9.15475 23.5124 9.4679 23.3674C9.51201 23.3458 9.55544 23.3253 9.60116 23.3075L9.65428 23.2852C10.1697 23.0542 10.6978 22.8526 11.236 22.6815C12.1108 22.403 13.0089 22.2036 13.9194 22.0858L13.9611 22.0808C14.6373 21.99 15.319 21.9449 16.0013 21.9458C16.061 21.9458 16.1203 21.9435 16.1797 21.9408L16.2808 21.9372C16.341 21.936 16.4012 21.9339 16.4579 21.9306C16.5306 21.9259 16.6029 21.9193 16.6749 21.9127L16.7529 21.905C16.8126 21.8994 16.8722 21.8938 16.9297 21.8865C17.0132 21.8765 17.0958 21.8639 17.178 21.851C17.2504 21.8397 17.3226 21.8274 17.4019 21.8128L17.4277 21.8078C17.6038 21.9581 17.8201 22.0536 18.0498 22.0824C18.9701 22.1997 19.8778 22.4005 20.7617 22.6822C21.2985 22.852 21.8252 23.0519 22.3395 23.2812L22.4556 23.3332C22.4931 23.3502 22.5306 23.3661 22.5677 23.385L22.5996 23.4002L22.709 23.4526C22.9336 23.5598 23.1584 23.6692 23.38 23.7883C23.5528 23.8808 23.7458 23.9293 23.9419 23.9293H24.9508C25.1392 23.9292 25.3249 23.8843 25.4925 23.7984C25.6602 23.7124 25.805 23.5879 25.9151 23.435C26.0251 23.2821 26.0973 23.1053 26.1257 22.9191C26.1541 22.7328 26.1379 22.5425 26.0783 22.3638ZM23.9421 22.7406C23.7038 22.6126 23.4625 22.4952 23.2213 22.3801C23.1807 22.3609 23.1402 22.3403 23.0995 22.3217C23.0351 22.2895 22.9707 22.2615 22.9063 22.2325L22.8349 22.2005C22.276 21.9508 21.7033 21.7331 21.1197 21.5484C20.1677 21.2449 19.1901 21.0289 18.1989 20.9031C18.8333 20.6892 19.4347 20.3874 19.9853 20.0064C20.8133 20.1947 21.6271 20.441 22.4205 20.7435L21.0345 18.3411L21.0312 18.3378C20.5416 18.948 19.9448 19.4639 19.2701 19.8601L19.2722 19.8604L19.2369 19.8797C19.1458 19.9326 19.0535 19.9833 18.96 20.0317C18.9282 20.0483 18.8965 20.0651 18.8644 20.0811C18.7753 20.1254 18.6849 20.167 18.5939 20.207C18.5604 20.2218 18.5276 20.2378 18.4939 20.252C18.3757 20.3017 18.2561 20.3482 18.135 20.3909C18.0867 20.408 18.0372 20.4222 17.9884 20.438C17.9136 20.4624 17.8388 20.4869 17.763 20.5085C17.7003 20.5264 17.637 20.5419 17.5738 20.558C17.5103 20.5741 17.4466 20.5899 17.3825 20.6041C17.3153 20.6189 17.2477 20.6322 17.1799 20.6449C17.1184 20.6564 17.0567 20.6669 16.9948 20.6765C16.9251 20.6875 16.8555 20.698 16.7852 20.7067C16.7239 20.7142 16.6621 20.7198 16.6004 20.7257C16.5292 20.7323 16.4583 20.7396 16.3867 20.7439C16.3235 20.7478 16.2598 20.7485 16.1962 20.7505C16.1313 20.7524 16.0667 20.7571 16.0015 20.7571H15.998C15.2631 20.7561 14.5289 20.8049 13.8005 20.9031H13.7972C12.8059 21.029 11.8282 21.2449 10.8762 21.5484C10.2949 21.7331 9.72448 21.9508 9.16791 22.2005C9.08987 22.2311 9.0151 22.2651 8.94039 22.3024C8.64489 22.4382 8.34937 22.5843 8.05721 22.7406H7.05189L9.94206 17.7366L9.96584 17.7808C10.1774 18.1464 10.4219 18.492 10.6961 18.8133L9.58375 20.7395C10.3773 20.4364 11.1918 20.1913 12.0209 20.0064C12.2552 19.9521 12.4895 19.9046 12.7273 19.8604H12.7308L12.7323 19.8601C12.0576 19.4639 11.4608 18.948 10.9711 18.3378C10.7637 18.0864 10.5774 17.8183 10.4141 17.5363L10.4073 17.526C10.3468 17.4197 10.2957 17.3083 10.2545 17.1932L16.0012 7.2417L20.2942 14.6764C19.6899 14.2021 19.0117 13.8303 18.2869 13.5759L16.0012 9.62265L13.3011 14.296L13.2988 14.2999C14.1448 13.9052 15.0671 13.7006 16.0007 13.7004C16.9343 13.7002 17.8566 13.9044 18.7028 14.2988L18.7012 14.296L18.7558 14.3229C18.9564 14.4177 19.152 14.5228 19.3418 14.6377C19.4168 14.6825 19.4899 14.7281 19.5639 14.7748L19.5764 14.7835C19.7972 14.9306 20.0088 15.0912 20.21 15.2642L20.2262 15.2774L20.2274 15.2785C20.3095 15.3496 20.3887 15.4242 20.4673 15.4994L20.5217 15.5493L20.5324 15.56C20.8148 15.8383 21.0708 16.142 21.2972 16.4674L21.3266 16.507L21.3377 16.5237C21.3627 16.5603 21.3867 16.5975 21.4109 16.6347L21.4252 16.6564C21.4585 16.7045 21.4874 16.7562 21.5178 16.8063C21.543 16.8479 21.5705 16.8879 21.5948 16.9302L21.6018 16.9417L24.9507 22.7393L23.9421 22.7406Z" fill="url(#paint0_linear_519_9729)"/>
</g>
<defs>
<linearGradient id="paint0_linear_519_9729" x1="9.04864" y1="26.4184" x2="22.9538" y2="12.5132" gradientUnits="userSpaceOnUse">
<stop stop-color="#5FE900"/>
<stop offset="0.11016" stop-color="#5DE806"/>
<stop offset="0.25444" stop-color="#59E616"/>
<stop offset="0.41768" stop-color="#51E231"/>
<stop offset="0.59486" stop-color="#46DD57"/>
<stop offset="0.78333" stop-color="#38D788"/>
<stop offset="0.97842" stop-color="#27CFC2"/>
<stop offset="1" stop-color="#25CEC9"/>
</linearGradient>
<clipPath id="clip0_519_9729">
<rect width="32" height="32" fill="white"/>
</clipPath>
</defs>
</svg>
