<svg width="24" height="24" viewBox="0 0 24 24" fill="none" xmlns="http://www.w3.org/2000/svg">
<g clip-path="url(#clip0_216_731)">
<path d="M17.7701 17.6701C18.9001 17.6701 19.8201 16.7701 19.8301 15.6601C19.8301 15.1001 19.6001 14.5601 19.1901 14.1601L18.6401 13.62C18.1201 13.11 17.8301 12.43 17.8301 11.71V9.00005C17.8301 8.18005 17.7001 7.36006 17.3701 6.60006C16.3901 4.34006 14.1701 2.98005 11.8201 2.99005C8.51008 2.99005 5.83008 5.62004 5.83008 8.86004V11.7001C5.83008 12.4201 5.54008 13.1 5.02008 13.61L4.47008 14.15C4.06008 14.55 3.83008 15.09 3.83008 15.65C3.83008 16.76 4.75008 17.6601 5.89008 17.6601H17.7801L17.7701 17.6701Z" stroke="#5E6367" stroke-width="1.5" stroke-linecap="round" stroke-linejoin="round"/>
<path d="M10.2598 21H13.3898" stroke="#5E6367" stroke-width="1.5" stroke-linecap="round" stroke-linejoin="round"/>
</g>
<defs>
<clipPath id="clip0_216_731">
<rect width="24" height="24" fill="white"/>
</clipPath>
</defs>
</svg>
